<svg width="1440" height="2400" viewBox="0 0 1440 2400" fill="none" xmlns="http://www.w3.org/2000/svg">
  <rect width="1440" height="2400" fill="#08131D"/>
  <rect width="1440" height="2400" fill="url(#paint0_radial_1_2)"/>
  <rect width="1440" height="2400" fill="url(#paint1_radial_1_2)"/>
  <rect width="1440" height="2400" fill="url(#paint2_linear_1_2)"/>
  <path d="M-127 1593C140 1380 401 1335 687 1420C958 1502 1170 1445 1547 1193V2051H-127V1593Z" fill="url(#paint3_linear_1_2)" fill-opacity="0.45"/>
  <path d="M-112 1781C109 1704 261 1710 422 1760C628 1823 843 1867 1080 1732C1258 1630 1370 1517 1547 1346" stroke="#2F8F8B" stroke-opacity="0.18" stroke-width="4"/>
  <defs>
    <radialGradient id="paint0_radial_1_2" cx="0" cy="0" r="1" gradientUnits="userSpaceOnUse" gradientTransform="translate(1050 441) rotate(120.995) scale(1057.07 825.477)">
      <stop stop-color="#9E2C33" stop-opacity="0.34"/>
      <stop offset="1" stop-color="#9E2C33" stop-opacity="0"/>
    </radialGradient>
    <radialGradient id="paint1_radial_1_2" cx="0" cy="0" r="1" gradientUnits="userSpaceOnUse" gradientTransform="translate(344 537) rotate(70.3347) scale(970.821 693.545)">
      <stop stop-color="#0F4F67" stop-opacity="0.72"/>
      <stop offset="1" stop-color="#0F4F67" stop-opacity="0"/>
    </radialGradient>
    <linearGradient id="paint2_linear_1_2" x1="720" y1="0" x2="720" y2="2400" gradientUnits="userSpaceOnUse">
      <stop stop-color="#10202D" stop-opacity="0.1"/>
      <stop offset="0.515625" stop-color="#08131D" stop-opacity="0"/>
      <stop offset="1" stop-color="#050C13"/>
    </linearGradient>
    <linearGradient id="paint3_linear_1_2" x1="710" y1="1193" x2="710" y2="2051" gradientUnits="userSpaceOnUse">
      <stop stop-color="#0F4F67"/>
      <stop offset="1" stop-color="#08131D" stop-opacity="0"/>
    </linearGradient>
  </defs>
</svg>
