<svg xmlns="http://www.w3.org/2000/svg" width="800" height="800" viewBox="0 0 800 800" fill="none">
  <rect width="800" height="800" fill="#000" fill-opacity="0"/>
  <g stroke="#C9A86C" stroke-opacity="0.1" stroke-width="1">
    <path d="M0 80H800M0 160H800M0 240H800M0 320H800M0 400H800M0 480H800M0 560H800M0 640H800M0 720H800"/>
    <path d="M80 0V800M160 0V800M240 0V800M320 0V800M400 0V800M480 0V800M560 0V800M640 0V800M720 0V800"/>
  </g>
  <g stroke="#89A9A4" stroke-opacity="0.12" stroke-width="1">
    <path d="M0 0L800 800"/>
    <path d="M800 0L0 800"/>
  </g>
</svg>
