<svg width="800" height="800" viewBox="0 0 800 800" fill="none" xmlns="http://www.w3.org/2000/svg">
  <rect width="800" height="800" fill="#E7D6BF"/>
  <g opacity="0.18" stroke="#8C6A4E" stroke-width="1">
    <path d="M64 86C81 81 92 94 105 90C118 86 123 69 139 67C153 65 164 78 180 78C196 78 206 64 221 64C236 64 246 79 261 80C276 81 287 67 302 66C317 65 328 79 343 80C358 81 369 70 384 70C399 70 410 81 425 81C440 81 451 67 466 66C481 65 492 80 507 82C522 84 534 74 549 74C564 74 575 85 590 85C605 85 617 73 632 74C647 75 659 88 674 89C689 90 701 79 716 80"/>
    <path d="M75 228C92 223 103 236 116 232C129 228 134 211 150 209C164 207 175 220 191 220C207 220 217 206 232 206C247 206 257 221 272 222C287 223 298 209 313 208C328 207 339 221 354 222C369 223 380 212 395 212C410 212 421 223 436 223C451 223 462 209 477 208C492 207 503 222 518 224C533 226 545 216 560 216C575 216 586 227 601 227C616 227 628 215 643 216C658 217 670 230 685 231C700 232 712 221 727 222"/>
    <path d="M57 394C74 389 85 402 98 398C111 394 116 377 132 375C146 373 157 386 173 386C189 386 199 372 214 372C229 372 239 387 254 388C269 389 280 375 295 374C310 373 321 387 336 388C351 389 362 378 377 378C392 378 403 389 418 389C433 389 444 375 459 374C474 373 485 388 500 390C515 392 527 382 542 382C557 382 568 393 583 393C598 393 610 381 625 382C640 383 652 396 667 397C682 398 694 387 709 388"/>
    <path d="M69 566C86 561 97 574 110 570C123 566 128 549 144 547C158 545 169 558 185 558C201 558 211 544 226 544C241 544 251 559 266 560C281 561 292 547 307 546C322 545 333 559 348 560C363 561 374 550 389 550C404 550 415 561 430 561C445 561 456 547 471 546C486 545 497 560 512 562C527 564 539 554 554 554C569 554 580 565 595 565C610 565 622 553 637 554C652 555 664 568 679 569C694 570 706 559 721 560"/>
    <path d="M52 714C69 709 80 722 93 718C106 714 111 697 127 695C141 693 152 706 168 706C184 706 194 692 209 692C224 692 234 707 249 708C264 709 275 695 290 694C305 693 316 707 331 708C346 709 357 698 372 698C387 698 398 709 413 709C428 709 439 695 454 694C469 693 480 708 495 710C510 712 522 702 537 702C552 702 563 713 578 713C593 713 605 701 620 702C635 703 647 716 662 717C677 718 689 707 704 708"/>
  </g>
  <g opacity="0.2" fill="#6B4A38">
    <circle cx="132" cy="141" r="1.5"/>
    <circle cx="271" cy="126" r="1.5"/>
    <circle cx="583" cy="147" r="1.5"/>
    <circle cx="712" cy="173" r="1.5"/>
    <circle cx="201" cy="334" r="1.5"/>
    <circle cx="488" cy="301" r="1.5"/>
    <circle cx="645" cy="356" r="1.5"/>
    <circle cx="113" cy="511" r="1.5"/>
    <circle cx="337" cy="547" r="1.5"/>
    <circle cx="694" cy="529" r="1.5"/>
    <circle cx="169" cy="668" r="1.5"/>
    <circle cx="446" cy="714" r="1.5"/>
    <circle cx="731" cy="661" r="1.5"/>
  </g>
</svg>
