<svg width="720" height="480" viewBox="0 0 720 480" fill="none" xmlns="http://www.w3.org/2000/svg">
  <rect width="720" height="480" fill="#201915"/>
  <rect x="32" y="32" width="656" height="416" rx="12" stroke="#B78957" stroke-width="2"/>
  <path d="M112 120H608" stroke="#433128" stroke-width="2"/>
  <path d="M112 192H608" stroke="#433128" stroke-width="2"/>
  <path d="M112 264H608" stroke="#433128" stroke-width="2"/>
  <path d="M112 336H608" stroke="#433128" stroke-width="2"/>
  <path d="M360 96V384" stroke="#433128" stroke-width="2"/>
  <path d="M327 92C336 127 351 150 379 170C405 189 438 202 455 227C472 252 472 281 458 307C446 329 422 345 416 382" stroke="#E8D9C3" stroke-width="18" stroke-linecap="round"/>
  <path d="M295 110C264 132 240 155 225 184C208 216 204 250 210 287C215 322 236 349 265 373" stroke="#7C4A36" stroke-width="6" stroke-linecap="round" stroke-dasharray="2 14"/>
  <circle cx="327" cy="92" r="10" fill="#E8D9C3"/>
  <circle cx="416" cy="382" r="10" fill="#E8D9C3"/>
  <circle cx="240" cy="155" r="8" fill="#B78957"/>
  <circle cx="210" cy="287" r="8" fill="#B78957"/>
  <rect x="86" y="399" width="160" height="26" rx="4" fill="#2B211C"/>
  <rect x="474" y="399" width="160" height="26" rx="4" fill="#2B211C"/>
</svg>
