<svg xmlns="http://www.w3.org/2000/svg" viewBox="0 0 1600 1600" fill="none">
  <rect width="1600" height="1600" fill="#17110D"/>
  <path d="M224 180H1376V1418H224V180Z" stroke="#E8D2B0" stroke-opacity=".08" stroke-width="3"/>
  <path d="M280 260H1320V1338H280V260Z" stroke="#E8D2B0" stroke-opacity=".06" stroke-width="2"/>
  <path d="M320 320H1280" stroke="#E8D2B0" stroke-opacity=".06" stroke-width="2"/>
  <path d="M320 480H1280" stroke="#E8D2B0" stroke-opacity=".06" stroke-width="2"/>
  <path d="M320 640H1280" stroke="#E8D2B0" stroke-opacity=".06" stroke-width="2"/>
  <path d="M320 800H1280" stroke="#E8D2B0" stroke-opacity=".06" stroke-width="2"/>
  <path d="M320 960H1280" stroke="#E8D2B0" stroke-opacity=".06" stroke-width="2"/>
  <path d="M320 1120H1280" stroke="#E8D2B0" stroke-opacity=".06" stroke-width="2"/>
  <path d="M440 220V1378" stroke="#E8D2B0" stroke-opacity=".06" stroke-width="2"/>
  <path d="M800 220V1378" stroke="#E8D2B0" stroke-opacity=".06" stroke-width="2"/>
  <path d="M1160 220V1378" stroke="#E8D2B0" stroke-opacity=".06" stroke-width="2"/>
  <path d="M212 1190C356 1166 468 1110 597 1014C781 877 909 706 1035 458C1078 374 1119 281 1166 182" stroke="#B8874B" stroke-opacity=".18" stroke-width="6"/>
  <circle cx="597" cy="1014" r="18" fill="#B8874B" fill-opacity=".7"/>
  <circle cx="1035" cy="458" r="18" fill="#B8874B" fill-opacity=".7"/>
</svg>
