<svg xmlns="http://www.w3.org/2000/svg" width="1200" height="1200" viewBox="0 0 1200 1200" fill="none">
  <rect width="1200" height="1200" fill="#000" fill-opacity="0"/>
  <g stroke="#E3C88C" stroke-opacity="0.08" stroke-width="1.2">
    <path d="M40 210C180 140 340 144 456 214C612 309 754 291 920 222C1014 183 1090 182 1160 214"/>
    <path d="M20 310C176 244 336 250 454 321C598 407 768 396 936 330C1042 288 1112 289 1180 321"/>
    <path d="M-10 420C162 354 326 360 448 430C604 521 772 512 948 444C1052 404 1124 402 1194 434"/>
    <path d="M-24 530C154 466 322 474 454 546C616 634 790 628 962 556C1068 512 1140 515 1210 546"/>
    <path d="M-20 640C156 576 332 584 464 654C630 742 804 734 974 666C1080 622 1146 623 1218 656"/>
    <path d="M0 748C182 690 360 694 494 766C658 852 818 842 994 778C1096 740 1158 742 1228 776"/>
    <path d="M28 860C216 806 394 810 532 878C694 962 850 958 1024 892C1124 854 1186 856 1252 890"/>
  </g>
</svg>
