<svg version="1.1" id="Layer_1" xmlns="http://www.w3.org/2000/svg" xmlns:xlink="http://www.w3.org/1999/xlink" x="0px" y="0px"
	 width="100%" viewBox="0 0 161 121" enable-background="new 0 0 161 121" xml:space="preserve">
<path fill="#000000" opacity="1.000000" stroke="none" 
	d="
M100.000000,122.000000 
	C66.666672,122.000000 33.833340,122.000000 1.000009,122.000000 
	C1.000006,81.666672 1.000006,41.333351 1.000003,1.000020 
	C54.666653,1.000013 108.333305,1.000013 161.999969,1.000007 
	C161.999969,41.333313 161.999969,81.666626 161.999985,121.999969 
	C141.500000,122.000000 121.000000,122.000000 100.000000,122.000000 
M67.110672,22.127506 
	C63.072414,22.120037 59.034161,22.112568 54.502926,21.919228 
	C53.670979,21.976377 52.839035,22.033527 51.270302,22.099443 
	C47.840412,23.343090 43.941689,23.975456 42.589474,29.044891 
	C40.386829,31.360563 38.184185,33.676235 35.413422,35.961029 
	C35.086979,35.924068 34.627014,35.727646 34.453297,35.873096 
	C26.909960,42.188976 19.372271,48.512299 11.924077,54.939228 
	C11.514391,55.292740 11.874430,56.538292 11.855774,58.099052 
	C13.903969,60.731625 15.952164,63.364197 18.365309,66.556900 
	C24.589279,71.016624 30.813251,75.476349 37.335117,80.321037 
	C37.546551,80.568985 37.781601,80.792046 38.443470,81.350464 
	C38.950222,81.517365 39.456970,81.684265 40.417591,82.316566 
	C41.060055,82.897713 41.702518,83.478859 42.236172,84.691040 
	C42.233315,85.117508 42.230457,85.543976 42.245274,86.511353 
	C42.406120,87.022171 42.566967,87.532990 43.092625,88.375549 
	C43.349430,88.585526 43.638321,88.732307 44.238586,89.388245 
	C45.188446,90.198380 46.138309,91.008514 47.476299,91.992188 
	C47.476299,91.992188 47.880810,92.123077 48.566261,92.473358 
	C50.368793,92.626465 52.171329,92.779572 54.503048,92.911942 
	C54.679264,92.901459 54.855484,92.890976 55.775326,92.925758 
	C56.520428,92.943069 57.265526,92.960388 58.461575,93.600647 
	C60.474300,94.088737 62.481968,94.973671 64.500580,94.999390 
	C76.084175,95.146957 87.670387,95.112556 99.255653,95.096474 
	C108.011360,95.084312 116.778252,95.237778 125.515404,94.810852 
	C127.964630,94.691177 130.326233,92.778168 133.255829,91.143288 
	C133.807037,89.347763 134.759964,87.569160 134.836441,85.753647 
	C135.097672,79.553215 135.050629,73.339798 135.688828,66.487411 
	C135.782333,55.285954 135.921021,44.084347 135.885345,32.883301 
	C135.882431,31.967241 134.690964,31.054968 133.546112,30.040230 
	C133.375290,30.021292 133.204483,30.002352 133.042755,29.157482 
	C133.034241,27.781366 133.025742,26.405252 133.500931,24.586935 
	C131.346954,23.390776 129.247238,21.327093 127.027115,21.188208 
	C123.029488,20.938114 118.959709,21.841341 114.430168,21.995438 
	C113.617393,22.039120 112.804619,22.082802 111.344604,22.018555 
	C110.907326,22.004456 110.470039,21.990355 109.568161,21.239826 
	C96.408424,21.203930 83.248688,21.168036 69.601784,21.238146 
	C69.423843,21.511017 69.245903,21.783888 68.548508,22.183372 
	C68.374817,22.223335 68.201134,22.263298 67.110672,22.127506 
z"/>
<path fill="#1D1108" opacity="1.000000" stroke="none" 
	d="
M132.728027,91.687759 
	C130.326233,92.778168 127.964630,94.691177 125.515404,94.810852 
	C116.778252,95.237778 108.011360,95.084312 99.255653,95.096474 
	C87.670387,95.112556 76.084175,95.146957 64.500580,94.999390 
	C62.481968,94.973671 60.474300,94.088737 58.518333,93.221863 
	C59.980869,92.317787 61.386650,91.792480 63.053596,91.251625 
	C63.881989,90.927078 64.449219,90.618095 65.433350,90.294418 
	C67.515450,90.338554 69.180649,90.397392 70.909569,90.674377 
	C71.692719,90.708176 72.412155,90.523827 73.546402,90.321594 
	C75.610497,90.345596 77.259773,90.387489 79.057999,90.732452 
	C81.512833,91.445534 83.825584,92.236038 86.123314,92.194511 
	C93.133751,92.067787 100.138412,91.620613 107.579590,91.277428 
	C116.251923,91.400398 124.489975,91.544075 132.728027,91.687759 
z"/>
<path fill="#38200F" opacity="1.000000" stroke="none" 
	d="
M62.792431,91.267181 
	C61.386650,91.792480 59.980869,92.317787 58.292862,92.910393 
	C57.265526,92.960388 56.520428,92.943069 55.274445,92.848694 
	C54.486343,92.711067 54.219776,92.764755 53.973862,92.932678 
	C52.171329,92.779572 50.368793,92.626465 48.452042,92.071777 
	C50.526558,89.131470 52.649021,86.578094 50.769722,82.933739 
	C44.754101,84.361252 46.491386,88.294823 47.088169,91.818649 
	C46.138309,91.008514 45.188446,90.198380 43.900162,88.967560 
	C43.292007,88.365524 43.014030,88.197838 42.727810,88.043808 
	C42.566967,87.532990 42.406120,87.022171 42.390968,86.140251 
	C42.472767,85.199440 42.408871,84.629723 42.344978,84.060013 
	C41.702518,83.478859 41.060055,82.897713 39.960716,81.957230 
	C39.015980,81.395332 38.528122,81.192780 38.040264,80.990227 
	C37.781601,80.792046 37.546551,80.568985 37.301552,79.845406 
	C37.512791,78.590950 37.757599,77.812119 38.001778,76.707245 
	C37.997375,75.946495 37.993603,75.511787 38.252754,75.039948 
	C38.692173,75.016640 38.868664,75.030479 39.021248,75.019760 
	C38.997337,74.995216 38.943592,74.952682 39.076817,75.153870 
	C39.823719,75.667931 40.437397,75.980804 41.380508,76.084236 
	C42.487118,74.866425 43.264286,73.858063 44.341530,73.012604 
	C46.028572,73.874191 47.415535,74.572891 48.966957,75.558571 
	C50.763653,77.495415 52.395897,79.145279 54.315556,80.954453 
	C55.064606,81.812317 55.526241,82.510864 56.228287,83.476486 
	C59.645267,83.830215 62.821838,83.916855 66.375748,84.029022 
	C69.160744,84.091705 71.568413,84.128876 73.828697,84.414841 
	C72.817856,85.417999 71.954399,86.172363 70.683685,86.939804 
	C68.245094,87.253059 66.213745,87.553230 63.736351,87.892624 
	C60.508854,88.283890 57.727413,88.635933 54.696705,89.034981 
	C54.084061,89.446915 53.720680,89.811836 53.357300,90.176758 
	C54.019730,90.365089 54.682159,90.553429 55.738480,90.739624 
	C58.352394,90.914047 60.572411,91.090614 62.792431,91.267181 
z"/>
<path fill="#503723" opacity="1.000000" stroke="none" 
	d="
M132.991928,91.415527 
	C124.489975,91.544075 116.251923,91.400398 107.517929,91.109314 
	C107.027626,90.620819 107.033264,90.279732 107.381027,89.832184 
	C110.048119,89.359863 112.362282,88.884659 114.700577,88.653770 
	C118.205811,88.307663 121.727974,88.133072 125.505905,87.933868 
	C125.945984,88.008179 126.123108,88.034157 126.399055,88.406158 
	C129.649399,91.241631 131.362320,90.256348 131.555771,86.471413 
	C131.818604,81.328232 131.873917,76.174454 132.171066,70.744125 
	C132.874313,69.311661 133.424713,68.160301 134.262146,67.034821 
	C134.739838,67.084244 134.930511,67.107788 135.121216,67.131332 
	C135.050629,73.339798 135.097672,79.553215 134.836441,85.753647 
	C134.759964,87.569160 133.807037,89.347763 132.991928,91.415527 
z"/>
<path fill="#683A16" opacity="1.000000" stroke="none" 
	d="
M52.007088,22.090677 
	C52.839035,22.033527 53.670979,21.976377 54.906376,22.261740 
	C55.941303,23.057499 56.572781,23.510748 57.574295,24.124668 
	C63.568722,24.285339 69.193115,24.285339 74.817505,24.285339 
	C74.817093,23.910049 74.816673,23.534761 74.816261,23.159472 
	C73.544731,23.073984 72.273201,22.988497 71.002258,22.713253 
	C71.002853,22.523499 71.004311,22.143986 71.469223,22.093021 
	C77.288124,22.067137 82.642113,22.092216 87.994926,22.359751 
	C87.991402,22.925472 87.989998,23.248745 87.558121,23.655342 
	C84.564659,23.738661 82.002632,23.738661 79.440613,23.738661 
	C79.440269,24.208086 79.439926,24.677511 79.439583,25.146936 
	C83.953499,25.146936 88.467415,25.146936 92.978683,25.370499 
	C92.963837,25.892191 92.966125,26.190212 92.516289,26.538790 
	C82.034393,26.727432 72.019127,26.865408 61.588402,26.946838 
	C59.597225,27.264532 58.021507,27.638769 56.131401,28.011318 
	C55.186920,27.991074 54.556828,27.972515 53.926926,27.615984 
	C53.270985,26.486572 52.614857,25.695133 51.963074,24.552032 
	C51.980648,23.497139 51.993870,22.793909 52.007088,22.090677 
z"/>
<path fill="#725A42" opacity="1.000000" stroke="none" 
	d="
M135.405014,66.809372 
	C134.930511,67.107788 134.739838,67.084244 134.214874,66.614029 
	C133.583618,63.396149 132.983078,60.618126 133.045197,57.855003 
	C133.252975,48.614109 133.697769,39.378540 134.051788,30.140934 
	C134.690964,31.054968 135.882431,31.967241 135.885345,32.883301 
	C135.921021,44.084347 135.782333,55.285954 135.405014,66.809372 
z"/>
<path fill="#2D180B" opacity="1.000000" stroke="none" 
	d="
M37.989830,75.077080 
	C37.993603,75.511787 37.997375,75.946495 37.648582,76.649010 
	C34.830814,75.089775 32.392498,73.224991 29.894005,71.444664 
	C26.283520,68.871971 23.542042,64.363731 18.000359,65.996765 
	C15.952164,63.364197 13.903969,60.731625 12.208670,57.768845 
	C13.009230,57.538666 13.456893,57.638699 13.990671,58.019485 
	C15.135976,60.672146 16.371140,62.587608 19.535725,60.465698 
	C21.220917,61.427765 22.601917,62.211735 24.124826,63.007244 
	C24.266735,63.018787 24.549719,62.987083 24.648041,63.337067 
	C29.160852,67.483727 33.575344,71.280403 37.989830,75.077080 
z"/>
<path fill="#69492B" opacity="1.000000" stroke="none" 
	d="
M13.904557,57.738731 
	C13.456893,57.638699 13.009230,57.538666 12.218876,57.403629 
	C11.874430,56.538292 11.514391,55.292740 11.924077,54.939228 
	C19.372271,48.512299 26.909960,42.188976 34.453297,35.873096 
	C34.627014,35.727646 35.086979,35.924068 35.831451,35.970131 
	C36.249477,35.979237 36.509880,36.044159 36.323257,36.335739 
	C35.091785,38.104561 34.046928,39.581802 32.660233,41.117989 
	C27.870024,44.773281 23.421650,48.369633 18.661709,52.113304 
	C17.153950,53.895721 15.957760,55.530815 14.549929,57.313026 
	C14.193712,57.553005 14.049135,57.645870 13.904557,57.738731 
z"/>
<path fill="#362212" opacity="1.000000" stroke="none" 
	d="
M18.182835,66.276833 
	C23.542042,64.363731 26.283520,68.871971 29.894005,71.444664 
	C32.392498,73.224991 34.830814,75.089775 37.649216,76.975052 
	C37.757599,77.812119 37.512791,78.590950 37.152603,79.652924 
	C30.813251,75.476349 24.589279,71.016624 18.182835,66.276833 
z"/>
<path fill="#6D451E" opacity="1.000000" stroke="none" 
	d="
M114.920067,22.262783 
	C118.959709,21.841341 123.029488,20.938114 127.027115,21.188208 
	C129.247238,21.327093 131.346954,23.390776 132.932968,24.752943 
	C130.935043,25.259449 129.505096,25.599947 127.732803,25.891296 
	C124.725922,24.958241 121.811531,23.331165 120.648933,27.923988 
	C118.528053,27.225460 116.767860,26.590361 114.993759,25.690413 
	C114.970268,25.249016 114.960663,25.072468 114.951096,24.567917 
	C114.940788,23.580870 114.930428,22.921825 114.920067,22.262783 
z"/>
<path fill="#3C1F0C" opacity="1.000000" stroke="none" 
	d="
M133.798950,30.090582 
	C133.697769,39.378540 133.252975,48.614109 133.045197,57.855003 
	C132.983078,60.618126 133.583618,63.396149 133.927856,66.588135 
	C133.424713,68.160301 132.874313,69.311661 132.105713,70.337654 
	C131.693695,69.139412 131.499847,68.066551 131.437408,66.541405 
	C131.628708,56.432472 131.688614,46.775822 131.835999,36.704659 
	C132.293549,34.187901 132.663605,32.085655 133.033661,29.983414 
	C133.204483,30.002352 133.375290,30.021292 133.798950,30.090582 
z"/>
<path fill="#B18F68" opacity="1.000000" stroke="none" 
	d="
M87.996101,22.117296 
	C82.642113,22.092216 77.288124,22.067137 71.216385,22.031151 
	C70.327133,21.993807 70.155640,21.967373 70.009293,21.970348 
	C70.034424,21.999758 70.093231,21.949490 70.082001,21.745205 
	C70.070763,21.540922 70.088951,21.132141 70.088951,21.132141 
	C83.248688,21.168036 96.408424,21.203930 109.394646,21.625641 
	C108.140923,22.074375 107.060715,22.137293 105.543350,22.134754 
	C102.377991,22.713644 99.649796,23.357986 96.583633,24.046692 
	C95.565338,24.077114 94.885017,24.063177 94.190094,23.634895 
	C92.115700,22.852798 90.055901,22.485048 87.996101,22.117296 
z"/>
<path fill="#5E3D21" opacity="1.000000" stroke="none" 
	d="
M51.638695,22.095060 
	C51.993870,22.793909 51.980648,23.497139 51.766289,24.797642 
	C50.699158,25.946514 49.833168,26.498117 48.810188,27.211033 
	C48.440575,27.584457 48.222595,27.790920 47.732727,27.971111 
	C47.289612,28.884182 47.113029,29.817877 46.659370,31.085529 
	C45.273342,31.521629 44.164379,31.623774 43.041809,31.316750 
	C43.015453,30.088463 43.002716,29.269344 42.989975,28.450224 
	C43.941689,23.975456 47.840412,23.343090 51.638695,22.095060 
z"/>
<path fill="#886540" opacity="1.000000" stroke="none" 
	d="
M133.038208,29.570448 
	C132.663605,32.085655 132.293549,34.187901 131.458069,36.678452 
	C130.235580,37.050980 129.478516,37.035191 128.553802,37.021851 
	C128.386169,37.024300 128.054886,36.967777 128.040039,36.715759 
	C128.007660,36.296349 127.990105,36.128960 128.012833,35.760712 
	C128.053101,35.559853 128.129944,35.157410 128.345428,34.994713 
	C128.419998,33.833538 128.279083,32.835060 128.152100,31.676954 
	C128.166031,31.517326 128.175537,31.196999 128.414673,30.981064 
	C128.463989,29.157286 128.274200,27.549440 128.073120,25.934521 
	C128.061844,25.927444 128.075134,25.940447 128.075134,25.940445 
	C129.505096,25.599947 130.935043,25.259449 132.691116,24.974045 
	C133.025742,26.405252 133.034241,27.781366 133.038208,29.570448 
z"/>
<path fill="#72431B" opacity="1.000000" stroke="none" 
	d="
M105.980507,22.200211 
	C107.060715,22.137293 108.140923,22.074375 109.626945,21.993855 
	C110.470039,21.990355 110.907326,22.004456 111.744827,22.383209 
	C113.080383,23.463882 114.015717,24.179903 114.951050,24.895920 
	C114.960663,25.072468 114.970268,25.249016 114.712112,25.762573 
	C114.253960,26.135586 114.063560,26.171591 113.580048,26.153214 
	C112.890327,26.111555 112.493736,26.124281 111.803848,26.121391 
	C111.316444,26.131428 111.122322,26.157085 110.474991,26.157059 
	C104.342163,26.250290 98.662544,26.369207 92.982918,26.488123 
	C92.966125,26.190212 92.963837,25.892191 93.439659,25.308537 
	C98.206894,24.982807 102.510521,24.942600 107.079346,24.880753 
	C107.747459,24.489532 108.150368,24.119953 108.553268,23.750372 
	C107.685677,23.460602 106.818092,23.170834 105.957756,22.710842 
	C105.965012,22.540617 105.980507,22.200211 105.980507,22.200211 
z"/>
<path fill="#82572F" opacity="1.000000" stroke="none" 
	d="
M71.001671,22.903009 
	C72.273201,22.988497 73.544731,23.073984 74.816261,23.159472 
	C74.816673,23.534761 74.817093,23.910049 74.817505,24.285339 
	C69.193115,24.285339 63.568722,24.285339 57.890293,23.914211 
	C61.233322,23.129808 64.630386,22.716534 68.027458,22.303259 
	C68.201134,22.263298 68.374817,22.223335 69.065964,22.106888 
	C69.753365,22.003431 69.923302,21.976460 70.093231,21.949490 
	C70.093231,21.949490 70.034424,21.999758 70.162628,22.148119 
	C70.495018,22.537056 70.731964,22.739231 71.001671,22.903009 
z"/>
<path fill="#402A19" opacity="1.000000" stroke="none" 
	d="
M47.282234,91.905418 
	C46.491386,88.294823 44.754101,84.361252 50.769722,82.933739 
	C52.649021,86.578094 50.526558,89.131470 48.109318,91.896637 
	C47.880810,92.123077 47.476299,91.992188 47.282234,91.905418 
z"/>
<path fill="#8E6842" opacity="1.000000" stroke="none" 
	d="
M42.789726,28.747559 
	C43.002716,29.269344 43.015453,30.088463 42.950661,31.603878 
	C42.653152,32.854225 42.433186,33.408279 41.865616,34.013767 
	C39.848637,34.724854 38.179256,35.384506 36.509880,36.044159 
	C36.509880,36.044159 36.249477,35.979237 36.115509,35.985573 
	C38.184185,33.676235 40.386829,31.360563 42.789726,28.747559 
z"/>
<path fill="#653D18" opacity="1.000000" stroke="none" 
	d="
M67.569061,22.215382 
	C64.630386,22.716534 61.233322,23.129808 57.520256,23.753540 
	C56.572781,23.510748 55.941303,23.057499 55.152863,22.354675 
	C59.034161,22.112568 63.072414,22.120037 67.569061,22.215382 
z"/>
<path fill="#82572F" opacity="1.000000" stroke="none" 
	d="
M114.951096,24.567917 
	C114.015717,24.179903 113.080383,23.463882 112.068451,22.437174 
	C112.804619,22.082802 113.617393,22.039120 114.675117,22.129110 
	C114.930428,22.921825 114.940788,23.580870 114.951096,24.567917 
z"/>
<path fill="#362212" opacity="1.000000" stroke="none" 
	d="
M42.290573,84.375526 
	C42.408871,84.629723 42.472767,85.199440 42.382133,85.869797 
	C42.230457,85.543976 42.233315,85.117508 42.290573,84.375526 
z"/>
<path fill="#362212" opacity="1.000000" stroke="none" 
	d="
M38.241867,81.170349 
	C38.528122,81.192780 39.015980,81.395332 39.733780,81.724518 
	C39.456970,81.684265 38.950222,81.517365 38.241867,81.170349 
z"/>
<path fill="#1D1108" opacity="1.000000" stroke="none" 
	d="
M54.238457,92.922310 
	C54.219776,92.764755 54.486343,92.711067 54.902634,92.826057 
	C54.855484,92.890976 54.679264,92.901459 54.238457,92.922310 
z"/>
<path fill="#653D18" opacity="1.000000" stroke="none" 
	d="
M70.082001,21.745205 
	C69.923302,21.976460 69.753365,22.003431 69.325699,22.043583 
	C69.245903,21.783888 69.423843,21.511017 69.845367,21.185143 
	C70.088951,21.132141 70.070763,21.540922 70.082001,21.745205 
z"/>
<path fill="#362212" opacity="1.000000" stroke="none" 
	d="
M42.910217,88.209679 
	C43.014030,88.197838 43.292007,88.365524 43.760517,88.681389 
	C43.638321,88.732307 43.349430,88.585526 42.910217,88.209679 
z"/>
<path fill="#402A19" opacity="1.000000" stroke="none" 
	d="
M107.038910,89.938644 
	C107.033264,90.279732 107.027626,90.620819 107.083649,91.130020 
	C100.138412,91.620613 93.133751,92.067787 86.123314,92.194511 
	C83.825584,92.236038 81.512833,91.445534 79.471870,90.667603 
	C81.398605,90.303307 83.066742,90.402412 84.721077,90.292992 
	C90.101830,89.937111 95.477554,89.504967 101.195480,88.970695 
	C103.370140,89.205688 105.204521,89.572174 107.038910,89.938644 
z"/>
<path fill="#896F55" opacity="1.000000" stroke="none" 
	d="
M100.855209,89.102173 
	C95.477554,89.504967 90.101830,89.937111 84.721077,90.292992 
	C83.066742,90.402412 81.398605,90.303307 79.322922,90.364532 
	C77.259773,90.387489 75.610497,90.345596 73.163628,90.279617 
	C71.859306,90.322418 71.352577,90.389320 70.845848,90.456223 
	C69.180649,90.397392 67.515450,90.338554 65.417725,89.818741 
	C64.965630,89.041161 64.946053,88.724556 65.376923,88.439346 
	C75.512337,88.422791 85.197311,88.374855 95.289093,88.477631 
	C97.415672,88.786285 99.135437,88.944229 100.855209,89.102173 
z"/>
<path fill="#5D442D" opacity="1.000000" stroke="none" 
	d="
M64.926483,88.407959 
	C64.946053,88.724556 64.965630,89.041161 65.000824,89.833435 
	C64.449219,90.618095 63.881989,90.927078 63.053596,91.251625 
	C60.572411,91.090614 58.352394,90.914047 55.666382,90.450439 
	C55.115582,89.771591 55.030777,89.379784 54.945972,88.987976 
	C57.727413,88.635933 60.508854,88.283890 63.876125,87.963264 
	C64.662910,88.080589 64.817757,88.218346 64.926483,88.407959 
z"/>
<path fill="#402A19" opacity="1.000000" stroke="none" 
	d="
M70.909569,90.674377 
	C71.352577,90.389320 71.859306,90.322418 72.748810,90.297501 
	C72.412155,90.523827 71.692719,90.708176 70.909569,90.674377 
z"/>
<path fill="#AF906A" opacity="1.000000" stroke="none" 
	d="
M54.028141,80.795135 
	C52.395897,79.145279 50.763653,77.495415 49.138744,75.377052 
	C50.431381,75.604813 51.716682,76.301086 53.015686,77.021454 
	C53.029385,77.045563 52.997223,77.002083 52.995956,76.572067 
	C53.003139,74.421356 53.011593,72.700661 53.269203,70.942062 
	C57.305386,71.571327 59.422092,69.984138 60.149418,65.997444 
	C61.230320,64.892532 62.057343,63.969296 62.978378,63.357468 
	C64.066597,64.286285 65.060806,64.903694 66.103714,65.876389 
	C70.759171,69.850090 75.365921,73.468491 79.979218,77.399498 
	C80.006210,78.128281 80.026665,78.544472 79.758728,79.136261 
	C77.076614,79.828522 74.612717,80.976280 72.304993,80.719658 
	C68.472427,80.293472 64.740189,78.965088 60.610722,78.096695 
	C58.179886,79.049507 56.104015,79.922325 54.028141,80.795135 
z"/>
<path fill="#A0805B" opacity="1.000000" stroke="none" 
	d="
M60.965687,78.016708 
	C64.740189,78.965088 68.472427,80.293472 72.304993,80.719658 
	C74.612717,80.976280 77.076614,79.828522 80.181267,79.154358 
	C83.976921,80.009102 87.061638,81.021362 89.963013,82.279358 
	C88.536652,82.630562 87.293640,82.736023 86.004959,82.628693 
	C85.298042,82.315392 84.636803,82.214882 83.646927,82.016693 
	C80.468140,80.084236 79.341385,82.414978 77.564056,84.083542 
	C76.102776,84.076660 75.039429,84.121353 73.976082,84.166039 
	C71.568413,84.128876 69.160744,84.091705 66.188858,83.744186 
	C64.120834,83.027313 62.617031,82.620796 61.094482,81.915817 
	C61.060616,81.418541 61.045494,81.219734 61.022118,80.645187 
	C60.997807,79.518532 60.981747,78.767616 60.965687,78.016708 
z"/>
<path fill="#3F200E" opacity="1.000000" stroke="none" 
	d="
M24.549719,62.987083 
	C24.549719,62.987083 24.266735,63.018787 24.136993,62.663071 
	C22.938482,60.610332 21.869711,58.913319 21.074257,56.994034 
	C22.233784,56.500656 23.119995,56.229542 24.055305,56.301949 
	C27.651514,59.480118 31.198622,62.314762 34.936310,65.427841 
	C37.358952,67.183006 39.591011,68.659729 41.896355,70.438240 
	C42.660244,71.443253 43.350853,72.146484 44.041458,72.849709 
	C43.264286,73.858063 42.487118,74.866425 41.197819,75.920105 
	C40.104992,75.627838 39.524292,75.290260 38.943592,74.952682 
	C38.943592,74.952682 38.997337,74.995216 38.965492,74.673065 
	C34.139004,70.562965 29.344360,66.775024 24.549719,62.987083 
z"/>
<path fill="#A2815A" opacity="1.000000" stroke="none" 
	d="
M44.341530,73.012604 
	C43.350853,72.146484 42.660244,71.443253 42.133850,70.223129 
	C43.207195,68.808395 44.116325,67.910553 45.407532,67.010887 
	C46.809982,67.018143 47.830357,67.027222 49.193443,67.047104 
	C49.764683,67.052109 49.993198,67.046310 50.423943,67.022491 
	C50.626171,67.004486 51.029408,66.956749 51.018478,66.971390 
	C51.007549,66.986038 50.979443,66.962677 51.053894,67.281929 
	C51.758911,68.727440 52.389477,69.853706 53.020042,70.979965 
	C53.011593,72.700661 53.003139,74.421356 52.997345,76.571030 
	C53.000000,77.000000 53.001984,76.997353 53.001984,76.997353 
	C51.716682,76.301086 50.431381,75.604813 48.974289,75.090065 
	C47.415535,74.572891 46.028572,73.874191 44.341530,73.012604 
z"/>
<path fill="#240D02" opacity="1.000000" stroke="none" 
	d="
M65.376923,88.439346 
	C64.817757,88.218346 64.662910,88.080589 64.322174,87.924042 
	C66.213745,87.553230 68.245094,87.253059 71.113083,86.953758 
	C74.268578,86.945183 76.587433,86.935745 79.337715,86.938034 
	C82.173119,86.652336 84.577087,86.354912 87.422607,86.084335 
	C90.215324,86.204597 92.566483,86.298012 94.910919,86.633560 
	C94.896889,87.359428 94.889587,87.843178 94.882294,88.326920 
	C85.197311,88.374855 75.512337,88.422791 65.376923,88.439346 
z"/>
<path fill="#816244" opacity="1.000000" stroke="none" 
	d="
M24.648041,63.337067 
	C29.344360,66.775024 34.139004,70.562965 38.989403,74.697609 
	C38.868664,75.030479 38.692173,75.016640 38.252754,75.039948 
	C33.575344,71.280403 29.160852,67.483727 24.648041,63.337067 
z"/>
<path fill="#402711" opacity="1.000000" stroke="none" 
	d="
M61.113224,82.214287 
	C62.617031,82.620796 64.120834,83.027313 65.811523,83.718666 
	C62.821838,83.916855 59.645267,83.830215 56.471802,83.375031 
	C56.641457,82.950020 56.807999,82.893562 57.339912,82.904221 
	C58.841263,82.718987 59.977245,82.466637 61.113224,82.214287 
z"/>
<path fill="#B79F80" opacity="1.000000" stroke="none" 
	d="
M56.974541,82.837105 
	C56.807999,82.893562 56.641457,82.950020 56.231392,83.107941 
	C55.526241,82.510864 55.064606,81.812317 54.315556,80.954453 
	C56.104015,79.922325 58.179886,79.049507 60.610722,78.096695 
	C60.981747,78.767616 60.997807,79.518532 60.681335,80.666504 
	C59.224052,81.654747 58.099297,82.245926 56.974541,82.837105 
z"/>
<path fill="#402711" opacity="1.000000" stroke="none" 
	d="
M78.906281,86.926300 
	C76.587433,86.935745 74.268578,86.945183 71.520340,86.940674 
	C71.954399,86.172363 72.817856,85.417999 73.828697,84.414841 
	C75.039429,84.121353 76.102776,84.076660 77.596878,84.266304 
	C78.027626,84.500633 78.078590,84.868500 78.069473,85.060669 
	C78.342331,85.810654 78.624306,86.368477 78.906281,86.926300 
z"/>
<path fill="#816244" opacity="1.000000" stroke="none" 
	d="
M39.076817,75.153870 
	C39.524292,75.290260 40.104992,75.627838 40.868385,76.129547 
	C40.437397,75.980804 39.823719,75.667931 39.076817,75.153870 
z"/>
<path fill="#402A19" opacity="1.000000" stroke="none" 
	d="
M54.696705,89.034988 
	C55.030777,89.379784 55.115582,89.771591 55.272484,90.452583 
	C54.682159,90.553429 54.019730,90.365089 53.357300,90.176758 
	C53.720680,89.811836 54.084061,89.446915 54.696705,89.034988 
z"/>
<path fill="#361C0B" opacity="1.000000" stroke="none" 
	d="
M95.289093,88.477631 
	C94.889587,87.843178 94.896889,87.359428 95.280579,86.570358 
	C97.128914,85.659889 98.600861,85.054756 100.453979,84.416405 
	C102.885246,84.518250 104.935333,84.653313 107.317535,84.838898 
	C108.448868,84.544243 109.248085,84.199074 110.416336,84.057556 
	C121.262527,86.864120 122.810379,85.836731 123.398239,75.884636 
	C123.417854,75.552574 123.403824,75.218536 123.538567,74.686905 
	C123.628761,73.724541 123.585869,72.960678 123.480637,71.754654 
	C123.244308,69.537827 123.070328,67.763153 123.003014,65.673920 
	C123.017845,63.577991 122.926018,61.796635 122.921616,59.681190 
	C122.948570,58.894226 122.888084,58.441349 122.910629,57.615448 
	C122.936943,56.487469 122.880226,55.732506 122.932587,54.556973 
	C122.962540,52.410824 122.883415,50.685249 122.934288,48.648987 
	C123.005081,47.901215 122.945877,47.464138 122.992119,46.612175 
	C123.015564,44.789589 122.933571,43.381878 122.956619,41.532623 
	C123.217041,38.069756 123.372406,35.048431 123.742294,32.254517 
	C124.449593,33.379616 124.942375,34.277306 125.412224,35.454529 
	C125.430191,36.106754 125.471085,36.479454 125.452194,37.318756 
	C125.710876,41.886711 126.029335,45.988060 126.315071,50.428017 
	C126.249420,51.448071 126.216492,52.129509 126.149307,53.205616 
	C126.135849,54.127766 126.156654,54.655251 126.183701,55.562374 
	C126.284988,57.187252 126.380028,58.432491 126.351166,60.105637 
	C125.993858,65.485970 125.760445,70.438393 125.511345,75.827965 
	C125.411415,80.138580 125.327179,84.012062 125.242943,87.885544 
	C121.727974,88.133072 118.205811,88.307663 114.700577,88.653770 
	C112.362282,88.884659 110.048119,89.359863 107.381027,89.832191 
	C105.204521,89.572174 103.370140,89.205688 101.195480,88.970688 
	C99.135437,88.944229 97.415672,88.786285 95.289093,88.477631 
z"/>
<path fill="#AB855D" opacity="1.000000" stroke="none" 
	d="
M131.306000,66.993698 
	C131.499847,68.066551 131.693695,69.139412 131.952881,70.618744 
	C131.873917,76.174454 131.818604,81.328232 131.555771,86.471413 
	C131.362320,90.256348 129.649399,91.241631 126.753265,88.313705 
	C127.535019,83.537399 128.061386,79.199570 128.630676,74.428970 
	C128.778793,71.665565 128.883987,69.334946 129.278809,67.003960 
	C130.147614,67.000290 130.726807,66.996994 131.306000,66.993698 
z"/>
<path fill="#704927" opacity="1.000000" stroke="none" 
	d="
M128.587753,74.861740 
	C128.061386,79.199570 127.535019,83.537399 126.654449,87.967674 
	C126.123108,88.034157 125.945984,88.008179 125.505905,87.933868 
	C125.327179,84.012062 125.411415,80.138580 125.802742,75.744141 
	C126.935806,75.102699 127.761780,74.982224 128.587753,74.861740 
z"/>
<path fill="#4B2A15" opacity="1.000000" stroke="none" 
	d="
M53.926735,27.953957 
	C54.556828,27.972515 55.186920,27.991074 56.261383,28.302065 
	C56.736935,29.016977 56.768112,29.439457 56.525749,29.972420 
	C55.424904,30.929213 54.597607,31.775522 53.470238,32.782074 
	C50.956551,36.078831 45.798923,36.838028 45.668251,41.978569 
	C44.845840,42.629223 44.304977,43.185192 43.404800,43.707535 
	C41.340157,44.709820 39.634827,45.745724 37.560917,46.812580 
	C35.540867,48.006470 33.967823,49.308510 32.217175,50.295547 
	C30.231770,51.414944 28.087313,52.252235 26.159943,52.906281 
	C27.199648,51.061592 28.091415,49.522800 28.926445,47.880981 
	C28.869709,47.777962 28.870804,47.542740 29.214838,47.675301 
	C32.380489,45.514130 35.202106,43.220398 38.331566,40.947315 
	C39.115303,40.659885 39.591198,40.351814 40.040485,40.029377 
	C40.013874,40.015011 40.012852,40.075485 40.301247,40.036842 
	C40.752956,39.674938 40.916271,39.351673 41.048302,39.024277 
	C41.017017,39.020145 41.027115,39.082447 41.331711,39.070526 
	C41.786503,38.721581 41.936703,38.384560 42.056965,38.036636 
	C42.027027,38.025734 42.022041,38.089264 42.370388,38.163525 
	C43.303867,37.842274 43.889000,37.446762 44.619087,37.009674 
	C44.950191,36.864372 45.072437,36.710030 45.428585,36.300266 
	C47.740322,33.366116 53.042957,33.322956 52.130714,28.246273 
	C52.105686,28.268562 52.159077,28.305363 52.466125,28.359304 
	C53.157692,28.260149 53.542213,28.107052 53.926735,27.953957 
z"/>
<path fill="#C59665" opacity="1.000000" stroke="none" 
	d="
M92.516289,26.538790 
	C98.662544,26.369207 104.342163,26.250290 110.245659,26.445446 
	C108.754379,27.175785 107.049362,27.895195 105.322220,27.952963 
	C99.535995,28.146490 93.741859,28.103697 87.488312,28.118519 
	C81.388206,28.084585 75.750526,28.083515 69.684334,28.066219 
	C66.838493,27.701122 64.421181,27.352253 62.003860,27.003384 
	C72.019127,26.865408 82.034393,26.727432 92.516289,26.538790 
z"/>
<path fill="#BD915C" opacity="1.000000" stroke="none" 
	d="
M61.588402,26.946838 
	C64.421181,27.352253 66.838493,27.701122 69.674393,28.331604 
	C70.090126,28.968710 70.087288,29.324200 69.677002,29.795437 
	C65.112801,29.894768 60.956047,29.878353 56.799294,29.861938 
	C56.768112,29.439457 56.736935,29.016977 56.575775,28.303753 
	C58.021507,27.638769 59.597225,27.264532 61.588402,26.946838 
z"/>
<path fill="#C99872" opacity="1.000000" stroke="none" 
	d="
M106.814140,24.902393 
	C102.510521,24.942600 98.206894,24.982807 93.442307,25.084976 
	C88.467415,25.146936 83.953499,25.146936 79.439583,25.146936 
	C79.439926,24.677511 79.440269,24.208086 79.440613,23.738661 
	C82.002632,23.738661 84.564659,23.738661 87.995300,23.721359 
	C90.644173,23.819117 92.424431,23.934177 94.204689,24.049240 
	C94.885017,24.063177 95.565338,24.077114 97.036057,23.985275 
	C100.519432,23.810001 103.212402,23.740509 106.101303,23.845388 
	C106.469528,24.313971 106.641838,24.608183 106.814140,24.902393 
z"/>
<path fill="#653D18" opacity="1.000000" stroke="none" 
	d="
M94.190094,23.634895 
	C92.424431,23.934177 90.644173,23.819117 88.426727,23.638039 
	C87.989998,23.248745 87.991402,22.925472 87.994926,22.359751 
	C90.055901,22.485048 92.115700,22.852798 94.190094,23.634895 
z"/>
<path fill="#9B6F43" opacity="1.000000" stroke="none" 
	d="
M53.926926,27.615982 
	C53.542213,28.107052 53.157692,28.260149 52.203327,28.127968 
	C50.744713,27.578369 49.855946,27.314045 48.967175,27.049721 
	C49.833168,26.498117 50.699158,25.946514 51.761940,25.149303 
	C52.614857,25.695133 53.270985,26.486572 53.926926,27.615982 
z"/>
<path fill="#653D18" opacity="1.000000" stroke="none" 
	d="
M71.002258,22.713253 
	C70.731964,22.739231 70.495018,22.537056 70.137497,22.118710 
	C70.155640,21.967373 70.327133,21.993807 70.751465,22.082115 
	C71.004311,22.143986 71.002853,22.523499 71.002258,22.713253 
z"/>
<path fill="#B38A5C" opacity="1.000000" stroke="none" 
	d="
M20.800938,57.216301 
	C21.869711,58.913319 22.938482,60.610332 23.995087,62.651527 
	C22.601917,62.211735 21.220917,61.427765 19.321720,60.258675 
	C17.456207,58.971001 16.108889,58.068455 14.761568,57.165909 
	C15.957760,55.530815 17.153950,53.895721 18.726093,52.592415 
	C19.155855,53.241962 19.209665,53.559731 19.184677,54.164062 
	C19.670900,55.372513 20.235918,56.294407 20.800938,57.216301 
z"/>
<path fill="#362212" opacity="1.000000" stroke="none" 
	d="
M14.549930,57.313026 
	C16.108889,58.068455 17.456207,58.971001 19.017529,60.080570 
	C16.371140,62.587608 15.135976,60.672146 13.990671,58.019485 
	C14.049135,57.645870 14.193712,57.553005 14.549930,57.313026 
z"/>
<path fill="#9D7241" opacity="1.000000" stroke="none" 
	d="
M45.130779,36.505074 
	C45.072437,36.710030 44.950191,36.864372 44.293591,37.099991 
	C43.222775,37.517673 42.622410,37.803471 42.022041,38.089264 
	C42.022041,38.089264 42.027027,38.025734 41.854507,38.181190 
	C41.429119,38.554890 41.210827,38.803490 41.027115,39.082447 
	C41.027115,39.082447 41.017017,39.020145 40.846615,39.173332 
	C40.455090,39.576172 40.233971,39.825829 40.012852,40.075485 
	C40.012852,40.075485 40.013874,40.015011 39.766991,40.093571 
	C39.021309,40.423645 38.522518,40.675156 38.023724,40.926670 
	C35.202106,43.220398 32.380489,45.514130 29.385651,47.408195 
	C30.475641,45.025364 31.738857,43.042206 33.002071,41.059044 
	C34.046928,39.581802 35.091785,38.104561 36.323257,36.335739 
	C38.179256,35.384506 39.848637,34.724854 42.161655,34.146423 
	C43.580460,34.986790 44.355618,35.745930 45.130779,36.505074 
z"/>
<path fill="#CEA772" opacity="1.000000" stroke="none" 
	d="
M32.660233,41.117989 
	C31.738857,43.042206 30.475641,45.025364 29.041615,47.275635 
	C28.870804,47.542740 28.869709,47.777962 28.576950,47.890739 
	C25.277287,49.961510 22.270380,51.919506 19.263474,53.877502 
	C19.209665,53.559731 19.155855,53.241962 19.037663,52.445091 
	C23.421650,48.369633 27.870024,44.773281 32.660233,41.117989 
z"/>
<path fill="#B18251" opacity="1.000000" stroke="none" 
	d="
M87.950752,28.151384 
	C93.741859,28.103697 99.535995,28.146490 105.322220,27.952963 
	C107.049362,27.895195 108.754379,27.175785 110.698868,26.471130 
	C111.122322,26.157085 111.316444,26.131428 111.972214,26.210211 
	C112.913635,26.278965 113.393402,26.243280 113.873169,26.207598 
	C114.063560,26.171591 114.253960,26.135586 114.726006,26.027422 
	C116.767860,26.590361 118.528053,27.225460 120.690071,28.107040 
	C121.091888,28.353518 121.030487,28.723730 120.797791,28.993626 
	C117.358574,29.927732 114.152054,30.591944 110.509674,31.206615 
	C102.709183,30.640932 95.344543,30.124790 87.972214,29.365265 
	C87.963684,28.798332 87.959091,28.474831 87.950752,28.151384 
z"/>
<path fill="#603C1F" opacity="1.000000" stroke="none" 
	d="
M121.030487,28.723732 
	C121.030487,28.723730 121.091888,28.353518 121.050751,28.170467 
	C121.811531,23.331165 124.725922,24.958241 127.732803,25.891298 
	C128.075134,25.940447 128.061844,25.927444 128.064331,26.371111 
	C128.103058,28.275518 128.139297,29.736258 128.175537,31.196999 
	C128.175537,31.196999 128.166031,31.517326 128.126801,32.092621 
	C128.101700,33.497746 128.115814,34.327576 128.129944,35.157410 
	C128.129944,35.157410 128.053101,35.559853 127.759781,35.668640 
	C126.789368,35.576618 126.112259,35.375809 125.435158,35.174995 
	C124.942375,34.277306 124.449593,33.379616 123.602783,31.888750 
	C122.509323,30.438293 121.769905,29.581013 121.030487,28.723732 
z"/>
<path fill="#B38B5E" opacity="1.000000" stroke="none" 
	d="
M131.437408,66.541412 
	C130.726807,66.996994 130.147614,67.000290 129.176407,66.581253 
	C128.667007,64.163818 128.549606,62.168736 128.620071,59.763088 
	C128.809677,57.874092 128.811417,56.395660 128.786743,54.615585 
	C128.636627,53.929661 128.512939,53.545368 128.481140,52.923645 
	C128.569153,52.184441 128.565308,51.682674 128.657059,50.846153 
	C128.740738,50.048622 128.728821,49.585854 128.778046,48.855473 
	C128.789154,48.043514 128.739120,47.499165 128.749207,46.507683 
	C128.780029,43.046837 128.750732,40.033119 128.721451,37.019405 
	C129.478516,37.035191 130.235580,37.050980 131.370575,37.092972 
	C131.688614,46.775822 131.628708,56.432472 131.437408,66.541412 
z"/>
<path fill="#653D18" opacity="1.000000" stroke="none" 
	d="
M105.905380,23.671017 
	C103.212402,23.740509 100.519432,23.810001 97.374023,23.940914 
	C99.649796,23.357986 102.377991,22.713644 105.543350,22.134754 
	C105.980507,22.200211 105.965012,22.540617 105.935432,22.908138 
	C105.905853,23.275658 105.905380,23.671017 105.905380,23.671017 
z"/>
<path fill="#AF8457" opacity="1.000000" stroke="none" 
	d="
M45.428585,36.300266 
	C44.355618,35.745930 43.580460,34.986790 42.509254,34.094990 
	C42.433186,33.408279 42.653152,32.854225 42.964272,32.013046 
	C44.164379,31.623774 45.273342,31.521629 46.716625,31.032528 
	C47.188000,30.536638 47.315826,30.418030 47.745785,30.420921 
	C49.423344,29.776058 50.789539,29.000021 52.155739,28.223984 
	C53.042957,33.322956 47.740322,33.366116 45.428585,36.300266 
z"/>
<path fill="#6A3F1C" opacity="1.000000" stroke="none" 
	d="
M52.130714,28.246273 
	C50.789539,29.000021 49.423344,29.776058 47.899158,30.050680 
	C47.827202,29.030087 47.913231,28.510910 47.999264,27.991732 
	C48.222595,27.790920 48.440575,27.584457 48.810188,27.211033 
	C49.855946,27.314045 50.744713,27.578369 51.896278,28.074028 
	C52.159077,28.305363 52.105686,28.268562 52.130714,28.246273 
z"/>
<path fill="#9F7B56" opacity="1.000000" stroke="none" 
	d="
M47.732727,27.971111 
	C47.913231,28.510910 47.827202,29.030087 47.587799,29.919506 
	C47.315826,30.418030 47.188000,30.536638 46.993698,30.698570 
	C47.113029,29.817877 47.289612,28.884182 47.732727,27.971111 
z"/>
<path fill="#603C1F" opacity="1.000000" stroke="none" 
	d="
M128.716919,49.123081 
	C128.728821,49.585854 128.740738,50.048622 128.375336,50.707111 
	C127.447945,50.631687 126.897873,50.360546 126.347794,50.089409 
	C126.029335,45.988060 125.710876,41.886711 125.764297,37.334396 
	C126.775742,36.911541 127.415314,36.939659 128.054886,36.967777 
	C128.054886,36.967777 128.386169,37.024300 128.553802,37.021851 
	C128.750732,40.033119 128.780029,43.046837 128.579010,46.650269 
	C128.471466,47.867683 128.594193,48.495380 128.716919,49.123081 
z"/>
<path fill="#704927" opacity="1.000000" stroke="none" 
	d="
M128.414673,30.981064 
	C128.139297,29.736258 128.103058,28.275518 128.075607,26.378185 
	C128.274200,27.549440 128.463989,29.157286 128.414673,30.981064 
z"/>
<path fill="#704927" opacity="1.000000" stroke="none" 
	d="
M128.345428,34.994713 
	C128.115814,34.327576 128.101700,33.497746 128.112885,32.252247 
	C128.279083,32.835060 128.419998,33.833538 128.345428,34.994713 
z"/>
<path fill="#704927" opacity="1.000000" stroke="none" 
	d="
M128.040039,36.715759 
	C127.415314,36.939659 126.775742,36.911541 125.824074,36.867786 
	C125.471085,36.479454 125.430191,36.106754 125.412224,35.454529 
	C126.112259,35.375809 126.789368,35.576618 127.719513,35.869499 
	C127.990105,36.128960 128.007660,36.296349 128.040039,36.715759 
z"/>
<path fill="#82572F" opacity="1.000000" stroke="none" 
	d="
M106.101303,23.845388 
	C105.905380,23.671017 105.905853,23.275658 105.928177,23.078362 
	C106.818092,23.170834 107.685677,23.460602 108.553268,23.750372 
	C108.150368,24.119953 107.747459,24.489532 107.079346,24.880753 
	C106.641838,24.608183 106.469528,24.313971 106.101303,23.845388 
z"/>
<path fill="#C59665" opacity="1.000000" stroke="none" 
	d="
M113.580048,26.153214 
	C113.393402,26.243280 112.913635,26.278965 112.265503,26.225830 
	C112.493736,26.124281 112.890327,26.111555 113.580048,26.153214 
z"/>
<path fill="#241106" opacity="1.000000" stroke="none" 
	d="
M66.055008,65.521103 
	C65.060806,64.903694 64.066597,64.286285 63.078995,63.119965 
	C63.338120,62.350349 63.590649,62.129646 64.231430,61.930382 
	C66.355392,62.303791 68.091103,62.655758 70.145218,63.185539 
	C71.411514,63.592556 72.359398,63.821762 73.382782,64.078064 
	C73.458275,64.105164 73.618530,64.112389 73.826599,64.397446 
	C75.987518,65.814331 77.940369,66.946152 79.911583,68.087860 
	C79.929947,68.097740 79.951759,68.062180 80.183929,68.280838 
	C81.955475,69.623741 83.494858,70.747993 85.349518,72.027390 
	C86.851822,73.226189 88.038841,74.269844 88.963516,75.547226 
	C87.142662,75.496994 85.584160,75.213020 83.845932,74.645325 
	C77.795807,71.414772 71.925407,68.467941 66.055008,65.521103 
z"/>
<path fill="#725536" opacity="1.000000" stroke="none" 
	d="
M66.103714,65.876389 
	C71.925407,68.467941 77.795807,71.414772 83.588455,74.851746 
	C82.331352,75.923546 81.152016,76.505226 79.972672,77.086899 
	C75.365921,73.468491 70.759171,69.850090 66.103714,65.876389 
z"/>
<path fill="#997950" opacity="1.000000" stroke="none" 
	d="
M63.843174,61.908939 
	C63.590649,62.129646 63.338120,62.350349 62.984982,62.808556 
	C62.057343,63.969296 61.230320,64.892532 59.735058,65.957260 
	C56.371029,66.386726 53.675236,66.674706 50.979443,66.962677 
	C50.979443,66.962677 51.007549,66.986038 51.085598,66.646439 
	C51.442150,65.234047 51.720650,64.161263 52.287788,62.933029 
	C54.018898,61.882259 55.461372,60.986931 57.103603,60.039135 
	C58.238575,59.950729 59.173794,59.914791 60.476173,59.909794 
	C61.580013,59.975441 62.316689,60.010143 63.118904,60.293148 
	C63.404018,60.997276 63.623596,61.453110 63.843174,61.908939 
z"/>
<path fill="#90724C" opacity="1.000000" stroke="none" 
	d="
M79.979218,77.399498 
	C81.152016,76.505226 82.331352,75.923546 83.768173,75.135460 
	C85.584160,75.213020 87.142662,75.496994 89.222977,75.713257 
	C90.527740,75.848022 91.310699,76.050499 92.054672,76.579453 
	C91.968987,78.649055 91.922264,80.392174 91.587082,82.121552 
	C90.914536,82.083069 90.530449,82.058342 90.146355,82.033615 
	C87.061638,81.021362 83.976921,80.009102 80.469666,78.978752 
	C80.026665,78.544472 80.006210,78.128281 79.979218,77.399498 
z"/>
<path fill="#C09F76" opacity="1.000000" stroke="none" 
	d="
M51.053894,67.281937 
	C53.675236,66.674706 56.371029,66.386726 59.481178,66.138939 
	C59.422092,69.984138 57.305386,71.571327 53.269203,70.942062 
	C52.389477,69.853706 51.758911,68.727440 51.053894,67.281937 
z"/>
<path fill="#A2815A" opacity="1.000000" stroke="none" 
	d="
M52.998611,77.001038 
	C52.997223,77.002083 53.029385,77.045563 53.015686,77.021454 
	C53.001984,76.997353 53.000000,77.000000 52.998611,77.001038 
z"/>
<path fill="#5A4024" opacity="1.000000" stroke="none" 
	d="
M89.963013,82.279358 
	C90.530449,82.058342 90.914536,82.083069 91.706497,82.449646 
	C94.767174,83.344208 97.419991,83.896919 100.072807,84.449623 
	C98.600861,85.054756 97.128914,85.659889 95.287308,86.328232 
	C92.566483,86.298012 90.215324,86.204597 87.089157,85.864853 
	C83.568970,85.368515 80.823784,85.118500 78.078590,84.868500 
	C78.078590,84.868500 78.027626,84.500633 77.994812,84.317871 
	C79.341385,82.414978 80.468140,80.084236 83.847931,82.223801 
	C84.935249,82.632889 85.492935,82.737183 86.050629,82.841476 
	C87.293640,82.736023 88.536652,82.630562 89.963013,82.279358 
z"/>
<path fill="#AF906A" opacity="1.000000" stroke="none" 
	d="
M57.339912,82.904221 
	C58.099297,82.245926 59.224052,81.654747 60.689590,81.042244 
	C61.045494,81.219734 61.060616,81.418541 61.094482,81.915817 
	C59.977245,82.466637 58.841263,82.718987 57.339912,82.904221 
z"/>
<path fill="#90724C" opacity="1.000000" stroke="none" 
	d="
M86.004959,82.628693 
	C85.492935,82.737183 84.935249,82.632889 84.176559,82.321480 
	C84.636803,82.214882 85.298042,82.315392 86.004959,82.628693 
z"/>
<path fill="#BC9970" opacity="1.000000" stroke="none" 
	d="
M26.012005,53.212177 
	C28.087313,52.252235 30.231770,51.414944 32.217175,50.295547 
	C33.967823,49.308510 35.540867,48.006470 37.411682,47.111694 
	C37.073505,48.598240 36.515980,49.816620 35.777142,51.261139 
	C33.905178,54.282284 35.277206,55.504543 38.171196,56.328167 
	C39.278965,58.556591 40.160324,60.518360 40.857063,62.588020 
	C40.261871,62.806057 39.851303,62.916203 39.237133,62.807049 
	C38.041904,62.981594 37.050270,63.375439 35.845554,64.004684 
	C35.336891,64.543198 35.041313,64.846306 34.745735,65.149406 
	C31.198622,62.314762 27.651514,59.480118 24.301327,56.139614 
	C25.002834,54.826561 25.507420,54.019371 26.012005,53.212177 
z"/>
<path fill="#B08F69" opacity="1.000000" stroke="none" 
	d="
M39.440731,63.026344 
	C39.851303,62.916203 40.261871,62.806057 41.188824,62.431484 
	C43.459343,61.447109 45.213482,60.727161 47.034351,60.271858 
	C46.723789,61.689209 46.346497,62.841915 45.852211,63.952030 
	C45.485195,63.856701 45.242535,63.883755 45.004932,64.368240 
	C45.010235,65.501488 45.017845,66.257103 45.025459,67.012711 
	C44.116325,67.910553 43.207195,68.808395 42.060570,69.921341 
	C39.591011,68.659729 37.358952,67.183006 34.936314,65.427841 
	C35.041313,64.846306 35.336891,64.543198 36.187874,63.996407 
	C37.642429,63.510601 38.541580,63.268471 39.440731,63.026344 
M43.509930,65.521866 
	C43.509930,65.521866 43.500511,65.483772 43.509930,65.521866 
z"/>
<path fill="#6E441C" opacity="1.000000" stroke="none" 
	d="
M26.159943,52.906281 
	C25.507420,54.019371 25.002834,54.826561 24.252228,55.796089 
	C23.119995,56.229542 22.233784,56.500656 21.074257,56.994034 
	C20.235918,56.294407 19.670900,55.372513 19.184677,54.164062 
	C22.270380,51.919506 25.277287,49.961510 28.633686,47.993759 
	C28.091415,49.522800 27.199648,51.061592 26.159943,52.906281 
z"/>
<path fill="#AE885A" opacity="1.000000" stroke="none" 
	d="
M45.407536,67.010887 
	C45.017845,66.257103 45.010235,65.501488 45.245369,64.369858 
	C45.488113,63.993832 45.969200,63.994621 45.969200,63.994621 
	C46.346497,62.841915 46.723789,61.689209 47.068054,60.038578 
	C47.035030,59.540657 47.086403,59.072464 47.315563,59.053295 
	C47.544724,59.034126 48.003197,58.997631 48.314148,59.144363 
	C49.749783,60.556889 50.874466,61.822681 51.999149,63.088474 
	C51.720650,64.161263 51.442150,65.234047 51.096527,66.631790 
	C51.029408,66.956749 50.626171,67.004486 50.252205,66.971031 
	C49.535732,66.970482 49.193230,67.003387 48.850727,67.036293 
	C47.830357,67.027222 46.809982,67.018143 45.407536,67.010887 
z"/>
<path fill="#C09F76" opacity="1.000000" stroke="none" 
	d="
M49.193443,67.047104 
	C49.193230,67.003387 49.535732,66.970482 50.049976,66.989044 
	C49.993198,67.046310 49.764683,67.052109 49.193443,67.047104 
z"/>
<path fill="#361C0B" opacity="1.000000" stroke="none" 
	d="
M78.069473,85.060669 
	C80.823784,85.118500 83.568970,85.368515 86.647614,85.838013 
	C84.577087,86.354912 82.173119,86.652336 79.337715,86.938034 
	C78.624306,86.368477 78.342331,85.810654 78.069473,85.060669 
z"/>
<path fill="#ECC88F" opacity="1.000000" stroke="none" 
	d="
M120.797791,28.993626 
	C121.769905,29.581013 122.509323,30.438293 123.388260,31.661341 
	C123.372406,35.048431 123.217041,38.069756 122.631149,41.586731 
	C120.807877,42.728340 119.415123,43.374302 117.999954,43.716843 
	C117.584488,42.598652 117.191429,41.783886 116.798378,40.969120 
	C116.396477,41.144321 115.994576,41.319523 115.592667,41.494724 
	C116.057190,42.691261 116.521706,43.887794 116.652496,45.117420 
	C115.249069,45.452080 114.179359,45.753651 112.809151,46.026573 
	C112.308846,45.981274 112.109047,45.964619 111.798172,45.685181 
	C110.492355,45.266937 109.297615,45.111473 107.787804,44.956726 
	C107.055534,44.956558 106.638344,44.955673 105.940582,44.869072 
	C104.816498,45.193401 103.788902,45.418098 103.159210,46.043449 
	C98.948196,50.225430 96.811386,49.974091 93.654678,44.501244 
	C91.105461,40.454784 88.228439,40.111664 84.569321,43.058521 
	C81.151764,44.708832 78.091988,46.398960 74.778725,48.038712 
	C74.070312,48.168777 73.615395,48.349213 72.739029,48.522026 
	C70.218605,49.012993 68.119629,49.511581 65.758629,49.953712 
	C64.689644,50.638828 63.882675,51.380405 62.781662,52.358742 
	C61.572460,53.005550 60.657299,53.415600 59.817276,53.371731 
	C59.942280,52.615215 59.992138,52.312622 60.188541,51.734398 
	C61.270576,49.999390 62.275608,48.579308 63.127045,47.072445 
	C64.885818,43.959785 68.196938,41.264061 66.356766,37.049320 
	C69.323524,37.554230 71.970970,38.101501 72.422272,34.081882 
	C74.588684,34.053749 76.618210,34.560059 78.142181,33.899677 
	C81.729935,32.344997 84.655624,32.865242 87.970573,34.794502 
	C89.653976,35.774223 92.212135,35.371094 94.375847,35.381470 
	C99.636406,35.406700 104.897552,35.308186 110.447678,35.256844 
	C110.503456,34.808617 110.724495,33.032387 110.945526,31.256157 
	C114.152054,30.591944 117.358574,29.927732 120.797791,28.993626 
M70.297874,43.970478 
	C69.839478,43.911076 69.381073,43.851673 68.922676,43.792271 
	C69.006317,44.204636 69.089951,44.617004 69.173584,45.029369 
	C69.536819,44.802002 69.900047,44.574638 70.297874,43.970478 
z"/>
<path fill="#D6AF7B" opacity="1.000000" stroke="none" 
	d="
M113.109657,46.055222 
	C114.179359,45.753651 115.249069,45.452080 116.734001,45.440750 
	C119.034248,46.807220 120.919273,47.883446 122.804291,48.959675 
	C122.883415,50.685249 122.962540,52.410824 122.572418,54.563927 
	C119.724762,55.331787 117.346344,55.672123 114.595856,56.056858 
	C105.573380,57.947250 102.615410,60.597260 101.806229,67.291504 
	C100.414642,68.323929 99.217941,69.116249 97.785522,69.815163 
	C97.387886,69.673172 97.225983,69.624588 96.955917,69.366226 
	C96.377747,68.752739 95.907745,68.349030 95.407394,67.586212 
	C95.299850,66.751045 95.222649,66.274979 95.249130,65.510330 
	C96.040131,63.888039 96.727448,62.554337 97.414764,61.220638 
	C97.181084,61.002361 96.947403,60.784084 96.713715,60.565807 
	C95.818932,61.040730 94.924149,61.515656 93.754303,61.762867 
	C92.140465,60.157631 90.801689,58.780106 89.607483,57.060474 
	C90.450569,52.823761 91.149086,48.929157 92.166611,44.996727 
	C92.910423,44.907753 93.335220,44.856602 93.760010,44.805450 
	C96.811386,49.974091 98.948196,50.225430 103.159210,46.043449 
	C103.788902,45.418098 104.816498,45.193401 105.822937,45.067890 
	C106.656471,45.900227 107.327087,46.448025 108.109909,47.301331 
	C108.471016,49.328156 108.719910,51.049480 109.077278,53.520996 
	C111.122604,52.520142 114.002960,53.335098 112.239388,49.530224 
	C111.958786,48.924824 112.722641,47.835316 113.027588,46.740723 
	C113.051552,46.511829 113.109657,46.055222 113.109657,46.055222 
z"/>
<path fill="#AA8961" opacity="1.000000" stroke="none" 
	d="
M97.064087,69.576004 
	C97.225983,69.624588 97.387886,69.673172 97.899567,70.081146 
	C100.150879,70.995964 102.052422,71.551392 104.070465,72.419174 
	C106.962555,76.268723 109.384987,80.423332 115.314140,78.783997 
	C117.002968,77.439720 118.412102,76.247658 119.825562,75.476089 
	C120.589279,80.584267 118.964272,83.185654 113.844398,83.026024 
	C112.588524,82.986870 111.313515,83.561470 110.047302,83.853897 
	C109.248085,84.199074 108.448868,84.544243 107.173843,84.553505 
	C105.697418,81.892838 104.696808,79.568077 103.648720,77.133018 
	C101.201385,76.744476 98.491508,76.314247 95.964935,75.647552 
	C96.119164,74.603539 96.090088,73.795998 96.035324,73.001587 
	C96.009644,73.014717 96.066917,73.018402 96.049377,72.782394 
	C96.031830,72.546387 95.965530,72.077721 96.012894,71.774216 
	C96.093765,71.268684 96.127274,71.066658 96.328522,70.664581 
	C96.685532,70.168365 96.874809,69.872185 97.064087,69.576004 
z"/>
<path fill="#C7A272" opacity="1.000000" stroke="none" 
	d="
M114.967934,56.012455 
	C117.346344,55.672123 119.724762,55.331787 122.463341,54.984501 
	C122.880226,55.732506 122.936943,56.487469 122.736732,57.719131 
	C122.597931,58.802319 122.716057,59.408798 122.834183,60.015282 
	C122.926018,61.796635 123.017845,63.577991 122.767220,65.676025 
	C118.956345,68.654465 115.487915,71.316223 111.872940,73.752014 
	C110.161461,72.689018 108.596535,71.851982 107.025276,71.006790 
	C107.018951,70.998634 107.004509,71.011665 107.280045,70.923187 
	C108.063789,70.557503 108.571999,70.280296 109.373505,69.988182 
	C109.862137,69.960457 110.057495,69.947632 110.429436,69.939789 
	C110.606018,69.944771 110.957756,69.978157 111.085876,70.020813 
	C111.213997,70.063461 111.611572,70.088760 111.611572,70.088760 
	C111.611572,70.088760 112.000694,69.995789 112.059128,69.650726 
	C113.308540,67.826843 114.251747,65.452965 115.738213,65.041466 
	C119.771240,63.924995 119.004143,61.634880 117.917847,58.688225 
	C116.861023,57.611465 115.927650,56.819717 114.993332,56.019096 
	C114.992401,56.010220 114.967934,56.012455 114.967934,56.012455 
z"/>
<path fill="#B0906A" opacity="1.000000" stroke="none" 
	d="
M95.781631,75.884026 
	C98.491508,76.314247 101.201385,76.744476 103.648720,77.133018 
	C104.696808,79.568077 105.697418,81.892838 106.841728,84.502991 
	C104.935333,84.653313 102.885246,84.518250 100.453979,84.416405 
	C97.419991,83.896919 94.767174,83.344208 91.994949,82.463402 
	C91.922264,80.392174 91.968987,78.649055 92.417023,76.497711 
	C93.806099,76.021011 94.793869,75.952515 95.781631,75.884026 
z"/>
<path fill="#BD9B70" opacity="1.000000" stroke="none" 
	d="
M112.019485,73.977974 
	C115.487915,71.316223 118.956345,68.654465 122.660561,65.990601 
	C123.070328,67.763153 123.244308,69.537827 123.144028,71.742691 
	C122.266083,72.715233 121.662407,73.257576 120.872177,74.026703 
	C120.397499,74.520851 120.109367,74.788223 119.821243,75.055595 
	C118.412102,76.247658 117.002968,77.439720 115.327209,78.512337 
	C114.046883,76.921249 113.033180,75.449615 112.019485,73.977974 
z"/>
<path fill="#522F14" opacity="1.000000" stroke="none" 
	d="
M128.432205,60.173649 
	C128.549606,62.168736 128.667007,64.163818 128.886780,66.581619 
	C128.883987,69.334946 128.778793,71.665565 128.630676,74.428963 
	C127.761780,74.982224 126.935806,75.102699 125.818436,75.306999 
	C125.760445,70.438393 125.993858,65.485970 126.587921,60.176094 
	C127.443123,59.936981 127.937660,60.055317 128.432205,60.173649 
z"/>
<path fill="#C9AB85" opacity="1.000000" stroke="none" 
	d="
M119.825562,75.476089 
	C120.109367,74.788223 120.397499,74.520851 121.175110,74.160217 
	C122.244888,74.339775 122.825180,74.612595 123.405479,74.885414 
	C123.403824,75.218536 123.417854,75.552574 123.398239,75.884636 
	C122.810379,85.836731 121.262527,86.864120 110.416336,84.057556 
	C111.313515,83.561470 112.588524,82.986870 113.844398,83.026024 
	C118.964272,83.185654 120.589279,80.584267 119.825562,75.476089 
z"/>
<path fill="#ECC488" opacity="1.000000" stroke="none" 
	d="
M122.934288,48.648987 
	C120.919273,47.883446 119.034248,46.807220 117.067734,45.407661 
	C116.521706,43.887794 116.057190,42.691261 115.592667,41.494724 
	C115.994576,41.319523 116.396477,41.144321 116.798378,40.969120 
	C117.191429,41.783886 117.584488,42.598652 118.135651,44.018959 
	C119.824730,45.425350 121.355698,46.226204 122.886673,47.027058 
	C122.945877,47.464138 123.005081,47.901215 122.934288,48.648987 
z"/>
<path fill="#D6AF7B" opacity="1.000000" stroke="none" 
	d="
M122.992119,46.612175 
	C121.355698,46.226204 119.824730,45.425350 118.158066,44.322380 
	C119.415123,43.374302 120.807877,42.728340 122.526100,42.028275 
	C122.933571,43.381878 123.015564,44.789589 122.992119,46.612175 
z"/>
<path fill="#704927" opacity="1.000000" stroke="none" 
	d="
M128.620071,59.763088 
	C127.937660,60.055317 127.443123,59.936981 126.711823,59.748188 
	C126.380028,58.432491 126.284988,57.187252 126.510025,55.516041 
	C127.491127,55.032452 128.152145,54.974838 128.813171,54.917221 
	C128.811417,56.395660 128.809677,57.874092 128.620071,59.763088 
z"/>
<path fill="#603C1F" opacity="1.000000" stroke="none" 
	d="
M123.538567,74.686905 
	C122.825180,74.612595 122.244888,74.339775 121.361656,73.933434 
	C121.662407,73.257576 122.266083,72.715233 123.206375,72.184860 
	C123.585869,72.960678 123.628761,73.724541 123.538567,74.686905 
z"/>
<path fill="#704927" opacity="1.000000" stroke="none" 
	d="
M126.315071,50.428017 
	C126.897873,50.360546 127.447945,50.631687 128.279739,51.041870 
	C128.565308,51.682674 128.569153,52.184441 128.203094,52.890312 
	C127.283325,52.999928 126.733444,52.905441 126.183563,52.810951 
	C126.216492,52.129509 126.249420,51.448071 126.315071,50.428017 
z"/>
<path fill="#522F14" opacity="1.000000" stroke="none" 
	d="
M126.149307,53.205620 
	C126.733444,52.905441 127.283325,52.999928 128.111237,53.127747 
	C128.512939,53.545368 128.636627,53.929661 128.786743,54.615585 
	C128.152145,54.974838 127.491127,55.032452 126.503777,55.136402 
	C126.156654,54.655251 126.135849,54.127766 126.149307,53.205620 
z"/>
<path fill="#BD9B70" opacity="1.000000" stroke="none" 
	d="
M122.921616,59.681190 
	C122.716057,59.408798 122.597931,58.802319 122.653709,58.092155 
	C122.888084,58.441349 122.948570,58.894226 122.921616,59.681190 
z"/>
<path fill="#EBC38B" opacity="1.000000" stroke="none" 
	d="
M65.994431,37.015091 
	C68.196938,41.264061 64.885818,43.959785 63.127045,47.072445 
	C62.275608,48.579308 61.270576,49.999390 60.041573,51.493694 
	C58.355057,48.302532 56.378605,46.557014 52.492188,47.775608 
	C50.699993,48.337563 48.602856,47.926949 46.543640,47.658028 
	C45.550236,46.152878 44.657177,44.947021 43.764118,43.741161 
	C44.304977,43.185192 44.845840,42.629223 45.824890,42.150414 
	C47.820297,41.807022 49.377522,41.386475 51.062057,41.292336 
	C53.992012,44.927097 56.897057,45.904057 60.347908,41.926571 
	C61.798027,40.235661 62.916431,38.624599 64.288841,37.002029 
	C64.712151,36.982227 64.881462,36.973927 65.286774,36.976334 
	C65.522774,36.987038 65.994431,37.015091 65.994431,37.015091 
z"/>
<path fill="#F4D79E" opacity="1.000000" stroke="none" 
	d="
M66.356766,37.049320 
	C65.994431,37.015091 65.522774,36.987038 65.185280,36.689377 
	C64.238052,35.605808 63.628311,34.819901 62.647293,34.045494 
	C60.837070,34.385460 59.398132,34.713921 57.617481,34.957607 
	C56.107285,34.122501 54.938793,33.372166 53.770306,32.621830 
	C54.597607,31.775522 55.424904,30.929213 56.525749,29.972420 
	C60.956047,29.878353 65.112801,29.894768 69.998169,29.842176 
	C71.153473,29.842638 71.580147,29.912106 72.021111,30.298134 
	C72.054764,31.034952 72.074127,31.455208 72.082710,32.243271 
	C72.066498,33.102753 72.061066,33.594425 72.055634,34.086098 
	C71.970970,38.101501 69.323524,37.554230 66.356766,37.049320 
z"/>
<path fill="#E2BA81" opacity="1.000000" stroke="none" 
	d="
M53.470238,32.782074 
	C54.938793,33.372166 56.107285,34.122501 57.590519,35.311817 
	C57.300926,37.516994 56.696587,39.283195 55.661373,41.048107 
	C53.798580,41.019855 52.366665,40.992889 50.934746,40.965927 
	C49.377522,41.386475 47.820297,41.807022 46.106434,42.055725 
	C45.798923,36.838028 50.956551,36.078831 53.470238,32.782074 
z"/>
<path fill="#C0935F" opacity="1.000000" stroke="none" 
	d="
M43.404800,43.707535 
	C44.657177,44.947021 45.550236,46.152878 46.312584,47.790073 
	C45.793594,48.815182 45.405319,49.408955 44.683849,50.127029 
	C41.553257,50.512554 38.755856,50.773777 35.958458,51.035004 
	C36.515980,49.816620 37.073505,48.598240 37.780262,47.080742 
	C39.634827,45.745724 41.340157,44.709820 43.404800,43.707535 
z"/>
<path fill="#AF8457" opacity="1.000000" stroke="none" 
	d="
M38.331566,40.947315 
	C38.522518,40.675156 39.021309,40.423645 39.793602,40.107937 
	C39.591198,40.351814 39.115303,40.659885 38.331566,40.947315 
z"/>
<path fill="#AF8457" opacity="1.000000" stroke="none" 
	d="
M42.370388,38.163525 
	C42.622410,37.803471 43.222775,37.517673 44.148636,37.141563 
	C43.889000,37.446762 43.303867,37.842274 42.370388,38.163525 
z"/>
<path fill="#AF8457" opacity="1.000000" stroke="none" 
	d="
M41.331711,39.070526 
	C41.210827,38.803490 41.429119,38.554890 41.884445,38.192093 
	C41.936703,38.384560 41.786503,38.721581 41.331711,39.070526 
z"/>
<path fill="#AF8457" opacity="1.000000" stroke="none" 
	d="
M40.301247,40.036842 
	C40.233971,39.825829 40.455090,39.576172 40.877899,39.177460 
	C40.916271,39.351673 40.752956,39.674938 40.301247,40.036842 
z"/>
<path fill="#AB7B48" opacity="1.000000" stroke="none" 
	d="
M72.006828,29.981571 
	C71.580147,29.912106 71.153473,29.842638 70.405624,29.726431 
	C70.087288,29.324200 70.090126,28.968710 70.102913,28.347832 
	C75.750526,28.083515 81.388206,28.084585 87.488312,28.118519 
	C87.959091,28.474831 87.963684,28.798332 87.574219,29.467314 
	C83.127800,29.914354 79.071686,30.015965 74.642105,30.059448 
	C73.514702,29.994738 72.760765,29.988155 72.006828,29.981571 
z"/>
<path fill="#F2D49D" opacity="1.000000" stroke="none" 
	d="
M75.015564,30.117573 
	C79.071686,30.015965 83.127800,29.914354 87.581909,29.710693 
	C95.344543,30.124790 102.709183,30.640932 110.509674,31.206615 
	C110.724495,33.032387 110.503456,34.808617 110.447678,35.256844 
	C104.897552,35.308186 99.636406,35.406700 94.375847,35.381470 
	C92.212135,35.371094 89.653976,35.774223 87.970573,34.794502 
	C84.655624,32.865242 81.729935,32.344997 78.142181,33.899677 
	C76.618210,34.560059 74.588684,34.053749 72.422279,34.081882 
	C72.061066,33.594425 72.066498,33.102753 72.377441,32.207108 
	C73.460487,31.241283 74.238022,30.679428 75.015564,30.117573 
z"/>
<path fill="#704927" opacity="1.000000" stroke="none" 
	d="
M128.778046,48.855473 
	C128.594193,48.495380 128.471466,47.867683 128.518906,47.097397 
	C128.739120,47.499165 128.789154,48.043514 128.778046,48.855473 
z"/>
<path fill="#3C210B" opacity="1.000000" stroke="none" 
	d="
M64.231430,61.930382 
	C63.623596,61.453110 63.404018,60.997276 63.421623,60.025112 
	C65.221123,58.976227 66.752121,58.132629 68.351837,57.971558 
	C72.543541,57.549519 76.765236,57.425335 81.050568,57.487171 
	C82.068634,58.860649 83.011093,59.929398 83.993362,61.311729 
	C84.281479,62.814857 84.529808,64.004402 84.840080,65.490646 
	C82.589203,65.315628 80.813492,65.177559 78.835541,64.921722 
	C78.215248,63.739231 77.797188,62.674496 77.271873,61.336594 
	C75.901436,62.377850 74.759979,63.245121 73.618530,64.112389 
	C73.618530,64.112389 73.458275,64.105164 73.045364,63.921196 
	C71.697235,63.494061 70.762024,63.250889 69.826805,63.007721 
	C68.091103,62.655758 66.355392,62.303791 64.231430,61.930382 
z"/>
<path fill="#523015" opacity="1.000000" stroke="none" 
	d="
M79.037781,65.039490 
	C80.813492,65.177559 82.589203,65.315628 84.840080,65.490646 
	C84.529808,64.004402 84.281479,62.814857 84.150177,61.058495 
	C84.726700,59.511204 85.186218,58.530731 85.568230,57.715626 
	C86.702011,59.885502 87.764328,61.918602 88.911476,64.199951 
	C89.257179,64.668823 89.518051,64.889458 89.816467,65.464310 
	C89.871849,66.526886 89.889687,67.235229 89.922935,67.972290 
	C89.938354,68.001015 89.859673,67.916847 90.143692,67.959030 
	C90.800926,68.083664 91.174149,68.166107 91.582703,68.549355 
	C92.255600,71.135117 90.956856,75.498955 96.061020,72.988449 
	C96.090088,73.795998 96.119164,74.603539 95.964935,75.647552 
	C94.793869,75.952515 93.806099,76.021011 92.455994,76.171234 
	C91.310699,76.050499 90.527740,75.848022 89.485321,75.479523 
	C88.038841,74.269844 86.851822,73.226189 85.276657,71.684654 
	C83.242928,70.145241 81.597343,69.103706 79.951759,68.062180 
	C79.951759,68.062180 79.929947,68.097740 79.969254,67.852982 
	C79.684959,66.751984 79.361374,65.895737 79.037781,65.039490 
z"/>
<path fill="#472D18" opacity="1.000000" stroke="none" 
	d="
M78.835548,64.921722 
	C79.361374,65.895737 79.684959,66.751984 79.950882,67.843102 
	C77.940369,66.946152 75.987518,65.814331 73.826599,64.397446 
	C74.759979,63.245121 75.901436,62.377850 77.271873,61.336594 
	C77.797188,62.674496 78.215248,63.739231 78.835548,64.921722 
z"/>
<path fill="#472D18" opacity="1.000000" stroke="none" 
	d="
M80.183929,68.280838 
	C81.597343,69.103706 83.242928,70.145241 84.961372,71.529510 
	C83.494858,70.747993 81.955475,69.623741 80.183929,68.280838 
z"/>
<path fill="#472D18" opacity="1.000000" stroke="none" 
	d="
M70.145218,63.185535 
	C70.762024,63.250889 71.697235,63.494061 72.969864,63.894096 
	C72.359398,63.821762 71.411514,63.592556 70.145218,63.185535 
z"/>
<path fill="#906432" opacity="1.000000" stroke="none" 
	d="
M66.020645,50.010174 
	C68.119629,49.511581 70.218605,49.012993 72.480637,48.788666 
	C70.755692,50.369198 68.867683,51.675468 66.653091,53.055286 
	C64.880775,54.076660 63.435047,55.024483 61.726479,56.111305 
	C61.012093,57.459816 60.560551,58.669334 60.109009,59.878853 
	C59.173794,59.914791 58.238575,59.950729 56.820618,59.889511 
	C56.270096,58.229534 56.202312,56.666718 56.419319,55.088501 
	C57.716785,54.657284 58.729462,54.241470 59.742138,53.825653 
	C60.657299,53.415600 61.572460,53.005550 63.104687,52.321068 
	C64.488052,51.367817 65.254349,50.688995 66.020645,50.010174 
z"/>
<path fill="#AC8253" opacity="1.000000" stroke="none" 
	d="
M60.476173,59.909794 
	C60.560551,58.669334 61.012093,57.459816 61.968536,56.207466 
	C63.304516,56.168465 64.135597,56.172291 65.435745,56.119812 
	C71.280083,56.034363 76.655357,56.005222 82.046295,56.000633 
	C82.061951,56.025185 82.005775,56.040546 81.919273,56.295647 
	C81.546837,56.761311 81.260910,56.971874 80.974976,57.182442 
	C76.765236,57.425335 72.543541,57.549519 68.351837,57.971558 
	C66.752121,58.132629 65.221123,58.976227 63.356087,59.776814 
	C62.316689,60.010143 61.580013,59.975441 60.476173,59.909794 
z"/>
<path fill="#CEAB7B" opacity="1.000000" stroke="none" 
	d="
M56.134529,55.103901 
	C56.202312,56.666718 56.270096,58.229534 56.620865,59.941978 
	C55.461372,60.986931 54.018898,61.882259 52.287788,62.933029 
	C50.874466,61.822681 49.749783,60.556889 48.469727,58.887859 
	C50.616531,57.046310 52.918716,55.607994 55.375053,54.321136 
	C55.735767,54.678444 55.937538,54.888878 56.134529,55.103901 
z"/>
<path fill="#CEA675" opacity="1.000000" stroke="none" 
	d="
M35.777142,51.261139 
	C38.755856,50.773777 41.553257,50.512554 44.878494,50.329918 
	C46.100208,51.714687 48.313515,53.222889 44.542526,53.992500 
	C42.084606,54.685841 40.014698,55.373676 37.944790,56.061512 
	C35.277206,55.504543 33.905178,54.282284 35.777142,51.261139 
z"/>
<path fill="#C9A57A" opacity="1.000000" stroke="none" 
	d="
M38.171196,56.328167 
	C40.014698,55.373676 42.084606,54.685841 44.648373,54.271591 
	C45.440475,55.059750 45.738720,55.574318 46.105770,56.397362 
	C46.478516,57.494709 46.782459,58.283588 47.086403,59.072464 
	C47.086403,59.072464 47.035030,59.540657 47.001328,59.773937 
	C45.213482,60.727161 43.459343,61.447109 41.373444,62.323593 
	C40.160324,60.518360 39.278965,58.556591 38.171196,56.328167 
z"/>
<path fill="#C9A57A" opacity="1.000000" stroke="none" 
	d="
M39.237133,62.807045 
	C38.541580,63.268471 37.642429,63.510601 36.400955,63.761005 
	C37.050270,63.375439 38.041904,62.981594 39.237133,62.807045 
z"/>
<path fill="#A2815A" opacity="1.000000" stroke="none" 
	d="
M45.852211,63.952030 
	C45.969200,63.994621 45.488113,63.993832 45.247681,63.992214 
	C45.242535,63.883755 45.485195,63.856701 45.852211,63.952030 
z"/>
<path fill="#A2815A" opacity="1.000000" stroke="none" 
	d="
M43.505219,65.502823 
	C43.500511,65.483772 43.509930,65.521866 43.505219,65.502823 
z"/>
<path fill="#C09B6C" opacity="1.000000" stroke="none" 
	d="
M47.315563,59.053295 
	C46.782459,58.283588 46.478516,57.494709 46.367634,56.293213 
	C48.711220,54.897789 50.861748,53.914986 53.254196,52.931114 
	C53.496124,52.930046 53.978039,52.886745 54.193642,53.089417 
	C54.679790,53.584621 54.950344,53.877148 55.220898,54.169674 
	C52.918716,55.607994 50.616531,57.046310 48.158775,58.741127 
	C48.003197,58.997631 47.544724,59.034126 47.315563,59.053295 
z"/>
<path fill="#DEB682" opacity="1.000000" stroke="none" 
	d="
M55.375053,54.321136 
	C54.950344,53.877148 54.679790,53.584621 54.241634,52.880283 
	C53.839405,51.938232 53.604778,51.407986 53.370148,50.877743 
	C53.250854,51.562553 53.131561,52.247364 53.012268,52.932178 
	C50.861748,53.914986 48.711220,54.897789 46.298832,55.984741 
	C45.738720,55.574318 45.440475,55.059750 45.036385,54.266090 
	C48.313515,53.222889 46.100208,51.714687 45.211689,50.205620 
	C45.405319,49.408955 45.793594,48.815182 46.412926,48.089363 
	C48.602856,47.926949 50.699993,48.337563 52.492188,47.775608 
	C56.378605,46.557014 58.355057,48.302532 59.895027,51.769329 
	C59.992138,52.312622 59.942280,52.615215 59.817276,53.371735 
	C58.729462,54.241470 57.716785,54.657284 56.419319,55.088501 
	C55.937538,54.888878 55.735767,54.678444 55.375053,54.321136 
z"/>
<path fill="#915C27" opacity="1.000000" stroke="none" 
	d="
M75.032219,48.089085 
	C78.091988,46.398960 81.151764,44.708832 84.570175,43.447929 
	C83.889084,47.237164 82.849342,50.597179 81.559189,53.987663 
	C80.438530,53.603001 79.568283,53.187866 78.536011,52.546150 
	C77.260071,50.909405 76.146149,49.499245 75.032219,48.089085 
z"/>
<path fill="#BF8F5A" opacity="1.000000" stroke="none" 
	d="
M81.809601,53.957195 
	C82.849342,50.597179 83.889084,47.237164 84.927971,43.487740 
	C88.228439,40.111664 91.105461,40.454784 93.654678,44.501244 
	C93.335220,44.856602 92.910423,44.907753 91.885010,45.050316 
	C90.920143,45.255966 90.555901,45.370197 89.876076,45.561813 
	C87.649200,48.719444 85.737915,51.799698 83.583862,55.005520 
	C82.895988,55.434242 82.450882,55.737396 82.005775,56.040550 
	C82.005775,56.040546 82.061951,56.025185 82.014397,55.663719 
	C81.914429,54.853905 81.862015,54.405548 81.809601,53.957195 
z"/>
<path fill="#B07B41" opacity="1.000000" stroke="none" 
	d="
M74.778725,48.038712 
	C76.146149,49.499245 77.260071,50.909405 78.214111,52.660606 
	C74.367828,52.998478 70.681435,52.995304 66.995560,52.994671 
	C66.996078,52.997215 66.979683,52.981739 66.979683,52.981739 
	C68.867683,51.675468 70.755692,50.369198 72.902084,48.796288 
	C73.615395,48.349213 74.070312,48.168777 74.778725,48.038712 
z"/>
<path fill="#ECC488" opacity="1.000000" stroke="none" 
	d="
M107.997704,46.995827 
	C107.327087,46.448025 106.656471,45.900227 106.103500,45.153610 
	C106.638344,44.955673 107.055534,44.956558 108.113937,44.994877 
	C109.806503,45.337528 110.857880,45.642746 111.909248,45.947964 
	C112.109047,45.964619 112.308846,45.981274 112.809151,46.026573 
	C113.109657,46.055222 113.051552,46.511829 112.610275,46.745113 
	C110.778572,46.984207 109.388138,46.990021 107.997704,46.995827 
z"/>
<path fill="#EBC38B" opacity="1.000000" stroke="none" 
	d="
M70.280579,44.158875 
	C69.900047,44.574638 69.536819,44.802002 69.173584,45.029369 
	C69.089951,44.617004 69.006317,44.204636 68.922676,43.792271 
	C69.381073,43.851673 69.839478,43.911076 70.280579,44.158875 
z"/>
<path fill="#DEB682" opacity="1.000000" stroke="none" 
	d="
M65.758629,49.953712 
	C65.254349,50.688995 64.488052,51.367817 63.398727,52.084305 
	C63.882675,51.380405 64.689644,50.638828 65.758629,49.953712 
z"/>
<path fill="#D6AF7B" opacity="1.000000" stroke="none" 
	d="
M111.798172,45.685181 
	C110.857880,45.642746 109.806503,45.337528 108.429001,44.994160 
	C109.297615,45.111473 110.492355,45.266937 111.798172,45.685181 
z"/>
<path fill="#D8B283" opacity="1.000000" stroke="none" 
	d="
M110.957756,69.978157 
	C110.957756,69.978157 110.606018,69.944771 110.296082,69.618286 
	C108.418045,64.647408 105.310913,65.488274 102.001129,67.051399 
	C102.615410,60.597260 105.573380,57.947250 114.595856,56.056858 
	C114.967934,56.012455 114.992401,56.010220 115.074707,56.337990 
	C116.118446,57.434914 117.079872,58.204075 118.041290,58.973236 
	C119.004143,61.634880 119.771240,63.924995 115.738213,65.041466 
	C114.251747,65.452965 113.308540,67.826843 111.798386,69.646278 
	C111.305405,69.983986 111.131577,69.981071 110.957756,69.978157 
z"/>
<path fill="#4A270E" opacity="1.000000" stroke="none" 
	d="
M90.191658,45.484428 
	C90.555901,45.370197 90.920143,45.255966 91.565994,45.088142 
	C91.149086,48.929157 90.450569,52.823761 89.301712,57.255863 
	C88.969368,59.889011 89.087357,61.984669 89.109009,64.053070 
	C89.012665,64.025810 88.826637,63.951702 88.826637,63.951702 
	C87.764328,61.918602 86.702011,59.885502 85.568230,57.715626 
	C85.186218,58.530731 84.726700,59.511204 84.110374,60.744911 
	C83.011093,59.929398 82.068634,58.860649 81.050568,57.487175 
	C81.260910,56.971874 81.546837,56.761311 81.919273,56.295647 
	C82.450882,55.737396 82.895988,55.434242 83.920128,54.926010 
	C86.396660,51.642097 88.294159,48.563263 90.191658,45.484428 
z"/>
<path fill="#BD9B70" opacity="1.000000" stroke="none" 
	d="
M101.806229,67.291504 
	C105.310913,65.488274 108.418045,64.647408 110.119499,69.613297 
	C110.057495,69.947632 109.862137,69.960457 109.095444,70.077171 
	C108.017578,70.457932 107.511040,70.734802 107.004509,71.011665 
	C107.004509,71.011665 107.018951,70.998634 106.697830,71.051376 
	C105.569122,71.438347 104.761543,71.772583 103.953964,72.106819 
	C102.052422,71.551392 100.150879,70.995964 98.135292,70.174553 
	C99.217941,69.116249 100.414642,68.323929 101.806229,67.291504 
z"/>
<path fill="#D7AB74" opacity="1.000000" stroke="none" 
	d="
M108.109909,47.301331 
	C109.388138,46.990021 110.778572,46.984207 112.586319,46.974007 
	C112.722641,47.835316 111.958786,48.924824 112.239388,49.530224 
	C114.002960,53.335098 111.122604,52.520142 109.077278,53.520996 
	C108.719910,51.049480 108.471016,49.328156 108.109909,47.301331 
z"/>
<path fill="#BD9B70" opacity="1.000000" stroke="none" 
	d="
M89.778915,65.110092 
	C89.518051,64.889458 89.257179,64.668823 88.911476,64.199951 
	C88.826637,63.951702 89.012665,64.025810 89.435356,63.992638 
	C91.248482,63.303169 92.638924,62.646870 94.029358,61.990578 
	C94.924149,61.515656 95.818932,61.040730 96.713715,60.565807 
	C96.947403,60.784084 97.181084,61.002361 97.414764,61.220638 
	C96.727448,62.554337 96.040131,63.888039 94.860001,65.483444 
	C92.837761,65.533455 91.308334,65.321770 89.778915,65.110092 
z"/>
<path fill="#AF8C62" opacity="1.000000" stroke="none" 
	d="
M93.754303,61.762863 
	C92.638924,62.646870 91.248482,63.303169 89.531693,64.019897 
	C89.087357,61.984669 88.969368,59.889011 89.157150,57.597969 
	C90.801689,58.780106 92.140465,60.157631 93.754303,61.762863 
z"/>
<path fill="#AF8C62" opacity="1.000000" stroke="none" 
	d="
M89.816467,65.464317 
	C91.308334,65.321770 92.837761,65.533455 94.756317,65.772034 
	C95.222649,66.274979 95.299850,66.751045 95.265366,67.602310 
	C95.153687,67.977524 94.877190,68.015175 94.461830,68.031082 
	C93.213440,68.114182 92.380402,68.181366 91.547371,68.248550 
	C91.174149,68.166107 90.800926,68.083664 90.156097,67.979736 
	C89.884491,67.958260 89.907524,67.943573 89.907516,67.943573 
	C89.889687,67.235229 89.871849,66.526886 89.816467,65.464317 
z"/>
<path fill="#BD9B70" opacity="1.000000" stroke="none" 
	d="
M96.955917,69.366226 
	C96.874809,69.872185 96.685532,70.168365 96.178772,70.390381 
	C95.533257,69.549202 95.205223,68.782188 94.877190,68.015175 
	C94.877190,68.015175 95.153687,67.977524 95.295715,67.961418 
	C95.907745,68.349030 96.377747,68.752739 96.955917,69.366226 
z"/>
<path fill="#B7946A" opacity="1.000000" stroke="none" 
	d="
M104.070465,72.419174 
	C104.761543,71.772583 105.569122,71.438347 106.704147,71.059532 
	C108.596535,71.851982 110.161461,72.689018 111.872940,73.752014 
	C113.033180,75.449615 114.046883,76.921249 115.047516,78.664551 
	C109.384987,80.423332 106.962555,76.268723 104.070465,72.419174 
z"/>
<path fill="#9A7A58" opacity="1.000000" stroke="none" 
	d="
M94.461830,68.031082 
	C95.205223,68.782188 95.533257,69.549202 96.011040,70.590424 
	C96.127274,71.066658 96.093765,71.268684 95.822723,71.873489 
	C95.745766,72.523643 95.906342,72.771019 96.066917,73.018402 
	C96.066917,73.018402 96.009644,73.014717 96.035332,73.001587 
	C90.956856,75.498955 92.255600,71.135117 91.582703,68.549355 
	C92.380402,68.181366 93.213440,68.114182 94.461830,68.031082 
z"/>
<path fill="#523015" opacity="1.000000" stroke="none" 
	d="
M96.049377,72.782394 
	C95.906342,72.771019 95.745766,72.523643 95.775360,72.176987 
	C95.965530,72.077721 96.031830,72.546387 96.049377,72.782394 
z"/>
<path fill="#D6AF7B" opacity="1.000000" stroke="none" 
	d="
M117.917847,58.688221 
	C117.079872,58.204075 116.118446,57.434914 115.075645,56.346863 
	C115.927650,56.819717 116.861023,57.611465 117.917847,58.688221 
z"/>
<path fill="#B7946A" opacity="1.000000" stroke="none" 
	d="
M107.280045,70.923187 
	C107.511040,70.734802 108.017578,70.457932 108.802162,70.092079 
	C108.571999,70.280296 108.063789,70.557503 107.280045,70.923187 
z"/>
<path fill="#BD9B70" opacity="1.000000" stroke="none" 
	d="
M111.085876,70.020813 
	C111.131577,69.981071 111.305405,69.983986 111.739960,69.991341 
	C112.000694,69.995789 111.611572,70.088760 111.611572,70.088760 
	C111.611572,70.088760 111.213997,70.063461 111.085876,70.020813 
z"/>
<path fill="#EFCD93" opacity="1.000000" stroke="none" 
	d="
M56.092247,41.049393 
	C56.696587,39.283195 57.300926,37.516994 57.932228,35.396587 
	C59.398132,34.713921 60.837070,34.385460 62.691475,34.359558 
	C63.416241,35.445923 63.725540,36.229733 64.034836,37.013538 
	C62.916431,38.624599 61.798027,40.235661 60.044640,41.767578 
	C58.303852,41.475418 57.198048,41.262405 56.092247,41.049393 
z"/>
<path fill="#F5D69D" opacity="1.000000" stroke="none" 
	d="
M55.661373,41.048107 
	C57.198048,41.262405 58.303852,41.475418 59.712921,41.847427 
	C56.897057,45.904057 53.992012,44.927097 51.062057,41.292336 
	C52.366665,40.992889 53.798580,41.019855 55.661373,41.048107 
z"/>
<path fill="#ECC88F" opacity="1.000000" stroke="none" 
	d="
M64.288841,37.002029 
	C63.725540,36.229733 63.416241,35.445923 63.062759,34.348053 
	C63.628311,34.819901 64.238052,35.605808 64.949280,36.678673 
	C64.881462,36.973927 64.712151,36.982227 64.288841,37.002029 
z"/>
<path fill="#ECC88F" opacity="1.000000" stroke="none" 
	d="
M74.642105,30.059446 
	C74.238022,30.679428 73.460487,31.241283 72.388222,31.839302 
	C72.074127,31.455208 72.054764,31.034952 72.021111,30.298134 
	C72.760765,29.988155 73.514702,29.994738 74.642105,30.059446 
z"/>
<path fill="#9A7A58" opacity="1.000000" stroke="none" 
	d="
M89.872086,67.937553 
	C89.859673,67.916847 89.938354,68.001015 89.922943,67.972290 
	C89.907524,67.943573 89.884491,67.958260 89.872086,67.937553 
z"/>
<path fill="#B07B41" opacity="1.000000" stroke="none" 
	d="
M64.966675,56.176117 
	C64.135597,56.172291 63.304516,56.168465 62.231377,56.068474 
	C63.435047,55.024483 64.880775,54.076660 66.653091,53.055286 
	C66.979683,52.981739 66.996078,52.997215 66.843727,53.266560 
	C66.116478,54.415974 65.541573,55.296047 64.966675,56.176117 
z"/>
<path fill="#9D672E" opacity="1.000000" stroke="none" 
	d="
M65.435745,56.119812 
	C65.541573,55.296047 66.116478,54.415974 66.843201,53.264015 
	C70.681435,52.995304 74.367828,52.998478 78.376129,52.887192 
	C79.568283,53.187866 80.438530,53.603001 81.559189,53.987663 
	C81.862015,54.405548 81.914429,54.853905 81.998734,55.639168 
	C76.655357,56.005222 71.280083,56.034363 65.435745,56.119812 
z"/>
<path fill="#EBC38B" opacity="1.000000" stroke="none" 
	d="
M53.254196,52.931114 
	C53.131561,52.247364 53.250854,51.562553 53.370148,50.877743 
	C53.604778,51.407986 53.839405,51.938232 54.026031,52.677612 
	C53.978039,52.886745 53.496124,52.930046 53.254196,52.931114 
z"/>
<path fill="#714622" opacity="1.000000" stroke="none" 
	d="
M89.876076,45.561810 
	C88.294159,48.563263 86.396660,51.642097 84.162888,54.800438 
	C85.737915,51.799698 87.649200,48.719444 89.876076,45.561810 
z"/>
</svg>