<svg version="1.1" id="Layer_1" xmlns="http://www.w3.org/2000/svg" xmlns:xlink="http://www.w3.org/1999/xlink" x="0px" y="0px"
	 width="100%" viewBox="0 0 173 116" enable-background="new 0 0 173 116" xml:space="preserve">
<path fill="#000000" opacity="1.000000" stroke="none" 
	d="
M120.000000,117.000000 
	C80.000008,117.000000 40.500008,117.000000 1.000011,117.000000 
	C1.000007,78.333344 1.000007,39.666687 1.000004,1.000021 
	C58.666653,1.000014 116.333305,1.000014 173.999969,1.000007 
	C173.999969,39.666645 173.999969,78.333290 173.999985,116.999969 
	C156.166672,117.000000 138.333328,117.000000 120.000000,117.000000 
M138.976578,69.990669 
	C138.976578,69.990669 139.005249,70.042625 139.680817,69.856773 
	C140.861191,66.538696 142.041580,63.220612 142.989075,59.340706 
	C141.691071,58.523163 140.393066,57.705620 138.936417,56.309700 
	C137.404968,55.162388 135.873520,54.015072 134.058777,52.231831 
	C130.756287,49.795189 127.453796,47.358543 123.879272,44.305237 
	C119.896072,40.510593 115.912872,36.715950 111.702492,32.287106 
	C110.101433,31.217764 108.500366,30.148420 106.471840,28.531612 
	C105.891159,28.049271 105.317787,27.158333 104.728661,27.147779 
	C98.825195,27.042011 92.919136,27.080988 86.535553,27.079657 
	C86.535553,27.079657 86.066887,27.174919 85.173637,27.025078 
	C82.475090,27.050810 79.776543,27.076542 76.183701,27.032726 
	C74.084641,26.993622 71.985588,26.954517 69.447227,26.193787 
	C56.246628,26.092659 43.046028,25.991531 29.227034,26.092974 
	C28.455698,27.014336 27.684362,27.935699 26.299116,28.973356 
	C25.889484,28.920891 25.479851,28.868425 24.797607,28.133974 
	C23.168293,27.790663 21.538979,27.447353 19.170202,27.156666 
	C18.098764,29.323645 16.127642,31.478628 16.098560,33.659508 
	C15.870764,50.741905 15.989703,67.829422 16.083872,84.914894 
	C16.093534,86.668152 16.642056,88.418427 16.976774,90.933418 
	C17.958248,93.049347 18.939722,95.165268 20.302916,97.848145 
	C22.157581,98.417908 24.001869,99.441078 25.868595,99.483803 
	C37.915924,99.759514 49.968155,99.821075 62.953648,99.964394 
	C74.741295,99.969620 86.529793,100.061882 98.316246,99.945786 
	C104.862297,99.881310 110.970421,98.786514 113.592712,91.410652 
	C114.005928,90.248360 115.162910,89.275597 116.143349,88.403290 
	C119.723572,85.217873 123.374641,82.112076 127.556488,78.861588 
	C128.048630,78.587593 128.540771,78.313599 129.629578,77.720222 
	C131.693100,75.436165 133.756638,73.152115 135.859131,70.859230 
	C135.859131,70.859230 135.896133,70.854485 136.678406,70.902977 
	C137.198807,70.871841 137.719193,70.840714 138.529907,70.559349 
	C138.716705,70.380508 138.884583,70.185387 138.976578,69.990669 
z"/>
<path fill="#211309" opacity="1.000000" stroke="none" 
	d="
M126.999023,78.976280 
	C123.374641,82.112076 119.723572,85.217873 116.143349,88.403290 
	C115.162910,89.275597 114.005928,90.248360 113.592712,91.410652 
	C110.970421,98.786514 104.862297,99.881310 98.316246,99.945786 
	C86.529793,100.061882 74.741295,99.969620 62.479950,99.638412 
	C62.001080,98.884293 61.995914,98.456154 62.165775,97.821762 
	C62.568031,97.131042 62.795258,96.646576 63.347977,96.122925 
	C64.109169,96.107681 64.544868,96.131622 65.071579,96.362000 
	C65.782181,96.433014 66.401772,96.297577 67.392860,96.113297 
	C74.835686,96.027428 81.907021,95.990417 89.245468,96.147720 
	C91.326828,96.293343 93.141060,96.244644 95.290749,96.193893 
	C96.073013,96.202995 96.519814,96.214149 97.067657,96.421806 
	C97.787262,96.462868 98.405823,96.307419 99.349693,96.126289 
	C100.109818,96.108307 100.544640,96.116005 101.104523,96.371422 
	C102.158424,96.423470 103.087250,96.227798 104.020294,95.886765 
	C104.024529,95.741402 103.969841,95.455750 104.313591,95.539207 
	C105.899124,95.190102 107.140915,94.757538 108.613205,94.029785 
	C109.188354,91.828415 109.532997,89.922241 110.190552,87.854073 
	C113.781372,85.528252 117.065407,83.373642 120.335762,81.198463 
	C125.502060,77.762253 130.659164,74.312241 135.820160,70.868057 
	C133.756638,73.152115 131.693100,75.436165 129.135742,77.805695 
	C128.094269,78.252876 127.546646,78.614578 126.999023,78.976280 
z"/>
<path fill="#482F1B" opacity="1.000000" stroke="none" 
	d="
M135.839645,70.863647 
	C130.659164,74.312241 125.502060,77.762253 120.335762,81.198463 
	C117.065407,83.373642 113.781372,85.528252 109.850853,87.815796 
	C108.744743,87.902344 108.291252,87.865166 107.717583,87.822723 
	C107.597412,87.817459 107.357536,87.835686 107.482903,87.607956 
	C107.769585,86.889488 107.930901,86.398743 108.239304,85.690979 
	C108.598175,84.996613 108.809967,84.519287 109.250038,83.873276 
	C109.948547,83.115219 110.418785,82.525841 111.179779,81.874672 
	C111.984413,81.535980 112.498299,81.259087 113.386185,81.062592 
	C119.574471,77.168709 125.388748,73.194412 131.429169,69.080750 
	C131.797577,68.634804 131.939835,68.328232 132.048523,68.016762 
	C132.014954,68.011871 132.012161,68.079659 132.345825,68.044418 
	C133.151245,67.349289 133.623001,66.689400 134.057053,66.057938 
	C134.019363,66.086357 134.075760,66.162079 134.430267,66.235168 
	C137.133926,64.621681 139.483078,62.935108 142.048889,61.009224 
	C142.584351,60.480782 142.903152,60.191654 143.221954,59.902527 
	C142.041580,63.220612 140.861191,66.538696 139.241455,69.722733 
	C137.833435,70.010628 136.864792,70.432556 135.896133,70.854485 
	C135.896133,70.854485 135.859131,70.859230 135.839645,70.863647 
z"/>
<path fill="#594530" opacity="1.000000" stroke="none" 
	d="
M16.940533,90.170090 
	C16.642056,88.418427 16.093534,86.668152 16.083872,84.914894 
	C15.989703,67.829422 15.870764,50.741905 16.098560,33.659508 
	C16.127642,31.478628 18.098764,29.323645 19.360197,27.458645 
	C19.023550,29.973101 18.062075,32.181561 18.041595,34.398716 
	C17.918543,47.721054 18.114443,61.046413 17.981140,74.368538 
	C17.928408,79.638664 17.304417,84.903076 16.940533,90.170090 
z"/>
<path fill="#190D05" opacity="1.000000" stroke="none" 
	d="
M61.990746,98.028015 
	C61.995914,98.456154 62.001080,98.884293 62.012512,99.632660 
	C49.968155,99.821075 37.915924,99.759514 25.868595,99.483803 
	C24.001869,99.441078 22.157581,98.417908 20.309019,97.292252 
	C20.555746,96.124695 20.796371,95.513046 21.460323,94.920349 
	C23.583109,94.955620 25.282566,94.971931 27.282276,95.149704 
	C29.688326,95.596542 31.794125,95.881927 34.135307,96.464935 
	C36.091297,97.169815 37.802765,97.875160 39.534237,97.928261 
	C44.682446,98.086166 49.838520,97.987541 55.421013,97.992218 
	C57.568462,97.995743 59.286415,97.996231 61.250999,98.003349 
	C61.497635,98.009987 61.990746,98.028015 61.990746,98.028015 
z"/>
<path fill="#3D210B" opacity="1.000000" stroke="none" 
	d="
M21.036995,94.901390 
	C20.796371,95.513046 20.555746,96.124695 20.118160,97.008774 
	C18.939722,95.165268 17.958248,93.049347 16.958652,90.551758 
	C17.304417,84.903076 17.928408,79.638664 17.981140,74.368538 
	C18.114443,61.046413 17.918543,47.721054 18.041595,34.398716 
	C18.062075,32.181561 19.023550,29.973101 19.729927,27.432333 
	C21.538979,27.447353 23.168293,27.790663 24.571840,28.523348 
	C23.519789,29.264399 22.693506,29.616076 21.653259,29.953415 
	C21.439297,29.939079 21.014576,29.997494 20.713560,30.065044 
	C20.013725,30.769892 19.614906,31.407188 19.194145,32.289062 
	C19.272779,33.005566 19.373356,33.477497 19.478880,34.369373 
	C19.501205,40.780422 19.518579,46.771526 19.402733,53.187469 
	C19.350145,54.489376 19.430779,55.366444 19.479162,56.676258 
	C19.455168,60.008610 19.463421,62.908215 19.373932,66.279305 
	C19.252377,73.489655 19.228561,80.228516 19.163799,87.348999 
	C19.144188,88.496506 19.165525,89.262390 19.159195,90.335678 
	C19.308023,91.421936 19.484520,92.200775 19.770828,93.259865 
	C20.266092,93.993866 20.651545,94.447632 21.036995,94.901390 
z"/>
<path fill="#572D0E" opacity="1.000000" stroke="none" 
	d="
M69.886528,26.915413 
	C71.985588,26.954517 74.084641,26.993622 76.695274,27.299114 
	C77.413475,27.997742 77.620110,28.429979 77.427658,28.953638 
	C73.885017,29.025585 70.741447,29.006115 67.623489,29.003860 
	C67.649094,29.021074 67.541847,28.955858 67.038063,28.950932 
	C64.544693,28.943600 62.551273,28.860167 60.566238,28.954037 
	C54.689514,29.231936 48.816093,29.579817 42.698349,29.798046 
	C42.027893,29.387300 41.600471,29.078840 41.210701,28.560520 
	C41.321781,28.069668 41.326637,27.787498 41.713757,27.478622 
	C51.405247,27.273870 60.645885,27.094641 69.886528,26.915413 
z"/>
<path fill="#C1A17C" opacity="1.000000" stroke="none" 
	d="
M69.666878,26.554600 
	C60.645885,27.094641 51.405247,27.273870 41.254051,27.357933 
	C36.844143,26.805311 33.344788,26.347858 29.845430,25.890404 
	C43.046028,25.991531 56.246628,26.092659 69.666878,26.554600 
z"/>
<path fill="#85613A" opacity="1.000000" stroke="none" 
	d="
M87.013809,27.079189 
	C92.919136,27.080988 98.825195,27.042011 104.728661,27.147779 
	C105.317787,27.158333 105.891159,28.049271 106.372162,28.868679 
	C105.847725,29.173973 105.422974,29.142199 104.540802,29.033283 
	C100.086273,29.006992 96.089149,29.057838 91.708687,29.100117 
	C89.888161,28.420761 88.450989,27.749975 87.013809,27.079189 
z"/>
<path fill="#AB8358" opacity="1.000000" stroke="none" 
	d="
M86.774681,27.079422 
	C88.450989,27.749975 89.888161,28.420761 91.719040,29.341219 
	C92.163925,29.911760 92.168152,30.233250 91.659271,30.661163 
	C84.620209,30.846188 78.045204,31.035517 71.476128,30.911167 
	C70.171700,30.886473 68.890038,29.659306 67.597878,28.986645 
	C70.741447,29.006115 73.885017,29.025585 77.862198,28.967209 
	C81.152832,28.317881 83.609856,27.746401 86.066887,27.174919 
	C86.066887,27.174919 86.535553,27.079657 86.774681,27.079422 
z"/>
<path fill="#624021" opacity="1.000000" stroke="none" 
	d="
M111.929672,32.921310 
	C115.912872,36.715950 119.896072,40.510593 123.680084,44.650978 
	C123.257401,45.021175 123.033913,45.045628 122.513931,44.928864 
	C118.466576,41.877743 114.715714,38.967834 110.932701,35.760979 
	C110.859398,35.269211 110.818245,35.074387 110.844749,34.581669 
	C111.251503,33.829620 111.590591,33.375465 111.929672,32.921310 
z"/>
<path fill="#604528" opacity="1.000000" stroke="none" 
	d="
M122.810432,45.070080 
	C123.033913,45.045628 123.257401,45.021175 123.816101,44.959312 
	C127.453796,47.358543 130.756287,49.795189 133.952759,52.713882 
	C133.563339,53.467068 133.279938,53.738201 132.699188,53.857315 
	C129.204712,50.826885 126.007568,47.948483 122.810432,45.070080 
z"/>
<path fill="#845C36" opacity="1.000000" stroke="none" 
	d="
M29.536232,25.991688 
	C33.344788,26.347858 36.844143,26.805311 40.803207,27.383457 
	C41.326637,27.787498 41.321781,28.069668 40.850502,28.600523 
	C39.972271,28.893915 39.491886,28.937443 38.605843,28.958080 
	C37.118694,28.998081 36.037209,29.060972 34.514206,29.050821 
	C31.686134,28.937540 29.299582,28.897301 26.913027,28.857061 
	C27.684362,27.935699 28.455698,27.014336 29.536232,25.991688 
z"/>
<path fill="#C8A476" opacity="1.000000" stroke="none" 
	d="
M111.816086,32.604210 
	C111.590591,33.375465 111.251503,33.829620 110.638451,34.583134 
	C110.364487,34.882492 109.952240,34.899380 109.760445,34.649895 
	C108.646614,33.907764 107.724586,33.415123 106.606461,32.746841 
	C105.937553,32.345932 105.464737,32.120655 104.996964,31.547184 
	C105.000740,30.502800 104.999481,29.806614 104.998215,29.110424 
	C105.422974,29.142199 105.847725,29.173973 106.585892,29.142412 
	C108.500366,30.148420 110.101433,31.217764 111.816086,32.604210 
z"/>
<path fill="#CDA981" opacity="1.000000" stroke="none" 
	d="
M26.606071,28.915209 
	C29.299582,28.897301 31.686134,28.937540 34.520473,29.322212 
	C34.963570,30.029886 34.958881,30.393131 34.714272,30.838833 
	C34.316181,30.981215 34.158016,31.041136 33.609718,31.033051 
	C32.166206,30.931393 31.112837,30.897743 29.818424,30.547426 
	C27.444616,30.249636 25.311852,30.268511 22.851772,30.204807 
	C22.305380,30.070736 22.086302,30.019245 21.867222,29.967752 
	C22.693506,29.616076 23.519789,29.264399 24.708145,28.864342 
	C25.479851,28.868425 25.889484,28.920891 26.606071,28.915209 
z"/>
<path fill="#85613A" opacity="1.000000" stroke="none" 
	d="
M85.620262,27.099998 
	C83.609856,27.746401 81.152832,28.317881 78.261269,28.875790 
	C77.620110,28.429979 77.413475,27.997742 77.142426,27.333889 
	C79.776543,27.076542 82.475090,27.050810 85.620262,27.099998 
z"/>
<path fill="#573920" opacity="1.000000" stroke="none" 
	d="
M132.996536,54.009338 
	C133.279938,53.738201 133.563339,53.467068 134.094391,53.031845 
	C135.873520,54.015072 137.404968,55.162388 138.795609,56.831093 
	C138.507919,57.507095 138.361038,57.661713 137.911285,57.698666 
	C136.071121,56.390450 134.533829,55.199894 132.996536,54.009338 
z"/>
<path fill="#573920" opacity="1.000000" stroke="none" 
	d="
M143.105515,59.621616 
	C142.903152,60.191654 142.584351,60.480782 141.795212,60.824619 
	C140.287964,59.858330 139.251053,58.837330 138.214157,57.816330 
	C138.361038,57.661713 138.507919,57.507095 138.874939,57.120281 
	C140.393066,57.705620 141.691071,58.523163 143.105515,59.621616 
z"/>
<path fill="#211309" opacity="1.000000" stroke="none" 
	d="
M136.287262,70.878731 
	C136.864792,70.432556 137.833435,70.010628 138.903671,69.815659 
	C139.005249,70.042625 138.976578,69.990669 138.870270,70.121185 
	C138.581451,70.430405 138.406662,70.616364 138.239594,70.809578 
	C137.719193,70.840714 137.198807,70.871841 136.287262,70.878731 
z"/>
<path fill="#20140B" opacity="1.000000" stroke="none" 
	d="
M127.277756,78.918930 
	C127.546646,78.614578 128.094269,78.252876 128.837402,77.965385 
	C128.540771,78.313599 128.048630,78.587593 127.277756,78.918930 
z"/>
<path fill="#482F1B" opacity="1.000000" stroke="none" 
	d="
M138.384750,70.684464 
	C138.406662,70.616364 138.581451,70.430405 138.898743,70.112846 
	C138.884583,70.185387 138.716705,70.380508 138.384750,70.684464 
z"/>
<path fill="#331D0E" opacity="1.000000" stroke="none" 
	d="
M33.899925,96.167305 
	C31.794125,95.881927 29.688326,95.596542 27.258846,94.858994 
	C26.626160,93.924461 26.317156,93.442085 26.000347,92.556183 
	C26.277266,90.129898 26.561983,88.107124 27.122072,86.269363 
	C28.274784,87.607887 29.152126,88.761406 30.447834,89.952728 
	C32.530682,89.842667 34.195164,89.694778 36.219757,89.666458 
	C38.062458,89.698273 39.545044,89.610519 41.324257,89.603722 
	C42.028954,89.697319 42.437027,89.709976 43.108459,89.813789 
	C43.918842,89.849861 44.465870,89.794769 45.417564,89.770706 
	C48.198742,89.459343 50.575245,89.116943 53.409981,88.839493 
	C57.540066,89.000183 61.211926,89.095932 65.184113,89.428482 
	C67.931335,89.630264 70.378242,89.595253 73.301346,89.508324 
	C79.196960,89.561119 84.616371,89.665825 90.056076,90.071831 
	C90.999702,91.601700 91.923027,92.830284 93.404884,94.802025 
	C94.203949,92.400993 94.600288,91.210075 95.189270,89.819519 
	C95.630249,89.129280 95.878586,88.638664 96.487701,88.133942 
	C97.569038,88.146362 98.289589,88.172882 98.908333,88.485504 
	C98.542740,90.488708 98.278969,92.205811 97.688263,94.002213 
	C96.559311,94.786316 95.757301,95.491127 94.955292,96.195946 
	C93.141060,96.244644 91.326828,96.293343 89.100357,95.784004 
	C87.340500,94.806091 85.996277,94.036674 84.644737,94.023590 
	C76.438812,93.944168 68.231216,94.037148 59.591484,94.039215 
	C53.427200,94.336296 47.695618,94.666710 41.565765,95.039474 
	C38.744972,95.443642 36.322449,95.805473 33.899925,96.167305 
z"/>
<path fill="#796452" opacity="1.000000" stroke="none" 
	d="
M60.024178,94.072556 
	C68.231216,94.037148 76.438812,93.944168 84.644737,94.023590 
	C85.996277,94.036674 87.340500,94.806091 88.833229,95.589684 
	C81.907021,95.990417 74.835686,96.027428 67.054733,96.051422 
	C65.890259,96.077446 65.435417,96.116501 64.980568,96.155556 
	C64.544868,96.131622 64.109169,96.107681 62.971943,96.053192 
	C61.506550,96.037285 60.742683,96.051918 60.014652,95.986992 
	C60.050491,95.907425 60.115311,95.745552 60.098969,95.466736 
	C60.063148,94.816139 60.043663,94.444344 60.024178,94.072556 
z"/>
<path fill="#856848" opacity="1.000000" stroke="none" 
	d="
M108.092216,85.908005 
	C107.930901,86.398743 107.769585,86.889488 107.208862,87.870773 
	C105.674301,90.569092 103.422165,93.013863 108.101097,94.087425 
	C108.194664,94.166962 108.382698,94.324974 108.382698,94.324974 
	C107.140915,94.757538 105.899124,95.190102 104.330185,95.274979 
	C103.759201,94.271004 103.515366,93.614731 103.229828,92.582733 
	C104.429680,89.887207 105.671242,87.567390 107.170448,85.479141 
	C107.649467,85.776466 107.870842,85.842232 108.092216,85.908005 
z"/>
<path fill="#6E533C" opacity="1.000000" stroke="none" 
	d="
M103.271538,92.958450 
	C103.515366,93.614731 103.759201,94.271004 103.986435,95.191513 
	C103.969841,95.455750 104.024529,95.741402 103.641556,95.830719 
	C102.498878,95.987930 101.739166,96.055817 100.979454,96.123703 
	C100.544640,96.116005 100.109818,96.108307 99.006134,96.083862 
	C97.880386,96.119843 97.423508,96.172569 96.966621,96.225296 
	C96.519814,96.214149 96.073013,96.202995 95.290749,96.193893 
	C95.757301,95.491127 96.559311,94.786316 98.083359,94.036499 
	C100.294106,93.647148 101.782822,93.302803 103.271538,92.958450 
z"/>
<path fill="#856848" opacity="1.000000" stroke="none" 
	d="
M107.837753,87.827988 
	C108.291252,87.865166 108.744743,87.902344 109.537941,87.977798 
	C109.532997,89.922241 109.188354,91.828415 108.613205,94.029785 
	C108.382698,94.324974 108.194664,94.166962 108.087448,93.649643 
	C107.932739,91.364220 107.885246,89.596107 107.837753,87.827988 
z"/>
<path fill="#331D0E" opacity="1.000000" stroke="none" 
	d="
M101.104523,96.371422 
	C101.739166,96.055817 102.498878,95.987930 103.637329,95.976089 
	C103.087250,96.227798 102.158424,96.423470 101.104523,96.371422 
z"/>
<path fill="#331D0E" opacity="1.000000" stroke="none" 
	d="
M59.978813,96.066559 
	C60.742683,96.051918 61.506550,96.037285 62.646454,96.092377 
	C62.795258,96.646576 62.568031,97.131042 62.165775,97.821762 
	C61.990746,98.028015 61.497635,98.009987 61.125763,97.760422 
	C60.495529,97.029427 60.237171,96.547989 59.978813,96.066559 
z"/>
<path fill="#331D0E" opacity="1.000000" stroke="none" 
	d="
M97.067657,96.421806 
	C97.423508,96.172569 97.880386,96.119843 98.680832,96.109543 
	C98.405823,96.307419 97.787262,96.462868 97.067657,96.421806 
z"/>
<path fill="#331D0E" opacity="1.000000" stroke="none" 
	d="
M65.071579,96.362000 
	C65.435417,96.116501 65.890259,96.077446 66.683235,96.100273 
	C66.401772,96.297577 65.782181,96.433014 65.071579,96.362000 
z"/>
<path fill="#C8A476" opacity="1.000000" stroke="none" 
	d="
M137.911285,57.698669 
	C139.251053,58.837330 140.287964,59.858330 141.578552,61.063934 
	C139.483078,62.935108 137.133926,64.621681 134.425537,65.843613 
	C134.078171,64.334808 134.090042,63.290638 134.452606,62.197212 
	C137.593094,62.024174 137.055237,60.633743 135.596878,59.501141 
	C131.166336,56.060284 126.604889,52.787987 121.975708,49.107330 
	C118.992912,46.103088 115.994194,43.567669 113.327805,40.720963 
	C112.184204,39.500023 111.731476,37.631966 110.964851,36.057930 
	C114.715714,38.967834 118.466576,41.877743 122.513931,44.928864 
	C126.007568,47.948483 129.204712,50.826885 132.699188,53.857311 
	C134.533829,55.199894 136.071121,56.390450 137.911285,57.698669 
z"/>
<path fill="#A2805A" opacity="1.000000" stroke="none" 
	d="
M134.101913,62.246471 
	C134.090042,63.290638 134.078171,64.334808 134.071030,65.770523 
	C134.075760,66.162079 134.019363,66.086357 133.765320,66.160019 
	C133.011566,66.849007 132.511871,67.464333 132.012161,68.079659 
	C132.012161,68.079659 132.014954,68.011871 131.866730,68.063202 
	C131.546677,68.483070 131.374847,68.851593 131.203018,69.220116 
	C125.388748,73.194412 119.574471,77.168709 113.410568,80.719299 
	C116.594299,77.131218 120.152168,73.992836 123.602829,70.740707 
	C123.819778,70.536247 123.199570,69.443512 123.091400,68.457512 
	C124.902985,67.075424 126.591988,65.999863 128.588028,64.911110 
	C129.575424,64.247772 130.255783,63.597626 131.262848,62.916832 
	C132.427032,62.672951 133.264465,62.459709 134.101913,62.246471 
z"/>
<path fill="#211309" opacity="1.000000" stroke="none" 
	d="
M103.229828,92.582741 
	C101.782822,93.302803 100.294106,93.647148 98.410294,93.957199 
	C98.278969,92.205811 98.542740,90.488708 99.175949,88.275703 
	C101.078514,85.872231 102.611656,83.964661 104.378342,82.019104 
	C104.946747,81.935165 105.206940,81.770935 105.444046,81.470703 
	C105.495621,81.452980 105.524841,81.347916 105.786133,81.222855 
	C106.683708,80.670708 107.319977,80.243614 108.178688,80.024063 
	C109.230431,80.799896 110.059731,81.368179 110.889030,81.936470 
	C110.418785,82.525841 109.948547,83.115219 109.057602,83.757309 
	C108.062202,84.289215 107.487503,84.768402 106.912804,85.247581 
	C105.671242,87.567390 104.429680,89.887207 103.229828,92.582741 
z"/>
<path fill="#331D0E" opacity="1.000000" stroke="none" 
	d="
M111.179779,81.874672 
	C110.059731,81.368179 109.230431,80.799896 108.334007,79.725945 
	C113.106773,75.649437 116.823341,70.499146 122.968834,68.764038 
	C123.199570,69.443512 123.819778,70.536247 123.602829,70.740707 
	C120.152168,73.992836 116.594299,77.131218 113.036560,80.638885 
	C112.498299,81.259087 111.984413,81.535980 111.179779,81.874672 
z"/>
<path fill="#704D2A" opacity="1.000000" stroke="none" 
	d="
M107.717583,87.822723 
	C107.885246,89.596107 107.932739,91.364220 107.993881,93.570114 
	C103.422165,93.013863 105.674301,90.569092 107.083496,88.098495 
	C107.357536,87.835686 107.597412,87.817459 107.717583,87.822723 
z"/>
<path fill="#331D0E" opacity="1.000000" stroke="none" 
	d="
M107.170448,85.479141 
	C107.487503,84.768402 108.062202,84.289215 108.829330,83.925995 
	C108.809967,84.519287 108.598175,84.996613 108.239304,85.690979 
	C107.870842,85.842232 107.649467,85.776466 107.170448,85.479141 
z"/>
<path fill="#C8A476" opacity="1.000000" stroke="none" 
	d="
M132.345825,68.044418 
	C132.511871,67.464333 133.011566,66.849007 133.803009,66.131592 
	C133.623001,66.689400 133.151245,67.349289 132.345825,68.044418 
z"/>
<path fill="#C8A476" opacity="1.000000" stroke="none" 
	d="
M131.429169,69.080750 
	C131.374847,68.851593 131.546677,68.483070 131.900299,68.068100 
	C131.939835,68.328232 131.797577,68.634804 131.429169,69.080750 
z"/>
<path fill="#27180D" opacity="1.000000" stroke="none" 
	d="
M34.135307,96.464935 
	C36.322449,95.805473 38.744972,95.443642 41.857368,95.344467 
	C46.703281,95.789871 50.859318,95.972633 55.012794,96.461121 
	C55.003994,97.174294 54.997757,97.581726 54.991520,97.989166 
	C49.838520,97.987541 44.682446,98.086166 39.534237,97.928261 
	C37.802765,97.875160 36.091297,97.169815 34.135307,96.464935 
z"/>
<path fill="#A48566" opacity="1.000000" stroke="none" 
	d="
M26.008150,92.959717 
	C26.317156,93.442085 26.626160,93.924461 26.958595,94.697540 
	C25.282566,94.971931 23.583109,94.955620 21.460323,94.920349 
	C20.651545,94.447632 20.266092,93.993866 20.085312,93.218185 
	C21.318214,92.807037 22.346451,92.717812 23.704357,92.662979 
	C24.692068,92.784813 25.350109,92.872261 26.008150,92.959717 
z"/>
<path fill="#211309" opacity="1.000000" stroke="none" 
	d="
M55.421013,97.992218 
	C54.997757,97.581726 55.003994,97.174294 55.433498,96.391037 
	C57.276279,95.925331 58.695797,95.835442 60.115311,95.745552 
	C60.115311,95.745552 60.050491,95.907425 60.014652,95.986992 
	C60.237171,96.547989 60.495529,97.029427 60.879128,97.753784 
	C59.286415,97.996231 57.568462,97.995743 55.421013,97.992218 
z"/>
<path fill="#7F5E3F" opacity="1.000000" stroke="none" 
	d="
M23.374687,92.628586 
	C22.346451,92.717812 21.318214,92.807037 19.975498,92.937943 
	C19.484520,92.200775 19.308023,91.421936 19.399586,90.210152 
	C19.513346,88.840599 19.359047,87.903992 19.204746,86.967377 
	C19.228561,80.228516 19.252377,73.489655 19.743584,66.371643 
	C21.225094,66.044769 22.239214,66.097054 23.407566,66.480316 
	C23.572023,67.538467 23.582249,68.265640 23.226610,69.094406 
	C19.994068,71.408531 20.499336,72.993790 23.804186,74.424438 
	C23.781078,75.501381 23.720346,76.219124 23.352407,77.065216 
	C20.583298,79.453171 19.699318,81.534294 23.703342,83.456825 
	C23.590006,86.777405 23.482347,89.703003 23.374687,92.628586 
z"/>
<path fill="#B1895F" opacity="1.000000" stroke="none" 
	d="
M19.535954,52.762627 
	C19.518579,46.771526 19.501205,40.780422 19.820526,34.305473 
	C20.789698,33.545067 21.422173,33.268505 22.047762,33.290077 
	C22.336750,34.063362 22.632624,34.538509 23.034050,35.465462 
	C23.079782,42.606522 23.019962,49.295776 22.661995,55.967197 
	C22.164740,55.947041 21.965631,55.944721 21.640289,55.964397 
	C21.514057,55.986397 21.263540,56.040398 21.215534,55.712784 
	C20.623671,54.510990 20.079811,53.636806 19.535954,52.762627 
z"/>
<path fill="#AA865F" opacity="1.000000" stroke="none" 
	d="
M21.263540,56.040398 
	C21.263540,56.040398 21.514057,55.986397 21.753159,56.254444 
	C22.446686,58.136864 22.901114,59.751232 23.378136,61.648903 
	C23.538465,62.280251 23.676201,62.628296 23.702358,63.279163 
	C23.478298,64.437767 23.365816,65.293556 23.253332,66.149338 
	C22.239214,66.097054 21.225094,66.044769 19.841324,65.900146 
	C19.463421,62.908215 19.455168,60.008610 19.770052,56.646927 
	C20.483307,56.136696 20.873423,56.088547 21.263540,56.040398 
z"/>
<path fill="#7F5E3F" opacity="1.000000" stroke="none" 
	d="
M22.054647,32.991943 
	C21.422173,33.268505 20.789698,33.545067 19.815575,33.885525 
	C19.373356,33.477497 19.272779,33.005566 19.444729,32.159958 
	C20.149694,31.190018 20.582136,30.593756 21.014576,29.997494 
	C21.014576,29.997494 21.439297,29.939079 21.653259,29.953415 
	C22.086302,30.019245 22.305380,30.070736 22.925129,30.543808 
	C23.358032,31.654871 23.390266,32.344353 23.080746,33.016479 
	C22.510878,32.996731 22.282763,32.994335 22.054647,32.991943 
z"/>
<path fill="#7F5E3F" opacity="1.000000" stroke="none" 
	d="
M21.215534,55.712784 
	C20.873423,56.088547 20.483307,56.136696 19.802299,56.214176 
	C19.430779,55.366444 19.350145,54.489376 19.402733,53.187469 
	C20.079811,53.636806 20.623671,54.510990 21.215534,55.712784 
z"/>
<path fill="#73502D" opacity="1.000000" stroke="none" 
	d="
M19.163799,87.348999 
	C19.359047,87.903992 19.513346,88.840599 19.427254,89.902740 
	C19.165525,89.262390 19.144188,88.496506 19.163799,87.348999 
z"/>
<path fill="#73502D" opacity="1.000000" stroke="none" 
	d="
M20.713562,30.065044 
	C20.582136,30.593756 20.149694,31.190018 19.466671,31.915382 
	C19.614906,31.407188 20.013725,30.769892 20.713562,30.065044 
z"/>
<path fill="#51270E" opacity="1.000000" stroke="none" 
	d="
M33.999855,31.101057 
	C34.158016,31.041136 34.316181,30.981215 35.110138,30.922890 
	C36.819687,30.906628 37.893448,30.888769 39.376785,30.914894 
	C40.879189,30.910889 41.972019,30.862902 43.529552,30.815422 
	C50.568920,30.857367 57.146088,31.004805 63.716099,30.849379 
	C65.005562,30.818876 66.267311,29.617317 67.541847,28.955856 
	C67.541847,28.955858 67.649094,29.021074 67.623489,29.003860 
	C68.890038,29.659306 70.171700,30.886473 71.476128,30.911167 
	C78.045204,31.035517 84.620209,30.846188 92.020317,30.705334 
	C93.564262,30.744862 94.281036,30.846022 94.999084,31.286694 
	C95.002869,32.078903 95.005363,32.531597 94.702789,33.196804 
	C92.917336,33.422085 91.436966,33.434856 89.587875,33.299271 
	C75.484795,32.846004 61.750439,32.541100 47.623932,32.168839 
	C46.442738,32.165150 45.653687,32.228813 44.495064,32.269806 
	C43.144650,32.349625 42.163811,32.452114 40.751976,32.406921 
	C38.215946,32.129528 36.110920,31.999817 34.004337,31.677841 
	C34.002785,31.485580 33.999855,31.101057 33.999855,31.101057 
z"/>
<path fill="#CAA178" opacity="1.000000" stroke="none" 
	d="
M67.038063,28.950930 
	C66.267311,29.617317 65.005562,30.818876 63.716099,30.849379 
	C57.146088,31.004805 50.568920,30.857367 43.513298,30.584808 
	C43.032341,30.353689 42.941383,29.900331 42.941383,29.900330 
	C48.816093,29.579817 54.689514,29.231936 60.566238,28.954037 
	C62.551273,28.860167 64.544693,28.943600 67.038063,28.950930 
z"/>
<path fill="#AB8158" opacity="1.000000" stroke="none" 
	d="
M42.698349,29.798046 
	C42.941383,29.900331 43.032341,30.353689 43.048595,30.584301 
	C41.972019,30.862902 40.879189,30.910889 39.393894,30.600355 
	C39.004787,29.821545 39.008144,29.401257 39.011501,28.980968 
	C39.491886,28.937443 39.972271,28.893915 40.812855,28.810387 
	C41.600471,29.078840 42.027893,29.387300 42.698349,29.798046 
z"/>
<path fill="#CDA676" opacity="1.000000" stroke="none" 
	d="
M94.997803,30.947182 
	C94.281036,30.846022 93.564262,30.744862 92.486450,30.599529 
	C92.168152,30.233250 92.163925,29.911760 92.102386,29.349789 
	C96.089149,29.057838 100.086273,29.006992 104.540802,29.033285 
	C104.999481,29.806614 105.000740,30.502800 104.811119,31.795490 
	C104.409691,32.969669 104.199135,33.547352 103.707520,33.987495 
	C102.642952,33.168320 101.859451,32.486683 100.902916,31.492508 
	C99.639633,30.962667 98.549393,30.745359 97.211258,30.576714 
	C96.308174,30.732643 95.652985,30.839912 94.997803,30.947182 
z"/>
<path fill="#AA8150" opacity="1.000000" stroke="none" 
	d="
M110.932701,35.760979 
	C111.731476,37.631966 112.184204,39.500023 113.327805,40.720963 
	C115.994194,43.567669 118.992912,46.103088 121.964417,49.436089 
	C122.051971,50.327198 122.032127,50.546829 121.720535,50.533516 
	C116.616402,46.543465 111.804016,42.786362 107.172974,38.780411 
	C107.213966,37.348907 107.073616,36.166256 107.311493,34.994919 
	C108.443901,34.970615 109.198067,34.934998 109.952240,34.899380 
	C109.952240,34.899380 110.364487,34.882492 110.570786,34.881027 
	C110.818245,35.074387 110.859398,35.269211 110.932701,35.760979 
z"/>
<path fill="#BD956D" opacity="1.000000" stroke="none" 
	d="
M38.605843,28.958080 
	C39.008144,29.401257 39.004787,29.821545 38.984322,30.556370 
	C37.893448,30.888769 36.819687,30.906628 35.350060,30.840431 
	C34.958881,30.393131 34.963570,30.029886 34.961990,29.395252 
	C36.037209,29.060972 37.118694,28.998081 38.605843,28.958080 
z"/>
<path fill="#AA8150" opacity="1.000000" stroke="none" 
	d="
M103.988586,34.125031 
	C104.199135,33.547352 104.409691,32.969669 104.806076,32.143684 
	C105.464737,32.120655 105.937553,32.345932 106.514816,33.003155 
	C106.525520,33.970249 106.431770,34.505402 106.004639,35.047546 
	C105.451241,35.036930 105.231224,35.019321 104.771423,34.953346 
	C104.223183,34.733734 104.042168,34.473751 103.988586,34.125031 
z"/>
<path fill="#CDA676" opacity="1.000000" stroke="none" 
	d="
M106.338020,35.040550 
	C106.431770,34.505402 106.525520,33.970249 106.710907,33.178787 
	C107.724586,33.415123 108.646614,33.907764 109.760445,34.649895 
	C109.198067,34.934998 108.443901,34.970615 107.162842,35.006836 
	C106.635956,35.007442 106.338020,35.040550 106.338020,35.040550 
z"/>
<path fill="#40200A" opacity="1.000000" stroke="none" 
	d="
M23.422499,33.033836 
	C23.390266,32.344353 23.358032,31.654871 23.252443,30.626389 
	C25.311852,30.268511 27.444616,30.249636 29.797689,30.839762 
	C29.998692,31.839010 29.979382,32.229256 29.690777,32.763878 
	C28.961147,33.280369 28.500814,33.652489 27.780502,34.314892 
	C27.364904,37.729797 27.209288,40.854416 26.982859,44.440498 
	C26.737509,50.966816 26.562971,57.031673 26.068504,63.082932 
	C25.103695,63.038334 24.458815,63.007336 23.813936,62.976341 
	C23.676201,62.628296 23.538465,62.280251 23.534580,61.264072 
	C23.432335,59.058971 23.196239,57.521999 22.960144,55.985031 
	C23.019962,49.295776 23.079782,42.606522 23.197863,35.312920 
	C23.311583,34.150330 23.367041,33.592083 23.422499,33.033836 
z"/>
<path fill="#4C2A13" opacity="1.000000" stroke="none" 
	d="
M29.960073,32.619499 
	C29.979382,32.229256 29.998692,31.839010 30.038734,31.156429 
	C31.112837,30.897743 32.166206,30.931393 33.609718,31.033051 
	C33.999855,31.101057 34.002785,31.485580 33.676449,31.788910 
	C32.220100,32.267994 31.090086,32.443748 29.960073,32.619499 
z"/>
<path fill="#8E6B45" opacity="1.000000" stroke="none" 
	d="
M26.388435,63.096531 
	C26.562971,57.031673 26.737509,50.966816 27.278128,44.555298 
	C28.416714,45.453754 29.189220,46.698875 29.965338,48.375366 
	C29.943207,50.526493 29.917465,52.246246 29.647816,54.237740 
	C29.747122,58.329063 30.090336,62.148643 30.313309,66.361847 
	C30.151308,67.842178 30.109547,68.928894 29.992641,70.453621 
	C29.976440,73.256660 30.035385,75.621689 30.044191,78.444977 
	C30.005857,82.573799 30.017662,86.244362 30.029469,89.914917 
	C29.152126,88.761406 28.274784,87.607887 27.127016,85.834747 
	C26.885447,83.770210 26.914303,82.325302 27.105316,80.830826 
	C27.156479,80.567772 27.045483,80.354294 26.900766,79.704117 
	C26.896265,77.808937 26.925484,76.350456 27.113293,74.836685 
	C27.160179,74.566315 27.048475,74.351234 26.905701,73.721519 
	C26.885851,72.475739 26.897074,71.644592 27.057789,70.782196 
	C27.207281,70.750961 27.289152,70.388489 27.289152,70.388489 
	C27.289152,70.388489 26.891565,70.227661 26.842617,69.780487 
	C26.658592,67.254379 26.523514,65.175453 26.388435,63.096531 
z"/>
<path fill="#AC8C69" opacity="1.000000" stroke="none" 
	d="
M42.845097,89.722626 
	C42.437027,89.709976 42.028954,89.697319 41.323982,89.186340 
	C40.993080,87.857330 40.959076,87.026642 41.261055,86.124527 
	C42.398590,85.357544 43.200134,84.661995 44.000046,83.983070 
	C43.998413,83.999687 43.965015,83.999069 44.295860,83.913208 
	C46.751209,81.555382 48.875713,79.283401 51.330318,76.993179 
	C52.101162,76.971466 52.541904,76.967987 53.277050,76.990417 
	C53.767864,77.031937 53.964272,77.047531 54.061691,77.384415 
	C52.955326,79.864929 53.116726,81.275696 56.355301,80.983841 
	C57.809223,81.657654 58.933445,82.274643 59.940804,83.148544 
	C59.578869,83.913902 59.333801,84.422363 59.045479,84.973259 
	C59.002224,85.015694 58.920475,85.105156 58.601036,85.039307 
	C54.797920,83.846855 53.604782,85.932022 52.951752,88.774536 
	C50.575245,89.116943 48.198742,89.459343 45.292961,89.558243 
	C44.124157,89.450706 43.484627,89.586670 42.845097,89.722626 
M46.522892,87.499229 
	C46.522892,87.499229 46.485584,87.513046 46.522892,87.499229 
z"/>
<path fill="#271003" opacity="1.000000" stroke="none" 
	d="
M26.954704,74.891968 
	C26.925484,76.350456 26.896265,77.808937 26.894503,79.888992 
	C26.921961,80.510567 26.943159,80.880402 26.943159,80.880402 
	C26.914303,82.325302 26.885447,83.770210 26.851646,85.649734 
	C26.561983,88.107124 26.277266,90.129898 26.000347,92.556190 
	C25.350109,92.872261 24.692068,92.784813 23.704357,92.662979 
	C23.482347,89.703003 23.590006,86.777405 23.786478,83.023560 
	C23.803398,80.442497 23.731504,78.689682 23.659611,76.936867 
	C23.720346,76.219124 23.781078,75.501381 23.888252,74.058838 
	C23.820620,71.886971 23.706547,70.439888 23.592474,68.992813 
	C23.582249,68.265640 23.572023,67.538467 23.407566,66.480316 
	C23.365816,65.293556 23.478298,64.437767 23.702358,63.279160 
	C24.458815,63.007336 25.103695,63.038334 26.068504,63.082932 
	C26.523514,65.175453 26.658592,67.254379 26.834675,69.927010 
	C26.875679,70.520714 26.908295,70.813438 26.908295,70.813438 
	C26.897074,71.644592 26.885851,72.475739 26.898031,73.910606 
	C26.921432,74.514320 26.954702,74.891968 26.954704,74.891968 
z"/>
<path fill="#A9865F" opacity="1.000000" stroke="none" 
	d="
M104.144791,82.057083 
	C102.611656,83.964661 101.078514,85.872231 99.277763,87.989609 
	C98.289589,88.172882 97.569038,88.146362 96.131500,88.075287 
	C94.933449,88.020111 94.452385,88.009491 93.728531,87.921204 
	C91.783226,87.261574 90.080719,86.679619 88.084808,85.952950 
	C87.197289,85.223671 86.603172,84.639114 85.871429,83.806175 
	C85.524017,82.350838 85.314224,81.143883 85.436958,80.004349 
	C86.858421,80.382256 87.947357,80.692741 89.310646,81.163635 
	C92.557854,83.858841 94.666412,81.386398 96.989334,80.401398 
	C97.997322,81.502083 98.918228,82.721748 99.994041,82.878548 
	C101.309769,83.070305 102.755363,82.371056 104.144791,82.057083 
z"/>
<path fill="#A38360" opacity="1.000000" stroke="none" 
	d="
M40.925072,86.195953 
	C40.959076,87.026642 40.993080,87.857330 41.027359,89.105392 
	C39.545044,89.610519 38.062458,89.698273 36.148857,89.340775 
	C35.487183,85.270187 35.256527,81.644859 35.046570,78.045929 
	C35.067265,78.072342 35.129436,78.098419 35.459755,78.121567 
	C37.195446,78.766144 38.600815,79.387573 40.003120,80.004601 
	C40.000053,80.000198 39.991726,79.994545 39.939907,80.217087 
	C41.247063,81.626114 42.606037,82.812592 43.965015,83.999069 
	C43.965015,83.999069 43.998413,83.999687 43.676125,83.994095 
	C42.544250,84.724319 41.734661,85.460136 40.925072,86.195953 
z"/>
<path fill="#CAAC8A" opacity="1.000000" stroke="none" 
	d="
M35.025871,78.019516 
	C35.256527,81.644859 35.487183,85.270187 35.788742,89.221207 
	C34.195164,89.694778 32.530682,89.842667 30.447834,89.952728 
	C30.017662,86.244362 30.005857,82.573799 30.453785,78.445877 
	C32.284302,77.998840 33.655087,78.009178 35.025871,78.019516 
z"/>
<path fill="#9A7952" opacity="1.000000" stroke="none" 
	d="
M53.409981,88.839493 
	C53.604782,85.932022 54.797920,83.846855 58.654388,85.084496 
	C59.027176,85.195534 59.237629,85.150894 59.237629,85.150894 
	C59.237629,85.150894 59.088730,84.930824 59.088730,84.930824 
	C59.333801,84.422363 59.578869,83.913902 60.254944,83.169266 
	C61.105068,82.912842 61.524181,82.892586 62.028378,83.100433 
	C63.760822,84.779625 65.408188,86.230713 66.795486,87.886948 
	C65.984879,88.458611 65.434334,88.825150 64.883789,89.191681 
	C61.211926,89.095932 57.540066,89.000183 53.409981,88.839493 
z"/>
<path fill="#C0A280" opacity="1.000000" stroke="none" 
	d="
M88.378204,86.097672 
	C90.080719,86.679619 91.783226,87.261574 93.724686,88.243881 
	C93.984268,88.858391 94.004913,89.072540 93.623138,89.323853 
	C92.159073,89.497520 91.097427,89.634033 90.035782,89.770538 
	C84.616371,89.665825 79.196960,89.561119 73.381332,89.134933 
	C73.009293,88.560074 73.033485,88.306694 73.519073,88.047264 
	C76.424080,88.034988 78.901161,88.276711 81.301903,87.952759 
	C83.700439,87.629097 86.022575,86.739296 88.378204,86.097672 
z"/>
<path fill="#6A5543" opacity="1.000000" stroke="none" 
	d="
M60.098969,95.466736 
	C58.695797,95.835442 57.276279,95.925331 55.436062,96.085312 
	C50.859318,95.972633 46.703281,95.789871 42.255638,95.302116 
	C47.695618,94.666710 53.427200,94.336296 59.591484,94.039215 
	C60.043663,94.444344 60.063148,94.816139 60.098969,95.466736 
z"/>
<path fill="#715639" opacity="1.000000" stroke="none" 
	d="
M73.057686,88.053307 
	C73.033485,88.306694 73.009293,88.560074 72.905121,89.186844 
	C70.378242,89.595253 67.931335,89.630264 65.184113,89.428482 
	C65.434334,88.825150 65.984879,88.458611 67.080673,87.909645 
	C69.085365,87.497719 70.544792,87.268227 72.188751,87.198212 
	C72.608673,87.582413 72.836807,87.814285 73.057686,88.053307 
z"/>
<path fill="#211309" opacity="1.000000" stroke="none" 
	d="
M90.056076,90.071831 
	C91.097427,89.634033 92.159073,89.497520 93.725296,89.510056 
	C94.466331,89.819832 94.721916,89.939850 94.996628,90.019150 
	C94.600288,91.210075 94.203949,92.400993 93.404884,94.802025 
	C91.923027,92.830284 90.999702,91.601700 90.056076,90.071831 
z"/>
<path fill="#A38360" opacity="1.000000" stroke="none" 
	d="
M43.108459,89.813789 
	C43.484627,89.586670 44.124157,89.450706 44.888290,89.527206 
	C44.465870,89.794769 43.918842,89.849861 43.108459,89.813789 
z"/>
<path fill="#715639" opacity="1.000000" stroke="none" 
	d="
M95.189270,89.819519 
	C94.721916,89.939850 94.466331,89.819832 94.127716,89.472885 
	C94.004913,89.072540 93.984268,88.858391 93.967476,88.321556 
	C94.452385,88.009491 94.933449,88.020111 95.770721,88.089386 
	C95.878586,88.638664 95.630249,89.129280 95.189270,89.819519 
z"/>
<path fill="#6A421E" opacity="1.000000" stroke="none" 
	d="
M122.012291,50.766457 
	C122.032127,50.546829 122.051971,50.327198 122.083115,49.778805 
	C126.604889,52.787987 131.166336,56.060284 135.596878,59.501141 
	C137.055237,60.633743 137.593094,62.024174 134.452606,62.197212 
	C133.264465,62.459709 132.427032,62.672951 131.276672,62.926414 
	C130.963776,62.966640 130.982574,62.972935 130.963654,62.656868 
	C130.300354,61.596474 129.655975,60.852146 128.758514,59.918900 
	C127.615097,58.874142 126.724777,58.018299 125.931213,56.937733 
	C125.349190,56.147301 124.670418,55.581596 123.843597,54.818398 
	C123.471535,54.374836 123.212303,54.174297 122.972641,54.074173 
	C123.027435,54.129063 122.933830,54.252747 122.870644,53.952988 
	C122.542404,52.690968 122.277344,51.728714 122.012291,50.766457 
z"/>
<path fill="#B69062" opacity="1.000000" stroke="none" 
	d="
M104.378349,82.019104 
	C102.755363,82.371056 101.309769,83.070305 99.994041,82.878548 
	C98.918228,82.721748 97.997322,81.502083 97.213409,80.115936 
	C98.915550,78.644287 100.451797,77.873596 101.900261,76.963226 
	C104.959251,75.040649 107.972343,73.045044 111.247414,70.876099 
	C112.665329,69.831696 113.840103,68.990601 115.292618,68.062012 
	C116.005798,66.735565 116.441231,65.496605 116.876663,64.257645 
	C117.064125,64.680733 117.251595,65.103813 117.439056,65.526901 
	C120.009102,64.690628 122.579155,63.854355 125.555923,63.009392 
	C127.044022,63.093105 128.125412,63.185505 129.086029,63.484138 
	C128.737167,64.101677 128.509079,64.512993 128.280991,64.924301 
	C126.591988,65.999863 124.902985,67.075424 123.091400,68.457512 
	C116.823341,70.499146 113.106773,75.649437 108.111565,79.518402 
	C107.319977,80.243614 106.683708,80.670708 105.717659,81.159744 
	C105.387886,81.221680 105.158577,81.244209 105.158577,81.244209 
	C105.158577,81.244209 105.392479,81.488426 105.392479,81.488426 
	C105.206940,81.770935 104.946747,81.935165 104.378349,82.019104 
M104.526154,78.498093 
	C104.526154,78.498093 104.486801,78.511894 104.526154,78.498093 
z"/>
<path fill="#5F3A1C" opacity="1.000000" stroke="none" 
	d="
M128.588028,64.911110 
	C128.509079,64.512993 128.737167,64.101677 129.076385,63.469292 
	C129.187500,63.248219 129.163437,63.225029 129.465454,63.174911 
	C130.172516,63.074173 130.577545,63.023552 130.982574,62.972931 
	C130.982574,62.972935 130.963776,62.966640 130.949951,62.957058 
	C130.255783,63.597626 129.575424,64.247772 128.588028,64.911110 
z"/>
<path fill="#73502D" opacity="1.000000" stroke="none" 
	d="
M23.352406,77.065216 
	C23.731504,78.689682 23.803398,80.442497 23.792156,82.628571 
	C19.699318,81.534294 20.583298,79.453171 23.352406,77.065216 
z"/>
<path fill="#73502D" opacity="1.000000" stroke="none" 
	d="
M23.226610,69.094406 
	C23.706547,70.439888 23.820620,71.886971 23.850626,73.699646 
	C20.499336,72.993790 19.994068,71.408531 23.226610,69.094406 
z"/>
<path fill="#73502D" opacity="1.000000" stroke="none" 
	d="
M22.661995,55.967197 
	C23.196239,57.521999 23.432335,59.058971 23.511986,60.980774 
	C22.901114,59.751232 22.446686,58.136864 21.879391,56.232445 
	C21.965631,55.944721 22.164740,55.947041 22.661995,55.967197 
z"/>
<path fill="#73502D" opacity="1.000000" stroke="none" 
	d="
M23.080746,33.016479 
	C23.367041,33.592083 23.311583,34.150330 23.092312,34.861115 
	C22.632624,34.538509 22.336750,34.063362 22.047762,33.290077 
	C22.282763,32.994335 22.510878,32.996731 23.080746,33.016479 
z"/>
<path fill="#F2CF95" opacity="1.000000" stroke="none" 
	d="
M89.956589,33.447632 
	C91.436966,33.434856 92.917336,33.422085 94.686287,33.335091 
	C94.974861,33.260872 94.983414,33.539249 95.136803,33.652504 
	C95.514793,33.896049 95.756653,33.969524 96.008041,33.993015 
	C96.000305,33.999847 96.018349,33.987934 96.032333,34.335732 
	C96.374832,35.792011 96.703339,36.900490 96.636047,38.021889 
	C93.175316,38.903831 90.110382,39.772854 88.238045,40.303734 
	C88.474174,42.413086 88.527168,43.830433 88.830879,45.191853 
	C88.977493,45.849052 89.595734,46.401039 90.000214,47.000332 
	C90.000000,47.000000 89.999390,46.999569 90.230972,47.267597 
	C90.969902,49.334663 91.477249,51.133698 91.609589,52.870373 
	C88.745270,53.071575 84.229393,49.185047 84.592484,55.827110 
	C83.186714,54.858032 82.081223,53.966682 81.109291,52.757607 
	C80.421692,48.114590 82.263916,42.862480 77.162811,39.844891 
	C77.909698,38.228565 78.442841,36.868282 79.428619,35.439911 
	C83.239700,34.730427 86.598145,34.089031 89.956589,33.447632 
z"/>
<path fill="#AD8050" opacity="1.000000" stroke="none" 
	d="
M89.587875,33.299271 
	C86.598145,34.089031 83.239700,34.730427 78.975349,35.336449 
	C74.051231,35.453869 70.033012,35.606659 65.602257,35.606911 
	C62.119930,35.672520 59.050152,35.890667 55.557487,36.066216 
	C53.437901,36.103512 51.741196,36.183407 49.665939,36.183823 
	C48.535450,35.927280 47.783520,35.750214 47.023792,35.385048 
	C47.015999,35.196945 46.980270,34.822109 47.055016,34.554024 
	C47.425201,33.602692 47.720642,32.919441 48.016083,32.236195 
	C61.750439,32.541100 75.484795,32.846004 89.587875,33.299271 
z"/>
<path fill="#4C2A13" opacity="1.000000" stroke="none" 
	d="
M121.720535,50.533516 
	C122.277344,51.728714 122.542404,52.690968 122.498383,54.028145 
	C120.431229,53.636204 118.673141,52.869343 116.639282,51.897594 
	C111.910339,47.802406 107.457161,43.912109 102.715416,39.848343 
	C100.290680,37.779228 98.154518,35.883579 96.018349,33.987934 
	C96.018349,33.987934 96.000305,33.999847 95.927658,33.746418 
	C95.564476,33.508408 95.273949,33.523830 94.983414,33.539249 
	C94.983414,33.539249 94.974861,33.260872 94.991364,33.122581 
	C95.005363,32.531597 95.002869,32.078903 94.999084,31.286694 
	C95.652985,30.839912 96.308174,30.732643 97.424118,30.843590 
	C98.948570,31.309549 100.012268,31.557295 101.075958,31.805042 
	C101.859451,32.486683 102.642952,33.168320 103.707520,33.987495 
	C104.042168,34.473751 104.223183,34.733734 104.779243,35.256454 
	C105.681770,36.748367 106.336700,37.888809 106.991638,39.029255 
	C111.804016,42.786362 116.616402,46.543465 121.720535,50.533516 
z"/>
<path fill="#BC9159" opacity="1.000000" stroke="none" 
	d="
M46.980270,34.822109 
	C46.980270,34.822109 47.015999,35.196945 46.831425,35.640373 
	C46.113220,36.712410 45.579586,37.341015 44.814919,37.652359 
	C40.675652,36.796883 36.767422,36.258671 33.029404,35.432930 
	C35.860741,34.281807 38.521858,33.418205 41.182976,32.554604 
	C42.163811,32.452114 43.144650,32.349625 44.550701,32.568130 
	C45.644035,33.533455 46.312153,34.177780 46.980270,34.822109 
z"/>
<path fill="#976B3F" opacity="1.000000" stroke="none" 
	d="
M40.751976,32.406925 
	C38.521858,33.418205 35.860741,34.281807 32.670475,35.448875 
	C31.421669,35.728184 30.702013,35.704018 29.820438,35.480801 
	C29.119177,34.862701 28.579830,34.443653 28.040483,34.024605 
	C28.500814,33.652489 28.961147,33.280369 29.690777,32.763878 
	C31.090086,32.443748 32.220100,32.267994 33.678001,31.981171 
	C36.110920,31.999817 38.215946,32.129528 40.751976,32.406925 
z"/>
<path fill="#976B3F" opacity="1.000000" stroke="none" 
	d="
M47.055016,34.554024 
	C46.312153,34.177780 45.644035,33.533455 44.920280,32.590805 
	C45.653687,32.228813 46.442738,32.165150 47.623932,32.168839 
	C47.720642,32.919441 47.425201,33.602692 47.055016,34.554024 
z"/>
<path fill="#AB8358" opacity="1.000000" stroke="none" 
	d="
M100.902916,31.492508 
	C100.012268,31.557295 98.948570,31.309549 97.672012,30.794930 
	C98.549393,30.745359 99.639633,30.962667 100.902916,31.492508 
z"/>
<path fill="#C8A476" opacity="1.000000" stroke="none" 
	d="
M107.172981,38.780403 
	C106.336700,37.888809 105.681770,36.748367 105.019020,35.304817 
	C105.231224,35.019321 105.451241,35.036930 106.004639,35.047546 
	C106.338020,35.040550 106.635956,35.007442 106.784607,34.995522 
	C107.073616,36.166256 107.213966,37.348907 107.172981,38.780403 
z"/>
<path fill="#B0895A" opacity="1.000000" stroke="none" 
	d="
M27.780502,34.314892 
	C28.579830,34.443653 29.119177,34.862701 29.841915,35.862583 
	C30.217056,40.235035 30.408804,44.026657 30.442249,47.856834 
	C30.283945,47.895390 29.961725,47.943996 29.961725,47.943996 
	C29.189220,46.698875 28.416714,45.453754 27.348940,44.093834 
	C27.209288,40.854416 27.364904,37.729797 27.780502,34.314892 
z"/>
<path fill="#D4AD7C" opacity="1.000000" stroke="none" 
	d="
M30.433550,65.968224 
	C30.090336,62.148643 29.747122,58.329063 29.914579,54.358322 
	C30.931992,54.499378 31.438734,54.791599 31.994190,55.401421 
	C32.695190,56.485317 33.347473,57.251606 34.000458,58.415878 
	C33.308971,64.086571 36.458488,63.798145 39.866417,63.251328 
	C39.485111,64.370308 39.230061,65.190849 38.701813,66.087280 
	C37.942371,66.450447 37.456135,66.737717 36.600815,67.024239 
	C35.493576,67.019363 34.755424,67.015244 33.749035,66.832733 
	C32.465050,66.425636 31.449301,66.196930 30.433550,65.968224 
z"/>
<path fill="#D6B68D" opacity="1.000000" stroke="none" 
	d="
M34.017269,67.011124 
	C34.755424,67.015244 35.493576,67.019363 36.763466,67.203003 
	C37.520306,67.614578 37.763523,67.825783 37.826992,68.250870 
	C36.795895,71.689873 35.962666,74.894150 35.129436,78.098419 
	C35.129436,78.098419 35.067265,78.072342 35.046570,78.045929 
	C33.655087,78.009178 32.284302,77.998840 30.503922,77.987610 
	C30.035385,75.621689 29.976440,73.256660 30.260525,70.415520 
	C31.822973,69.939407 33.042397,69.939407 34.499222,69.939407 
	C34.322071,68.863045 34.169670,67.937080 34.017269,67.011124 
z"/>
<path fill="#EECA94" opacity="1.000000" stroke="none" 
	d="
M31.945475,55.083817 
	C31.438734,54.791599 30.931992,54.499378 30.158485,54.086578 
	C29.917465,52.246246 29.943207,50.526493 29.965338,48.375366 
	C29.961725,47.943996 30.283945,47.895390 30.857719,47.896957 
	C32.960007,48.271763 34.488525,48.644993 35.865002,49.367424 
	C35.501125,51.491959 35.289291,53.267300 35.062820,55.045464 
	C35.048183,55.048283 35.043987,55.077793 34.656883,55.062164 
	C33.495010,55.058960 32.720242,55.071392 31.945475,55.083817 
z"/>
<path fill="#CFAA7B" opacity="1.000000" stroke="none" 
	d="
M33.749035,66.832733 
	C34.169670,67.937080 34.322071,68.863045 34.499222,69.939407 
	C33.042397,69.939407 31.822973,69.939407 30.335670,69.977509 
	C30.109547,68.928894 30.151308,67.842178 30.313309,66.361847 
	C31.449301,66.196930 32.465050,66.425636 33.749035,66.832733 
z"/>
<path fill="#40200A" opacity="1.000000" stroke="none" 
	d="
M27.057789,70.782196 
	C26.908295,70.813438 26.875679,70.520714 26.883621,70.374191 
	C26.891565,70.227661 27.289152,70.388489 27.289152,70.388489 
	C27.289152,70.388489 27.207281,70.750961 27.057789,70.782196 
z"/>
<path fill="#40200A" opacity="1.000000" stroke="none" 
	d="
M27.113293,74.836685 
	C26.954702,74.891968 26.921432,74.514320 26.929104,74.325233 
	C27.048475,74.351234 27.160179,74.566315 27.113293,74.836685 
z"/>
<path fill="#331D0E" opacity="1.000000" stroke="none" 
	d="
M27.105316,80.830826 
	C26.943159,80.880402 26.921961,80.510567 26.928225,80.325684 
	C27.045483,80.354294 27.156479,80.567772 27.105316,80.830826 
z"/>
<path fill="#BE9C72" opacity="1.000000" stroke="none" 
	d="
M35.459755,78.121567 
	C35.962666,74.894150 36.795895,71.689873 38.083099,68.240395 
	C38.707748,67.983757 38.878418,67.972328 39.408104,67.894821 
	C42.491798,68.633904 45.216476,69.439064 47.929359,70.616348 
	C48.018803,73.470222 45.739239,77.170509 51.000214,77.011421 
	C48.875713,79.283401 46.751209,81.555382 44.295860,83.913208 
	C42.606037,82.812592 41.247063,81.626114 39.981674,80.195724 
	C40.075256,79.951805 40.006184,80.009003 40.006184,80.009003 
	C38.600815,79.387573 37.195446,78.766144 35.459755,78.121567 
z"/>
<path fill="#513218" opacity="1.000000" stroke="none" 
	d="
M56.025597,80.927025 
	C53.116726,81.275696 52.955326,79.864929 54.272926,77.173927 
	C55.011475,75.753563 55.439800,74.864967 56.138260,73.765701 
	C58.337219,70.356430 60.266033,67.157837 62.181358,63.564781 
	C60.902317,58.430111 59.636776,53.689896 58.498032,48.588112 
	C59.130325,47.710403 59.635826,47.194271 60.151184,47.001602 
	C60.812317,48.160770 61.463589,48.996471 62.106583,50.239388 
	C62.947582,55.366520 62.975552,60.664589 69.671120,61.655159 
	C69.729599,62.693546 69.724342,63.390770 69.609482,64.234001 
	C69.352280,64.573875 69.196068,64.760513 68.667763,64.964432 
	C64.209274,69.958420 60.114246,74.927917 56.021946,80.154800 
	C56.024982,80.583801 56.025288,80.755409 56.025597,80.927025 
z"/>
<path fill="#291508" opacity="1.000000" stroke="none" 
	d="
M56.355301,80.983841 
	C56.025288,80.755409 56.024982,80.583801 56.377464,80.209961 
	C58.082634,79.635864 59.435005,79.264008 61.120792,78.841805 
	C64.110062,77.882378 63.783089,76.413910 62.215336,74.617271 
	C62.211700,74.521111 62.334919,74.373268 62.643707,74.534973 
	C64.465805,74.922157 66.744156,75.888992 67.364342,75.248985 
	C70.619019,71.890320 75.648117,72.957626 79.378563,70.094101 
	C82.938126,69.440857 86.118233,68.842468 89.026108,68.453583 
	C83.828415,71.414093 78.902954,74.165115 73.729271,76.963127 
	C73.331749,77.087929 73.182457,77.165733 72.778763,77.271133 
	C71.964989,77.684265 71.405617,78.069801 70.460533,78.469162 
	C67.364311,79.946106 64.653801,81.409218 61.943295,82.872337 
	C61.524181,82.892586 61.105068,82.912842 60.371811,82.912369 
	C58.933445,82.274643 57.809223,81.657654 56.355301,80.983841 
z"/>
<path fill="#CCAC84" opacity="1.000000" stroke="none" 
	d="
M62.194847,63.959236 
	C60.266033,67.157837 58.337219,70.356430 55.856979,73.722198 
	C54.531250,74.914413 53.756950,75.939453 52.982647,76.964500 
	C52.541904,76.967987 52.101162,76.971466 51.330315,76.993179 
	C45.739239,77.170509 48.018803,73.470222 48.129959,70.392563 
	C48.859634,69.526672 49.376911,69.256683 50.219398,69.048660 
	C52.303165,69.435577 54.716724,70.865158 53.982841,66.993172 
	C53.942532,66.780487 55.240379,66.314178 56.272812,65.893616 
	C58.485126,65.200615 60.339989,64.579926 62.194847,63.959236 
z"/>
<path fill="#BE9C72" opacity="1.000000" stroke="none" 
	d="
M53.277050,76.990417 
	C53.756950,75.939453 54.531250,74.914413 55.586838,73.932869 
	C55.439800,74.864967 55.011475,75.753563 54.371910,76.852646 
	C53.964272,77.047531 53.767864,77.031937 53.277050,76.990417 
z"/>
<path fill="#BE9C72" opacity="1.000000" stroke="none" 
	d="
M41.261055,86.124527 
	C41.734661,85.460136 42.544250,84.724319 43.677757,83.977478 
	C43.200134,84.661995 42.398590,85.357544 41.261055,86.124527 
z"/>
<path fill="#A38360" opacity="1.000000" stroke="none" 
	d="
M46.504238,87.506134 
	C46.485584,87.513046 46.522892,87.499229 46.504238,87.506134 
z"/>
<path fill="#BC9466" opacity="1.000000" stroke="none" 
	d="
M111.004272,71.079399 
	C107.972343,73.045044 104.959251,75.040649 101.900261,76.963226 
	C100.451797,77.873596 98.915550,78.644287 97.194992,79.763710 
	C94.666412,81.386398 92.557854,83.858841 89.170456,80.866997 
	C88.297691,79.940842 87.742668,79.532745 87.400856,78.990295 
	C86.627945,77.763718 85.960274,76.470818 85.249802,75.204895 
	C86.663849,75.384811 88.077896,75.564728 89.600449,75.758453 
	C91.473923,73.068298 93.445129,70.237808 95.522949,67.254227 
	C94.989151,67.168610 94.370384,67.069366 93.899841,66.678680 
	C94.365273,65.588669 94.682480,64.790085 94.998871,63.672668 
	C94.945587,62.932579 94.893135,62.511318 94.989113,61.801792 
	C95.435379,60.711941 95.733208,59.910358 96.242035,59.106743 
	C96.453026,59.104706 96.874092,59.076359 96.933167,59.438583 
	C97.612991,61.877861 96.556084,65.591660 101.260803,64.143730 
	C102.671432,65.896370 103.836258,67.429451 105.096329,69.196114 
	C107.129143,69.979591 109.066704,70.529495 111.004272,71.079399 
z"/>
<path fill="#95734C" opacity="1.000000" stroke="none" 
	d="
M93.751617,66.970116 
	C94.370384,67.069366 94.989151,67.168610 95.522949,67.254227 
	C93.445129,70.237808 91.473923,73.068298 89.600449,75.758453 
	C88.077896,75.564728 86.663849,75.384811 85.249802,75.204895 
	C85.960274,76.470818 86.627945,77.763718 87.400856,78.990295 
	C87.742668,79.532745 88.297691,79.940842 88.896118,80.706573 
	C87.947357,80.692741 86.858421,80.382256 85.158340,79.838165 
	C83.369942,78.600677 82.192680,77.596802 80.855400,76.456482 
	C79.766624,77.794785 78.874962,78.890785 77.665207,79.914490 
	C76.223907,78.866844 75.100700,77.891487 73.977493,76.916130 
	C78.902954,74.165115 83.828415,71.414093 89.356880,68.400192 
	C91.223793,67.748245 92.487709,67.359177 93.751617,66.970116 
z"/>
<path fill="#BB9C72" opacity="1.000000" stroke="none" 
	d="
M77.983299,79.986794 
	C78.874962,78.890785 79.766624,77.794785 80.855400,76.456482 
	C82.192680,77.596802 83.369942,78.600677 84.825821,79.770737 
	C85.314224,81.143883 85.524017,82.350838 85.483383,83.825165 
	C81.837303,84.382019 78.441658,84.671494 75.109772,84.640457 
	C76.110123,82.875557 77.046707,81.431175 77.983299,79.986794 
z"/>
<path fill="#967652" opacity="1.000000" stroke="none" 
	d="
M75.046005,84.960976 
	C78.441658,84.671494 81.837303,84.382019 85.621002,84.073547 
	C86.603172,84.639114 87.197289,85.223671 88.084808,85.952957 
	C86.022575,86.739296 83.700439,87.629097 81.301903,87.952759 
	C78.901161,88.276711 76.424080,88.034988 73.519073,88.047264 
	C72.836807,87.814285 72.608673,87.582413 72.371758,86.939423 
	C73.262169,86.001099 74.154083,85.481041 75.046005,84.960976 
z"/>
<path fill="#A38560" opacity="1.000000" stroke="none" 
	d="
M75.109772,84.640457 
	C74.154083,85.481041 73.262169,86.001099 72.187241,86.779945 
	C70.544792,87.268227 69.085365,87.497719 67.340744,87.704514 
	C65.408188,86.230713 63.760822,84.779625 62.028378,83.100433 
	C64.653801,81.409218 67.364311,79.946106 70.629593,78.684845 
	C71.800636,78.338989 72.416901,77.791267 73.033157,77.243538 
	C73.182457,77.165733 73.331749,77.087929 73.729271,76.963127 
	C75.100700,77.891487 76.223907,78.866844 77.665207,79.914490 
	C77.046707,81.431175 76.110123,82.875557 75.109772,84.640457 
z"/>
<path fill="#AC8C69" opacity="1.000000" stroke="none" 
	d="
M59.045479,84.973259 
	C59.088730,84.930824 59.237629,85.150894 59.237629,85.150894 
	C59.237629,85.150894 59.027176,85.195534 58.973824,85.150345 
	C58.920475,85.105156 59.002224,85.015694 59.045479,84.973259 
z"/>
<path fill="#B48752" opacity="1.000000" stroke="none" 
	d="
M116.915054,52.102486 
	C118.673141,52.869343 120.431229,53.636204 122.561569,54.327904 
	C122.933830,54.252747 123.027435,54.129063 122.910873,54.332108 
	C122.841934,54.705318 122.889572,54.875484 123.070358,55.248169 
	C123.423035,55.688602 123.652985,55.915974 124.048233,56.376274 
	C124.746880,56.800655 125.290672,56.981556 125.834457,57.162460 
	C126.724777,58.018299 127.615097,58.874142 128.752655,60.307899 
	C129.054413,61.665558 129.108917,62.445293 129.163422,63.225029 
	C129.163437,63.225029 129.187500,63.248219 129.197144,63.263062 
	C128.125412,63.185505 127.044022,63.093105 125.473816,62.670506 
	C123.669220,61.185436 122.353447,60.030563 120.812729,58.655735 
	C119.392242,57.617653 118.196701,56.799526 116.982849,55.593903 
	C116.948051,54.171764 116.931557,53.137123 116.915054,52.102486 
z"/>
<path fill="#B69062" opacity="1.000000" stroke="none" 
	d="
M129.465454,63.174911 
	C129.108917,62.445293 129.054413,61.665558 129.005753,60.496819 
	C129.655975,60.852146 130.300354,61.596474 130.963654,62.656864 
	C130.577545,63.023552 130.172516,63.074173 129.465454,63.174911 
z"/>
<path fill="#4C2A13" opacity="1.000000" stroke="none" 
	d="
M125.931213,56.937733 
	C125.290672,56.981556 124.746880,56.800655 124.100998,56.091347 
	C124.004120,55.370487 124.009338,55.178036 124.008255,54.992386 
	C124.001961,54.999187 123.991646,55.015888 123.991646,55.015888 
	C124.670418,55.581596 125.349190,56.147301 125.931213,56.937733 
z"/>
<path fill="#4C2A13" opacity="1.000000" stroke="none" 
	d="
M122.937202,55.045654 
	C122.889572,54.875484 122.841934,54.705318 122.856079,54.277222 
	C123.212303,54.174297 123.471535,54.374836 123.843597,54.818398 
	C123.991646,55.015888 124.001961,54.999187 123.738014,54.993118 
	C123.295113,55.006580 123.116158,55.026115 122.937202,55.045654 
z"/>
<path fill="#DCB27A" opacity="1.000000" stroke="none" 
	d="
M121.037674,58.875694 
	C122.353447,60.030563 123.669220,61.185436 125.067093,62.679195 
	C122.579155,63.854355 120.009102,64.690628 117.439056,65.526901 
	C117.251595,65.103813 117.064125,64.680733 116.876663,64.257645 
	C116.441231,65.496605 116.005798,66.735565 115.155045,67.762894 
	C114.485779,65.375229 109.874367,65.382988 112.268524,61.891296 
	C113.709557,61.171494 114.853943,60.588860 116.379227,60.004128 
	C118.185966,59.626587 119.611824,59.251141 121.037674,58.875694 
z"/>
<path fill="#D3A872" opacity="1.000000" stroke="none" 
	d="
M111.971886,62.028465 
	C109.874367,65.382988 114.485779,65.375229 114.877304,67.850395 
	C113.840103,68.990601 112.665329,69.831696 111.247414,70.876099 
	C109.066704,70.529495 107.129143,69.979591 105.213455,68.918320 
	C104.842674,63.494514 108.605179,62.970497 111.971886,62.028465 
z"/>
<path fill="#BC9466" opacity="1.000000" stroke="none" 
	d="
M104.506477,78.504990 
	C104.486801,78.511894 104.526154,78.498093 104.506477,78.504990 
z"/>
<path fill="#BC9466" opacity="1.000000" stroke="none" 
	d="
M105.444046,81.470703 
	C105.392479,81.488426 105.158577,81.244209 105.158577,81.244209 
	C105.158577,81.244209 105.387886,81.221680 105.456360,81.284798 
	C105.524841,81.347916 105.495621,81.452980 105.444046,81.470703 
z"/>
<path fill="#EEC98D" opacity="1.000000" stroke="none" 
	d="
M96.874092,59.076359 
	C96.874092,59.076359 96.453026,59.104706 96.097107,58.789516 
	C94.488991,56.627129 93.236794,54.779930 91.984604,52.932732 
	C91.477249,51.133698 90.969902,49.334663 90.269470,47.244740 
	C90.076393,46.953854 90.000427,47.000664 90.000427,47.000664 
	C89.595734,46.401039 88.977493,45.849052 88.830879,45.191853 
	C88.527168,43.830433 88.474174,42.413086 88.238045,40.303734 
	C90.110382,39.772854 93.175316,38.903831 96.857269,38.231045 
	C98.331161,39.300751 99.188019,40.174217 100.065491,41.400921 
	C100.377136,44.171776 100.668167,46.589394 100.892624,49.262512 
	C100.400375,50.186882 99.974701,50.855762 99.714096,51.265251 
	C100.884445,52.232216 101.949753,53.112392 102.785515,53.984436 
	C102.555969,53.976303 102.096657,53.967918 101.902634,53.995312 
	C101.459267,54.385307 101.209915,54.747910 100.846527,55.411125 
	C99.446350,56.833279 98.160217,57.954819 96.874092,59.076359 
M97.525871,47.497147 
	C97.525871,47.497147 97.488831,47.509098 97.525871,47.497147 
z"/>
<path fill="#D6A466" opacity="1.000000" stroke="none" 
	d="
M62.114864,49.832172 
	C61.463589,48.996471 60.812317,48.160770 60.409420,46.835655 
	C62.755123,45.966663 64.852448,45.587093 67.201599,45.183670 
	C67.622063,45.158287 67.790688,45.156761 67.979225,45.439400 
	C72.324661,48.174149 76.650200,50.624741 80.975731,53.075329 
	C82.081223,53.966682 83.186714,54.858032 84.861565,55.927361 
	C87.659401,57.667778 91.474480,57.726185 90.537247,61.930931 
	C87.272926,61.321407 84.428993,60.331669 81.535255,60.154221 
	C77.739983,59.921486 74.752350,59.019760 72.003082,55.991276 
	C69.970894,53.752689 66.605568,52.724331 63.610687,50.998199 
	C62.963085,50.503792 62.538975,50.167980 62.114864,49.832172 
z"/>
<path fill="#E4C088" opacity="1.000000" stroke="none" 
	d="
M81.109291,52.757607 
	C76.650200,50.624741 72.324661,48.174149 68.144127,45.148037 
	C69.660553,40.147522 73.396812,40.302406 76.949066,40.100933 
	C82.263916,42.862480 80.421692,48.114590 81.109291,52.757607 
M74.694672,43.943165 
	C75.195557,43.853718 75.702156,43.783382 76.186485,43.638588 
	C76.225258,43.626995 76.110504,43.101849 76.067101,42.815353 
	C75.592186,43.045479 75.117271,43.275604 74.694672,43.943165 
z"/>
<path fill="#F4D59C" opacity="1.000000" stroke="none" 
	d="
M77.162811,39.844891 
	C73.396812,40.302406 69.660553,40.147522 68.124222,44.863876 
	C67.790688,45.156761 67.622063,45.158287 67.236610,44.813316 
	C67.232452,42.311436 68.471466,39.781662 65.069313,38.683273 
	C65.422005,37.520580 65.718407,36.640015 66.014801,35.759449 
	C70.033012,35.606659 74.051231,35.453869 78.522720,35.404541 
	C78.442841,36.868282 77.909698,38.228565 77.162811,39.844891 
z"/>
<path fill="#DDB47C" opacity="1.000000" stroke="none" 
	d="
M90.935478,61.912079 
	C91.474480,57.726185 87.659401,57.667778 85.161850,56.005089 
	C84.229393,49.185047 88.745270,53.071575 91.609589,52.870373 
	C93.236794,54.779930 94.488991,56.627129 95.886108,58.791550 
	C95.733208,59.910358 95.435379,60.711941 94.788101,61.784515 
	C94.438644,62.055504 94.035049,62.020351 93.851929,61.873295 
	C93.111099,61.818951 92.553383,61.911663 91.730087,61.987484 
	C91.288162,61.951092 91.111816,61.931583 90.935478,61.912079 
z"/>
<path fill="#E6C38D" opacity="1.000000" stroke="none" 
	d="
M100.044876,41.047688 
	C99.188019,40.174217 98.331161,39.300751 97.253082,38.218124 
	C96.703339,36.900490 96.374832,35.792011 96.032333,34.335732 
	C98.154518,35.883579 100.290680,37.779228 102.452133,40.028114 
	C101.666573,40.603466 100.855721,40.825577 100.044876,41.047688 
z"/>
<path fill="#E6C38D" opacity="1.000000" stroke="none" 
	d="
M95.136803,33.652504 
	C95.273949,33.523830 95.564476,33.508408 95.935394,33.739586 
	C95.756653,33.969524 95.514793,33.896049 95.136803,33.652504 
z"/>
<path fill="#F1CF95" opacity="1.000000" stroke="none" 
	d="
M45.045956,37.969620 
	C45.579586,37.341015 46.113220,36.712410 46.839218,35.828476 
	C47.783520,35.750214 48.535450,35.927280 49.697239,36.523758 
	C51.071594,38.961807 52.036095,40.980434 52.970879,43.345329 
	C52.084633,44.637371 51.397137,45.931229 50.332413,46.448238 
	C48.689514,47.245998 46.788364,47.511913 44.968685,47.725914 
	C44.501083,46.859615 44.061546,46.270817 43.622013,45.682018 
	C43.391819,45.907314 43.161629,46.132610 42.931435,46.357906 
	C43.622032,46.904549 44.312630,47.451191 44.912952,48.318718 
	C43.580597,48.971737 41.469376,49.890018 41.235027,49.542530 
	C39.486012,46.949093 38.108505,44.105106 36.614540,41.339661 
	C39.262115,40.233028 41.908833,39.124332 44.559582,38.025360 
	C44.704502,37.965279 44.883057,37.986332 45.045956,37.969620 
z"/>
<path fill="#F1CF95" opacity="1.000000" stroke="none" 
	d="
M65.602257,35.606911 
	C65.718407,36.640015 65.422005,37.520580 64.689468,38.711548 
	C61.861710,39.703907 59.470089,40.385860 56.990692,40.714485 
	C56.595398,38.943707 56.287884,37.526260 55.980370,36.108810 
	C59.050152,35.890667 62.119930,35.672520 65.602257,35.606911 
z"/>
<path fill="#F8DBA1" opacity="1.000000" stroke="none" 
	d="
M55.557484,36.066216 
	C56.287884,37.526260 56.595398,38.943707 56.987255,41.036419 
	C57.067753,42.142597 57.063908,42.573509 56.869896,43.143967 
	C56.436234,43.482719 56.214191,43.703503 55.704666,43.878540 
	C54.597359,43.540504 53.798977,43.269783 53.000595,42.999062 
	C52.036095,40.980434 51.071594,38.961807 50.075794,36.603241 
	C51.741196,36.183407 53.437901,36.103512 55.557484,36.066216 
z"/>
<path fill="#E1B980" opacity="1.000000" stroke="none" 
	d="
M100.065491,41.400921 
	C100.855721,40.825577 101.666573,40.603466 102.740700,40.201580 
	C107.457161,43.912109 111.910339,47.802406 116.639290,51.897594 
	C116.931557,53.137123 116.948051,54.171764 116.653740,55.594318 
	C115.904366,55.989925 115.465813,55.997616 114.717354,55.928116 
	C112.049316,54.458199 109.796097,51.996696 107.875710,54.587269 
	C106.453232,53.640099 105.241661,52.833363 103.973824,51.683502 
	C102.931442,50.562592 101.945320,49.784801 100.959206,49.007015 
	C100.668167,46.589394 100.377136,44.171776 100.065491,41.400921 
M107.447273,48.965549 
	C107.447273,48.965549 107.521370,48.938362 107.447273,48.965549 
z"/>
<path fill="#E7C28B" opacity="1.000000" stroke="none" 
	d="
M52.970879,43.345329 
	C53.798977,43.269783 54.597359,43.540504 55.702950,44.133572 
	C56.011745,44.625546 56.013332,44.795170 55.997604,45.264904 
	C56.000942,46.720802 56.021595,47.876595 56.066933,49.411396 
	C55.840714,51.891418 55.589802,53.992435 55.338894,56.093449 
	C53.034416,55.505478 50.729939,54.917503 47.282253,54.037853 
	C45.954029,56.028767 43.995140,58.964993 42.002819,61.584435 
	C40.996574,58.807274 40.023762,56.346905 39.006706,53.544479 
	C37.980659,51.807690 36.998848,50.412960 36.017040,49.018227 
	C34.488525,48.644993 32.960007,48.271763 31.016022,47.858402 
	C30.408804,44.026657 30.217056,40.235035 30.003830,36.061634 
	C30.702013,35.704018 31.421669,35.728184 32.500259,35.736404 
	C36.767422,36.258671 40.675652,36.796883 44.814919,37.652359 
	C44.883057,37.986332 44.704502,37.965279 44.559582,38.025360 
	C41.908833,39.124332 39.262115,40.233028 36.614540,41.339661 
	C38.108505,44.105106 39.486012,46.949093 41.235027,49.542530 
	C41.469376,49.890018 43.580597,48.971737 44.911335,48.319809 
	C44.999992,48.000015 44.996754,48.003414 44.996754,48.003414 
	C46.788364,47.511913 48.689514,47.245998 50.332413,46.448238 
	C51.397137,45.931229 52.084633,44.637371 52.970879,43.345329 
z"/>
<path fill="#D9AE73" opacity="1.000000" stroke="none" 
	d="
M39.050949,53.886536 
	C40.023762,56.346905 40.996574,58.807274 41.986664,61.880753 
	C41.995369,62.690746 41.986794,62.887630 41.647297,63.063454 
	C40.875145,63.012554 40.433910,62.982719 39.992676,62.952881 
	C36.458488,63.798145 33.308971,64.086571 34.131516,58.130043 
	C34.522575,56.656746 34.783283,55.867271 35.043991,55.077793 
	C35.043987,55.077793 35.048183,55.048283 35.394215,54.964378 
	C36.843815,54.549164 37.947380,54.217850 39.050949,53.886536 
z"/>
<path fill="#E2BE8E" opacity="1.000000" stroke="none" 
	d="
M39.866417,63.251328 
	C40.433910,62.982719 40.875145,63.012554 41.913139,63.223740 
	C46.130756,61.687202 48.190582,65.009354 50.841892,66.314110 
	C50.443829,67.398453 50.169006,68.192574 49.894188,68.986694 
	C49.376911,69.256683 48.859634,69.526672 48.141754,70.020447 
	C45.216476,69.439064 42.491798,68.633904 39.396805,67.570190 
	C39.009327,66.878220 38.992172,66.444809 38.975014,66.011391 
	C39.230061,65.190849 39.485111,64.370308 39.866417,63.251328 
z"/>
<path fill="#E3BB82" opacity="1.000000" stroke="none" 
	d="
M34.656883,55.062164 
	C34.783283,55.867271 34.522575,56.656746 34.130814,57.732056 
	C33.347473,57.251606 32.695190,56.485317 31.994190,55.401424 
	C32.720242,55.071392 33.495010,55.058960 34.656883,55.062164 
z"/>
<path fill="#CFAA7B" opacity="1.000000" stroke="none" 
	d="
M38.701813,66.087280 
	C38.992172,66.444809 39.009327,66.878220 39.037788,67.636269 
	C38.878418,67.972328 38.707748,67.983757 38.280968,68.005661 
	C37.763523,67.825783 37.520306,67.614578 37.132553,67.203751 
	C37.456135,66.737717 37.942371,66.450447 38.701813,66.087280 
z"/>
<path fill="#E3BB82" opacity="1.000000" stroke="none" 
	d="
M39.006706,53.544479 
	C37.947380,54.217850 36.843815,54.549164 35.408852,54.961559 
	C35.289291,53.267300 35.501125,51.491959 35.865002,49.367424 
	C36.998848,50.412960 37.980659,51.807690 39.006706,53.544479 
z"/>
<path fill="#A38360" opacity="1.000000" stroke="none" 
	d="
M40.003120,80.004601 
	C40.006184,80.009003 40.075256,79.951805 40.033493,79.973175 
	C39.991726,79.994545 40.000053,80.000198 40.003120,80.004601 
z"/>
<path fill="#D4AD7C" opacity="1.000000" stroke="none" 
	d="
M50.965141,66.023888 
	C48.190582,65.009354 46.130756,61.687202 42.244057,63.244804 
	C41.986794,62.887630 41.995369,62.690746 42.020103,62.197540 
	C43.995140,58.964993 45.954029,56.028767 47.282253,54.037853 
	C50.729939,54.917503 53.034416,55.505478 55.338894,56.093449 
	C55.589802,53.992435 55.840714,51.891418 56.357224,49.392536 
	C57.205627,48.979675 57.788429,48.964680 58.371235,48.949684 
	C59.636776,53.689896 60.902317,58.430111 62.181355,63.564777 
	C60.339989,64.579926 58.485126,65.200615 56.158417,65.578461 
	C55.135761,63.986580 54.584957,62.637539 53.683834,60.430481 
	C52.438393,62.992832 51.701767,64.508362 50.965141,66.023888 
z"/>
<path fill="#45260D" opacity="1.000000" stroke="none" 
	d="
M78.999115,70.148949 
	C75.648117,72.957626 70.619019,71.890320 67.364342,75.248985 
	C66.744156,75.888992 64.465805,74.922157 62.814102,74.245705 
	C64.794212,70.843124 66.912720,67.891525 69.031227,64.939934 
	C69.196068,64.760513 69.352280,64.573875 69.984619,64.186401 
	C71.323868,63.560890 72.178383,63.128986 73.497635,62.678299 
	C78.634651,62.938507 83.306931,63.217499 87.776505,63.747200 
	C84.715569,66.048256 81.857338,68.098602 78.999115,70.148949 
z"/>
<path fill="#E4C088" opacity="1.000000" stroke="none" 
	d="
M58.498032,48.588112 
	C57.788429,48.964680 57.205627,48.979675 56.332535,49.013527 
	C56.021595,47.876595 56.000942,46.720802 56.223297,45.196045 
	C56.664223,44.219524 56.862144,43.611977 57.060066,43.004425 
	C57.063908,42.573509 57.067753,42.142597 57.075035,41.389748 
	C59.470089,40.385860 61.861710,39.703907 64.633171,38.993679 
	C68.471466,39.781662 67.232452,42.311436 66.984787,44.837173 
	C64.852448,45.587093 62.755123,45.966663 60.399563,46.512188 
	C59.635826,47.194271 59.130325,47.710403 58.498032,48.588112 
z"/>
<path fill="#9D7D58" opacity="1.000000" stroke="none" 
	d="
M68.667763,64.964432 
	C66.912720,67.891525 64.794212,70.843124 62.505314,74.084000 
	C62.334919,74.373268 62.211700,74.521111 61.948494,74.798866 
	C61.385986,76.348465 61.086681,77.620300 60.787380,78.892143 
	C59.435005,79.264008 58.082634,79.635864 56.374741,79.952568 
	C60.114246,74.927917 64.209274,69.958420 68.667763,64.964432 
z"/>
<path fill="#744F2A" opacity="1.000000" stroke="none" 
	d="
M62.106583,50.239388 
	C62.538975,50.167980 62.963085,50.503792 63.671448,51.339149 
	C65.986702,54.877029 68.017708,57.915359 69.938843,61.044331 
	C69.828972,61.134972 69.607391,61.313995 69.607391,61.313995 
	C62.975552,60.664589 62.947582,55.366520 62.106583,50.239388 
z"/>
<path fill="#744F2A" opacity="1.000000" stroke="none" 
	d="
M73.032898,62.697083 
	C72.178383,63.128986 71.323868,63.560890 70.094223,64.040390 
	C69.724342,63.390770 69.729599,62.693546 69.671120,61.655159 
	C69.607391,61.313995 69.828972,61.134972 70.202927,61.165688 
	C71.395561,61.696632 72.214226,62.196857 73.032898,62.697083 
z"/>
<path fill="#58371A" opacity="1.000000" stroke="none" 
	d="
M79.378563,70.094101 
	C81.857338,68.098602 84.715569,66.048256 88.156754,63.808811 
	C90.826370,63.743645 92.913033,63.867577 94.999687,63.991505 
	C94.682480,64.790085 94.365273,65.588669 93.899841,66.678680 
	C92.487709,67.359177 91.223793,67.748245 89.629120,68.190697 
	C86.118233,68.842468 82.938126,69.440857 79.378563,70.094101 
z"/>
<path fill="#45260D" opacity="1.000000" stroke="none" 
	d="
M61.120792,78.841805 
	C61.086681,77.620300 61.385986,76.348465 61.952133,74.895027 
	C63.783089,76.413910 64.110062,77.882378 61.120792,78.841805 
z"/>
<path fill="#95734C" opacity="1.000000" stroke="none" 
	d="
M72.778763,77.271133 
	C72.416901,77.791267 71.800636,78.338989 71.015305,78.671021 
	C71.405617,78.069801 71.964989,77.684265 72.778763,77.271133 
z"/>
<path fill="#C29D72" opacity="1.000000" stroke="none" 
	d="
M50.841896,66.314110 
	C51.701767,64.508362 52.438393,62.992832 53.683834,60.430481 
	C54.584957,62.637539 55.135761,63.986580 55.800957,65.650772 
	C55.240379,66.314178 53.942532,66.780487 53.982841,66.993172 
	C54.716724,70.865158 52.303165,69.435577 50.219398,69.048660 
	C50.169006,68.192574 50.443829,67.398453 50.841896,66.314110 
z"/>
<path fill="#EBC891" opacity="1.000000" stroke="none" 
	d="
M94.998871,63.672668 
	C92.913033,63.867577 90.826370,63.743645 88.359467,63.558098 
	C83.306931,63.217499 78.634651,62.938507 73.497635,62.678299 
	C72.214226,62.196857 71.395561,61.696632 70.312805,61.075047 
	C68.017708,57.915359 65.986702,54.877029 63.894936,51.497749 
	C66.605568,52.724331 69.970894,53.752689 72.003082,55.991276 
	C74.752350,59.019760 77.739983,59.921486 81.535255,60.154221 
	C84.428993,60.331669 87.272926,61.321407 90.537247,61.930931 
	C91.111816,61.931583 91.288162,61.951092 92.069580,62.006851 
	C93.128128,62.035526 93.581589,62.027939 94.035049,62.020351 
	C94.035049,62.020351 94.438644,62.055504 94.639664,62.072784 
	C94.893135,62.511318 94.945587,62.932579 94.998871,63.672668 
z"/>
<path fill="#E8BF87" opacity="1.000000" stroke="none" 
	d="
M104.030090,52.026627 
	C105.241661,52.833363 106.453232,53.640099 107.875710,54.587269 
	C109.796097,51.996696 112.049316,54.458199 114.715683,56.255898 
	C115.003464,57.097530 114.983009,57.534199 114.592880,57.977512 
	C113.482796,57.990215 112.742386,57.996269 111.647278,58.079319 
	C109.868919,58.426891 108.445267,58.697472 106.991074,58.927544 
	C106.960541,58.887032 106.970413,59.020409 106.831078,59.311810 
	C104.799500,61.043533 102.907257,62.483856 101.015015,63.924175 
	C96.556084,65.591660 97.612991,61.877861 96.933167,59.438583 
	C98.160217,57.954819 99.446350,56.833279 101.045380,55.229458 
	C101.604401,54.487423 101.850533,54.227673 102.096657,53.967918 
	C102.096657,53.967918 102.555969,53.976303 102.956604,53.764069 
	C103.581528,53.043430 103.805809,52.535027 104.030090,52.026627 
z"/>
<path fill="#DFB57E" opacity="1.000000" stroke="none" 
	d="
M107.021606,58.968048 
	C108.445267,58.697472 109.868919,58.426891 111.792015,58.287594 
	C113.191536,58.614300 114.091614,58.809723 115.148895,59.182384 
	C115.523521,59.589420 115.754272,59.804955 115.998337,60.006226 
	C114.853943,60.588860 113.709557,61.171494 112.268524,61.891296 
	C108.605179,62.970497 104.842674,63.494514 105.118210,68.684738 
	C103.836258,67.429451 102.671432,65.896370 101.260803,64.143730 
	C102.907257,62.483856 104.799500,61.043533 106.845215,59.300064 
	C106.998680,58.996922 107.021606,58.968048 107.021606,58.968048 
z"/>
<path fill="#D5A46A" opacity="1.000000" stroke="none" 
	d="
M116.379227,60.004128 
	C115.754272,59.804955 115.523521,59.589420 115.142952,58.923748 
	C114.974060,58.315536 114.968307,58.143204 114.962563,57.970867 
	C114.983009,57.534199 115.003464,57.097530 115.025589,56.333084 
	C115.465813,55.997616 115.904366,55.989925 116.672043,55.981819 
	C118.196701,56.799526 119.392242,57.617653 120.812729,58.655731 
	C119.611824,59.251141 118.185966,59.626587 116.379227,60.004128 
z"/>
<path fill="#6A421E" opacity="1.000000" stroke="none" 
	d="
M123.070358,55.248169 
	C123.116158,55.026115 123.295113,55.006580 123.744308,54.986317 
	C124.009338,55.178036 124.004120,55.370487 123.946136,55.847870 
	C123.652985,55.915974 123.423035,55.688602 123.070358,55.248169 
z"/>
<path fill="#DDB27A" opacity="1.000000" stroke="none" 
	d="
M103.973824,51.683502 
	C103.805809,52.535027 103.581528,53.043430 103.186157,53.772202 
	C101.949753,53.112392 100.884445,52.232216 99.714096,51.265251 
	C99.974701,50.855762 100.400375,50.186882 100.892624,49.262512 
	C101.945320,49.784801 102.931442,50.562592 103.973824,51.683502 
z"/>
<path fill="#DDB27A" opacity="1.000000" stroke="none" 
	d="
M101.902634,53.995312 
	C101.850533,54.227673 101.604401,54.487423 101.159424,54.928841 
	C101.209915,54.747910 101.459267,54.385307 101.902634,53.995312 
z"/>
<path fill="#F2CF95" opacity="1.000000" stroke="none" 
	d="
M90.000214,47.000332 
	C90.000427,47.000664 90.076393,46.953854 90.037888,46.976711 
	C89.999390,46.999569 90.000000,47.000000 90.000214,47.000332 
z"/>
<path fill="#E1B980" opacity="1.000000" stroke="none" 
	d="
M97.507355,47.503120 
	C97.488831,47.509098 97.525871,47.497147 97.507355,47.503120 
z"/>
<path fill="#F4D59C" opacity="1.000000" stroke="none" 
	d="
M74.668518,43.724449 
	C75.117271,43.275604 75.592186,43.045479 76.067093,42.815353 
	C76.110504,43.101849 76.225258,43.626995 76.186485,43.638588 
	C75.702156,43.783382 75.195557,43.853718 74.668518,43.724449 
z"/>
<path fill="#D6A466" opacity="1.000000" stroke="none" 
	d="
M93.851929,61.873295 
	C93.581589,62.027939 93.128128,62.035526 92.335175,62.023743 
	C92.553383,61.911663 93.111099,61.818951 93.851929,61.873295 
z"/>
<path fill="#E7C28B" opacity="1.000000" stroke="none" 
	d="
M45.001610,47.998924 
	C44.312630,47.451191 43.622032,46.904549 42.931435,46.357906 
	C43.161629,46.132610 43.391819,45.907314 43.622013,45.682018 
	C44.061546,46.270817 44.501083,46.859615 44.968685,47.725914 
	C44.996754,48.003414 44.999992,48.000015 45.001610,47.998924 
z"/>
<path fill="#F1CF95" opacity="1.000000" stroke="none" 
	d="
M56.869896,43.143967 
	C56.862144,43.611977 56.664223,44.219524 56.240608,44.895935 
	C56.013332,44.795170 56.011745,44.625546 56.011879,44.200890 
	C56.214191,43.703503 56.436234,43.482719 56.869896,43.143967 
z"/>
<path fill="#DDB27A" opacity="1.000000" stroke="none" 
	d="
M107.484322,48.951958 
	C107.521370,48.938362 107.447273,48.965549 107.484322,48.951958 
z"/>
<path fill="#DCB27A" opacity="1.000000" stroke="none" 
	d="
M114.592880,57.977512 
	C114.968307,58.143204 114.974060,58.315536 114.985748,58.746510 
	C114.091614,58.809723 113.191536,58.614300 112.146713,58.210602 
	C112.742386,57.996269 113.482796,57.990215 114.592880,57.977512 
z"/>
<path fill="#DFB57E" opacity="1.000000" stroke="none" 
	d="
M106.984543,59.008667 
	C106.970413,59.020409 106.960541,58.887032 106.991074,58.927540 
	C107.021606,58.968048 106.998680,58.996922 106.984543,59.008667 
z"/>
</svg>