<svg xmlns="http://www.w3.org/2000/svg" viewBox="0 0 389 526" fill="none">
  <defs>
    <linearGradient id="paperBase" x1="38" y1="42" x2="334" y2="494" gradientUnits="userSpaceOnUse">
      <stop offset="0" stop-color="#FAEFD9"/>
      <stop offset="0.52" stop-color="#F1D4A0"/>
      <stop offset="1" stop-color="#C98C52"/>
    </linearGradient>
    <linearGradient id="paperInset" x1="92" y1="88" x2="300" y2="426" gradientUnits="userSpaceOnUse">
      <stop offset="0" stop-color="#FFF6E6" stop-opacity="0.95"/>
      <stop offset="1" stop-color="#D9A66B" stop-opacity="0.55"/>
    </linearGradient>
    <radialGradient id="coreGlow" cx="0" cy="0" r="1" gradientUnits="userSpaceOnUse" gradientTransform="translate(198 215) rotate(90) scale(228 176)">
      <stop offset="0" stop-color="#FFF8EF" stop-opacity="0.92"/>
      <stop offset="0.6" stop-color="#FFDDAA" stop-opacity="0.35"/>
      <stop offset="1" stop-color="#FFDDAA" stop-opacity="0"/>
    </radialGradient>
    <filter id="drop" x="-14%" y="-10%" width="128%" height="128%">
      <feDropShadow dx="0" dy="18" stdDeviation="20" flood-color="#190F0B" flood-opacity="0.34"/>
    </filter>
    <filter id="innerShadow" x="-10%" y="-10%" width="120%" height="120%">
      <feOffset dy="5"/>
      <feGaussianBlur stdDeviation="7" result="b"/>
      <feComposite in="SourceAlpha" in2="b" operator="out" result="shadowDiff"/>
      <feColorMatrix in="shadowDiff" type="matrix" values="0 0 0 0 0.36 0 0 0 0 0.19 0 0 0 0 0.08 0 0 0 0.36 0"/>
      <feBlend in="SourceGraphic" mode="multiply"/>
    </filter>
  </defs>

  <g filter="url(#drop)">
    <path d="M94 28H293C326 28 353 55 353 88V360C353 393 326 420 293 420H230L192 492L153 420H94C61 420 34 393 34 360V88C34 55 61 28 94 28Z" fill="url(#paperBase)"/>
    <path d="M100 42H287C312.405 42 333 62.5949 333 88V353C333 378.405 312.405 399 287 399H221.5L192 454L163 399H100C74.5949 399 54 378.405 54 353V88C54 62.5949 74.5949 42 100 42Z" fill="url(#paperInset)" stroke="#FFF6EA" stroke-opacity="0.74" stroke-width="2"/>
    <path d="M112 66H276C293.673 66 308 80.3269 308 98V334C308 351.673 293.673 366 276 366H112C94.3269 366 80 351.673 80 334V98C80 80.3269 94.3269 66 112 66Z" fill="url(#coreGlow)" filter="url(#innerShadow)"/>
    <path d="M94 28H293C326 28 353 55 353 88V360C353 393 326 420 293 420H230L192 492L153 420H94C61 420 34 393 34 360V88C34 55 61 28 94 28Z" stroke="#FBECD6" stroke-opacity="0.48" stroke-width="2.5"/>
  </g>

  <path d="M103 52H284" stroke="#FFF9F0" stroke-opacity="0.66" stroke-width="3" stroke-linecap="round"/>
  <path d="M93 87H293" stroke="#9E6134" stroke-opacity="0.24" stroke-width="2" stroke-linecap="round"/>
  <circle cx="126" cy="54" r="5" fill="#FFF8EE" fill-opacity="0.9"/>
  <circle cx="193" cy="54" r="4" fill="#FFF8EE" fill-opacity="0.7"/>
  <circle cx="260" cy="54" r="5" fill="#FFF8EE" fill-opacity="0.9"/>
  <path d="M166 433H219" stroke="#FBE8CA" stroke-opacity="0.72" stroke-width="5" stroke-linecap="round"/>
</svg>
